# MagicaVoxel @ Ephtracy

# group
o 

# material
mtllib Knives.mtl
usemtl palette

# normals
vn -1 0 0
vn 1 0 0
vn 0 0 1
vn 0 0 -1
vn 0 -1 0
vn 0 1 0

# texcoords
vt 0.939453 0.5
vt 0.947266 0.5
vt 0.951172 0.5
vt 0.970703 0.5
vt 0.974609 0.5
vt 0.978516 0.5

# verts
v -1.9 2.1 0.2
v -1.9 2.1 -0.1
v -1.9 2.5 0.2
v -1.9 2.5 -0.1
v -1.6 2.6 0.3
v -1.6 2.6 0.1
v -1.6 3.1 0.3
v -1.6 3.1 0.1
v -1.6 3.3 0.3
v -1.6 3.3 0.1
v -1.5 2.3 0.3
v -1.5 2.3 0.1
v -1.5 2.4 0.1
v -1.5 2.6 0.3
v -1.5 2.6 0.1
v -1.5 3.3 0.3
v -1.5 3.3 0.1
v -1.5 3.4 0.3
v -1.5 3.4 0.1
v -1.4 1 0.4
v -1.4 1 0
v -1.4 1.2 0.4
v -1.4 1.2 0
v -1.4 2 0.4
v -1.4 2 0
v -1.4 2.1 0.4
v -1.4 2.1 0
v -1.4 2.2 0.3
v -1.4 2.2 0.1
v -1.4 2.3 0.3
v -1.4 2.3 0.1
v -1.4 3.4 0.3
v -1.4 3.4 0.1
v -1.4 3.5 0.3
v -1.4 3.5 0.1
v -1.3 1.2 0.3
v -1.3 1.2 0.1
v -1.3 2 0.3
v -1.3 2 0.1
v -1.3 2.1 0.3
v -1.3 2.1 0.1
v -1.3 2.2 0.3
v -1.3 2.2 0.1
v -1.3 3.5 0.3
v -1.3 3.5 0.1
v -1.3 3.6 0.3
v -1.3 3.6 0.1
v -1.2 3.6 0.3
v -1.2 3.6 0.1
v -1.2 3.7 0.3
v -1.2 3.7 0.1
v -1.1 1.3 0.3
v -1.1 1.3 0.1
v -1.1 1.5 0.3
v -1.1 1.5 0.1
v -1.1 3.7 0.3
v -1.1 3.7 0.1
v -1.1 3.8 0.3
v -1.1 3.8 0.1
v -0.5 0.6 0.3
v -0.5 0.6 0
v -0.5 0.8 0.3
v -0.5 0.8 0
v -0.5 2.1 0.3
v -0.5 2.1 0
v -0.5 2.2 0.3
v -0.5 2.2 0.1
v -0.5 2.2 0
v -0.5 2.3 0.3
v -0.5 2.3 0.1
v -0.5 2.4 0.1
v -0.5 3.4 0.3
v -0.5 3.4 0.1
v -0.5 3.6 0.3
v -0.5 3.6 0.1
v -0.4 0.8 0.2
v -0.4 0.8 0.1
v -0.4 2.1 0.2
v -0.4 2.1 0.1
v -0.4 2.2 0.3
v -0.4 2.2 0.1
v -0.4 2.3 0.3
v -0.4 2.3 0.1
v -0.4 3.6 0.3
v -0.4 3.6 0.1
v -0.4 3.7 0.3
v -0.4 3.7 0.1
v -0.3 3.7 0.3
v -0.3 3.7 0.1
v -0.3 3.8 0.3
v -0.3 3.8 0.1
v -0.2 0.9 0.2
v -0.2 0.9 0.1
v -0.2 1.2 0.2
v -0.2 1.2 0.1
v -0.2 3.8 0.3
v -0.2 3.8 0.1
v -0.2 3.9 0.3
v -0.2 3.9 0.1
v 0.3 2.3 0.3
v 0.3 2.3 0.1
v 0.3 2.4 0.1
v 0.3 3.1 0.2
v 0.3 3.1 0.1
v 0.3 3.2 0.3
v 0.3 3.2 0.2
v 0.3 3.5 0.3
v 0.3 3.5 0.1
v 0.4 2.2 0.3
v 0.4 2.2 0.1
v 0.4 2.3 0.3
v 0.4 2.3 0.1
v 0.4 3.5 0.3
v 0.4 3.5 0.1
v 0.4 3.6 0.3
v 0.4 3.6 0.1
v 0.5 0.9 0.4
v 0.5 0.9 0
v 0.5 1.1 0.4
v 0.5 1.1 0
v 0.5 2 0.4
v 0.5 2 0
v 0.5 2.1 0.4
v 0.5 2.1 0
v 0.6 1.1 0.3
v 0.6 1.1 0.1
v 0.6 2 0.3
v 0.6 2 0.1
v 0.6 2.1 0.3
v 0.6 2.1 0.1
v 0.6 2.2 0.3
v 0.6 2.2 0.1
v 0.9 1.2 0.3
v 0.9 1.2 0.1
v 0.9 1.5 0.3
v 0.9 1.5 0.1
v 1.3 2.1 0.2
v 1.3 2.1 -0.1
v 1.3 2.2 0.1
v 1.3 2.2 -0.1
v 1.3 2.4 0.1
v 1.3 2.4 -0.1
v 1.3 2.5 0.2
v 1.3 2.5 -0.1
v -1.8 2.1 0.2
v -1.8 2.1 -0.1
v -1.8 2.2 0.1
v -1.8 2.2 -0.1
v -1.8 2.4 0.1
v -1.8 2.4 -0.1
v -1.8 2.5 0.2
v -1.8 2.5 -0.1
v -1.2 1.3 0.3
v -1.2 1.3 0.1
v -1.2 1.5 0.3
v -1.2 1.5 0.1
v -1 1.2 0.3
v -1 1.2 0.1
v -1 2 0.3
v -1 2 0.1
v -1 2.1 0.3
v -1 2.1 0.1
v -1 2.2 0.1
v -1 2.4 0.1
v -1 3.6 0.2
v -1 3.6 0.1
v -1 3.7 0.3
v -1 3.7 0.2
v -1 3.8 0.3
v -1 3.8 0.1
v -0.9 1 0.4
v -0.9 1 0
v -0.9 1.2 0.4
v -0.9 1.2 0
v -0.9 2 0.4
v -0.9 2 0
v -0.9 2.1 0.4
v -0.9 2.1 0
v -0.3 0.9 0.2
v -0.3 0.9 0.1
v -0.3 1.2 0.2
v -0.3 1.2 0.1
v -0.1 0.8 0.2
v -0.1 0.8 0.1
v -0.1 2.1 0.2
v -0.1 2.1 0.1
v -0.1 2.2 0.3
v -0.1 2.2 0.1
v -0.1 2.4 0.1
v -0.1 3.7 0.3
v -0.1 3.7 0.1
v -0.1 3.9 0.3
v -0.1 3.9 0.1
v 0 0.6 0.3
v 0 0.6 0
v 0 0.8 0.3
v 0 0.8 0
v 0 2.1 0.3
v 0 2.1 0
v 0 2.2 0.3
v 0 2.2 0.1
v 0 2.2 0
v 0.7 1.2 0.3
v 0.7 1.2 0.1
v 0.7 1.5 0.3
v 0.7 1.5 0.1
v 1 1.1 0.3
v 1 1.1 0.1
v 1 2 0.3
v 1 2 0.1
v 1 2.1 0.3
v 1 2.1 0.1
v 1 2.2 0.1
v 1 2.4 0.1
v 1 3.5 0.3
v 1 3.5 0.1
v 1 3.6 0.3
v 1 3.6 0.1
v 1.1 0.9 0.4
v 1.1 0.9 0
v 1.1 1.1 0.4
v 1.1 1.1 0
v 1.1 2 0.4
v 1.1 2 0
v 1.1 2.1 0.4
v 1.1 2.1 0
v 1.4 2.1 0.2
v 1.4 2.1 -0.1
v 1.4 2.5 0.2
v 1.4 2.5 -0.1
v -1.4 1 0.4
v -1.4 1.2 0.4
v -1.4 2 0.4
v -1.4 2.1 0.4
v -0.9 1 0.4
v -0.9 1.2 0.4
v -0.9 2 0.4
v -0.9 2.1 0.4
v 0.5 0.9 0.4
v 0.5 1.1 0.4
v 0.5 2 0.4
v 0.5 2.1 0.4
v 1.1 0.9 0.4
v 1.1 1.1 0.4
v 1.1 2 0.4
v 1.1 2.1 0.4
v -1.6 2.6 0.3
v -1.6 3.1 0.3
v -1.6 3.3 0.3
v -1.5 2.3 0.3
v -1.5 2.6 0.3
v -1.5 3.1 0.3
v -1.5 3.2 0.3
v -1.5 3.3 0.3
v -1.5 3.4 0.3
v -1.4 2.2 0.3
v -1.4 2.3 0.3
v -1.4 3.2 0.3
v -1.4 3.3 0.3
v -1.4 3.4 0.3
v -1.4 3.5 0.3
v -1.3 1.2 0.3
v -1.3 2 0.3
v -1.3 2.1 0.3
v -1.3 2.2 0.3
v -1.3 3.3 0.3
v -1.3 3.5 0.3
v -1.3 3.6 0.3
v -1.2 1.3 0.3
v -1.2 1.5 0.3
v -1.2 3.5 0.3
v -1.2 3.6 0.3
v -1.2 3.7 0.3
v -1.1 1.3 0.3
v -1.1 1.5 0.3
v -1.1 3.6 0.3
v -1.1 3.7 0.3
v -1.1 3.8 0.3
v -1 1.2 0.3
v -1 2 0.3
v -1 2.1 0.3
v -1 3.7 0.3
v -1 3.8 0.3
v -0.5 0.6 0.3
v -0.5 0.8 0.3
v -0.5 2.1 0.3
v -0.5 2.2 0.3
v -0.5 2.3 0.3
v -0.5 3.4 0.3
v -0.5 3.6 0.3
v -0.4 2.2 0.3
v -0.4 2.3 0.3
v -0.4 3.4 0.3
v -0.4 3.5 0.3
v -0.4 3.6 0.3
v -0.4 3.7 0.3
v -0.3 3.7 0.3
v -0.3 3.8 0.3
v -0.2 3.5 0.3
v -0.2 3.7 0.3
v -0.2 3.8 0.3
v -0.2 3.9 0.3
v -0.1 2.2 0.3
v -0.1 3.7 0.3
v -0.1 3.9 0.3
v 0 0.6 0.3
v 0 0.8 0.3
v 0 2.1 0.3
v 0 2.2 0.3
v 0.3 2.3 0.3
v 0.3 3.2 0.3
v 0.3 3.5 0.3
v 0.4 2.2 0.3
v 0.4 2.3 0.3
v 0.4 3.2 0.3
v 0.4 3.3 0.3
v 0.4 3.5 0.3
v 0.4 3.6 0.3
v 0.5 3.3 0.3
v 0.5 3.4 0.3
v 0.6 1.1 0.3
v 0.6 2 0.3
v 0.6 2.1 0.3
v 0.6 2.2 0.3
v 0.7 1.2 0.3
v 0.7 1.5 0.3
v 0.7 3.4 0.3
v 0.7 3.5 0.3
v 0.9 1.2 0.3
v 0.9 1.5 0.3
v 1 1.1 0.3
v 1 2 0.3
v 1 2.1 0.3
v 1 3.5 0.3
v 1 3.6 0.3
v -1.9 2.1 0.2
v -1.9 2.5 0.2
v -1.8 2.1 0.2
v -1.8 2.5 0.2
v -0.4 0.8 0.2
v -0.4 2.1 0.2
v -0.3 0.9 0.2
v -0.3 1.2 0.2
v -0.2 0.9 0.2
v -0.2 1.2 0.2
v -0.1 0.8 0.2
v -0.1 2.1 0.2
v 1.3 2.1 0.2
v 1.3 2.5 0.2
v 1.4 2.1 0.2
v 1.4 2.5 0.2
v -1.8 2.2 0.1
v -1.8 2.4 0.1
v -1.5 2.3 0.1
v -1.5 2.4 0.1
v -1.4 2.2 0.1
v -1.4 2.3 0.1
v -1 2.2 0.1
v -1 2.4 0.1
v -0.5 2.2 0.1
v -0.5 2.3 0.1
v -0.5 2.4 0.1
v -0.4 2.2 0.1
v -0.4 2.3 0.1
v -0.1 2.2 0.1
v -0.1 2.4 0.1
v 0 2.2 0.1
v 0.3 2.3 0.1
v 0.3 2.4 0.1
v 0.4 2.2 0.1
v 0.4 2.3 0.1
v 1 2.2 0.1
v 1 2.4 0.1
v 1.3 2.2 0.1
v 1.3 2.4 0.1
v -1.6 2.6 0.1
v -1.6 3.1 0.1
v -1.6 3.3 0.1
v -1.5 2.4 0.1
v -1.5 2.6 0.1
v -1.5 3.1 0.1
v -1.5 3.2 0.1
v -1.5 3.3 0.1
v -1.5 3.4 0.1
v -1.4 3.2 0.1
v -1.4 3.3 0.1
v -1.4 3.4 0.1
v -1.4 3.5 0.1
v -1.3 1.2 0.1
v -1.3 2 0.1
v -1.3 2.1 0.1
v -1.3 2.2 0.1
v -1.3 3.3 0.1
v -1.3 3.4 0.1
v -1.3 3.5 0.1
v -1.3 3.6 0.1
v -1.2 1.3 0.1
v -1.2 1.5 0.1
v -1.2 3.4 0.1
v -1.2 3.5 0.1
v -1.2 3.6 0.1
v -1.2 3.7 0.1
v -1.1 1.3 0.1
v -1.1 1.5 0.1
v -1.1 3.5 0.1
v -1.1 3.6 0.1
v -1.1 3.7 0.1
v -1.1 3.8 0.1
v -1 1.2 0.1
v -1 2 0.1
v -1 2.1 0.1
v -1 2.2 0.1
v -1 2.4 0.1
v -1 3.6 0.1
v -1 3.8 0.1
v -0.5 2.4 0.1
v -0.5 3.4 0.1
v -0.5 3.6 0.1
v -0.4 0.8 0.1
v -0.4 2.1 0.1
v -0.4 3.4 0.1
v -0.4 3.5 0.1
v -0.4 3.6 0.1
v -0.4 3.7 0.1
v -0.3 0.9 0.1
v -0.3 1.2 0.1
v -0.3 3.5 0.1
v -0.3 3.6 0.1
v -0.3 3.7 0.1
v -0.3 3.8 0.1
v -0.2 0.9 0.1
v -0.2 1.2 0.1
v -0.2 3.6 0.1
v -0.2 3.7 0.1
v -0.2 3.8 0.1
v -0.2 3.9 0.1
v -0.1 0.8 0.1
v -0.1 2.1 0.1
v -0.1 2.4 0.1
v -0.1 3.7 0.1
v -0.1 3.9 0.1
v 0.3 2.4 0.1
v 0.3 3.1 0.1
v 0.3 3.5 0.1
v 0.4 3.1 0.1
v 0.4 3.2 0.1
v 0.4 3.5 0.1
v 0.4 3.6 0.1
v 0.5 3.2 0.1
v 0.5 3.4 0.1
v 0.6 1.1 0.1
v 0.6 2 0.1
v 0.6 2.1 0.1
v 0.6 2.2 0.1
v 0.7 1.2 0.1
v 0.7 1.5 0.1
v 0.7 3.4 0.1
v 0.7 3.5 0.1
v 0.9 1.2 0.1
v 0.9 1.5 0.1
v 1 1.1 0.1
v 1 2 0.1
v 1 2.1 0.1
v 1 2.2 0.1
v 1 2.4 0.1
v 1 3.5 0.1
v 1 3.6 0.1
v -1.4 1 0
v -1.4 1.2 0
v -1.4 2 0
v -1.4 2.1 0
v -0.9 1 0
v -0.9 1.2 0
v -0.9 2 0
v -0.9 2.1 0
v -0.5 0.6 0
v -0.5 0.8 0
v -0.5 2.1 0
v -0.5 2.2 0
v 0 0.6 0
v 0 0.8 0
v 0 2.1 0
v 0 2.2 0
v 0.5 0.9 0
v 0.5 1.1 0
v 0.5 2 0
v 0.5 2.1 0
v 1.1 0.9 0
v 1.1 1.1 0
v 1.1 2 0
v 1.1 2.1 0
v -1.9 2.1 -0.1
v -1.9 2.5 -0.1
v -1.8 2.1 -0.1
v -1.8 2.2 -0.1
v -1.8 2.4 -0.1
v -1.8 2.5 -0.1
v 1.3 2.1 -0.1
v 1.3 2.2 -0.1
v 1.3 2.4 -0.1
v 1.3 2.5 -0.1
v 1.4 2.1 -0.1
v 1.4 2.5 -0.1
v -0.5 0.6 0.3
v 0 0.6 0.3
v -0.5 0.6 0
v 0 0.6 0
v 0.5 0.9 0.4
v 1.1 0.9 0.4
v 0.5 0.9 0
v 1.1 0.9 0
v -1.4 1 0.4
v -0.9 1 0.4
v -1.4 1 0
v -0.9 1 0
v -0.3 1.2 0.2
v -0.2 1.2 0.2
v -0.3 1.2 0.1
v -0.2 1.2 0.1
v -1.2 1.5 0.3
v -1.1 1.5 0.3
v 0.7 1.5 0.3
v 0.9 1.5 0.3
v -1.2 1.5 0.1
v -1.1 1.5 0.1
v 0.7 1.5 0.1
v 0.9 1.5 0.1
v -1.4 2 0.4
v -0.9 2 0.4
v 0.5 2 0.4
v 1.1 2 0.4
v -1.3 2 0.3
v -1 2 0.3
v 0.6 2 0.3
v 1 2 0.3
v -1.3 2 0.1
v -1 2 0.1
v 0.6 2 0.1
v 1 2 0.1
v -1.4 2 0
v -0.9 2 0
v 0.5 2 0
v 1.1 2 0
v -0.5 2.1 0.3
v 0 2.1 0.3
v -1.9 2.1 0.2
v -1.8 2.1 0.2
v -0.4 2.1 0.2
v -0.1 2.1 0.2
v 1.3 2.1 0.2
v 1.4 2.1 0.2
v -0.4 2.1 0.1
v -0.1 2.1 0.1
v -0.5 2.1 0
v 0 2.1 0
v -1.9 2.1 -0.1
v -1.8 2.1 -0.1
v 1.3 2.1 -0.1
v 1.4 2.1 -0.1
v -1.4 2.2 0.3
v -1.3 2.2 0.3
v 0.4 2.2 0.3
v 0.6 2.2 0.3
v -1.8 2.2 0.1
v -1.4 2.2 0.1
v -1.3 2.2 0.1
v -1 2.2 0.1
v -0.5 2.2 0.1
v 0 2.2 0.1
v 0.4 2.2 0.1
v 0.6 2.2 0.1
v 1 2.2 0.1
v 1.3 2.2 0.1
v -0.5 2.2 0
v 0 2.2 0
v -1.8 2.2 -0.1
v 1.3 2.2 -0.1
v -1.5 2.3 0.3
v -1.4 2.3 0.3
v -0.5 2.3 0.3
v -0.4 2.3 0.3
v 0.3 2.3 0.3
v 0.4 2.3 0.3
v -1.5 2.3 0.1
v -1.4 2.3 0.1
v -0.5 2.3 0.1
v -0.4 2.3 0.1
v 0.3 2.3 0.1
v 0.4 2.3 0.1
v -1.6 2.6 0.3
v -1.5 2.6 0.3
v -1.6 2.6 0.1
v -1.5 2.6 0.1
v -0.5 0.8 0.3
v 0 0.8 0.3
v -0.4 0.8 0.2
v -0.1 0.8 0.2
v -0.4 0.8 0.1
v -0.1 0.8 0.1
v -0.5 0.8 0
v 0 0.8 0
v -0.3 0.9 0.2
v -0.2 0.9 0.2
v -0.3 0.9 0.1
v -0.2 0.9 0.1
v 0.5 1.1 0.4
v 1.1 1.1 0.4
v 0.6 1.1 0.3
v 1 1.1 0.3
v 0.6 1.1 0.1
v 1 1.1 0.1
v 0.5 1.1 0
v 1.1 1.1 0
v -1.4 1.2 0.4
v -0.9 1.2 0.4
v -1.3 1.2 0.3
v -1 1.2 0.3
v 0.7 1.2 0.3
v 0.9 1.2 0.3
v -1.3 1.2 0.1
v -1 1.2 0.1
v 0.7 1.2 0.1
v 0.9 1.2 0.1
v -1.4 1.2 0
v -0.9 1.2 0
v -1.2 1.3 0.3
v -1.1 1.3 0.3
v -1.2 1.3 0.1
v -1.1 1.3 0.1
v -1.4 2.1 0.4
v -0.9 2.1 0.4
v 0.5 2.1 0.4
v 1.1 2.1 0.4
v -1.3 2.1 0.3
v -1 2.1 0.3
v 0.6 2.1 0.3
v 1 2.1 0.3
v -1.3 2.1 0.1
v -1 2.1 0.1
v 0.6 2.1 0.1
v 1 2.1 0.1
v -1.4 2.1 0
v -0.9 2.1 0
v 0.5 2.1 0
v 1.1 2.1 0
v -0.5 2.2 0.3
v -0.4 2.2 0.3
v -0.1 2.2 0.3
v 0 2.2 0.3
v -0.5 2.2 0.1
v -0.4 2.2 0.1
v -0.1 2.2 0.1
v 0 2.2 0.1
v -1.8 2.4 0.1
v -1.5 2.4 0.1
v -1 2.4 0.1
v -0.5 2.4 0.1
v -0.1 2.4 0.1
v 0.3 2.4 0.1
v 1 2.4 0.1
v 1.3 2.4 0.1
v -1.8 2.4 -0.1
v 1.3 2.4 -0.1
v -1.9 2.5 0.2
v -1.8 2.5 0.2
v 1.3 2.5 0.2
v 1.4 2.5 0.2
v -1.9 2.5 -0.1
v -1.8 2.5 -0.1
v 1.3 2.5 -0.1
v 1.4 2.5 -0.1
v -1.6 3.3 0.3
v -1.5 3.3 0.3
v -1.6 3.3 0.1
v -1.5 3.3 0.1
v -1.5 3.4 0.3
v -1.4 3.4 0.3
v -1.5 3.4 0.1
v -1.4 3.4 0.1
v -1.4 3.5 0.3
v -1.3 3.5 0.3
v 0.3 3.5 0.3
v 0.4 3.5 0.3
v -1.4 3.5 0.1
v -1.3 3.5 0.1
v 0.3 3.5 0.1
v 0.4 3.5 0.1
v -1.3 3.6 0.3
v -1.2 3.6 0.3
v -0.5 3.6 0.3
v -0.4 3.6 0.3
v 0.4 3.6 0.3
v 1 3.6 0.3
v -1.3 3.6 0.1
v -1.2 3.6 0.1
v -0.5 3.6 0.1
v -0.4 3.6 0.1
v 0.4 3.6 0.1
v 1 3.6 0.1
v -1.2 3.7 0.3
v -1.1 3.7 0.3
v -0.4 3.7 0.3
v -0.3 3.7 0.3
v -1.2 3.7 0.1
v -1.1 3.7 0.1
v -0.4 3.7 0.1
v -0.3 3.7 0.1
v -1.1 3.8 0.3
v -1 3.8 0.3
v -0.3 3.8 0.3
v -0.2 3.8 0.3
v -1.1 3.8 0.1
v -1 3.8 0.1
v -0.3 3.8 0.1
v -0.2 3.8 0.1
v -0.2 3.9 0.3
v -0.1 3.9 0.3
v -0.2 3.9 0.1
v -0.1 3.9 0.1

# faces
f 3/1/1 2/1/1 1/1/1
f 4/1/1 2/1/1 3/1/1
f 7/2/1 6/2/1 5/2/1
f 8/2/1 6/2/1 7/2/1
f 9/3/1 8/3/1 7/3/1
f 10/3/1 8/3/1 9/3/1
f 13/2/1 12/2/1 11/2/1
f 14/2/1 13/2/1 11/2/1
f 15/2/1 13/2/1 14/2/1
f 18/3/1 17/3/1 16/3/1
f 19/3/1 17/3/1 18/3/1
f 22/6/1 21/6/1 20/6/1
f 23/6/1 21/6/1 22/6/1
f 26/6/1 25/6/1 24/6/1
f 27/6/1 25/6/1 26/6/1
f 30/2/1 29/2/1 28/2/1
f 31/2/1 29/2/1 30/2/1
f 34/3/1 33/3/1 32/3/1
f 35/3/1 33/3/1 34/3/1
f 38/5/1 37/5/1 36/5/1
f 39/5/1 37/5/1 38/5/1
f 42/2/1 41/2/1 40/2/1
f 43/2/1 41/2/1 42/2/1
f 46/3/1 45/3/1 44/3/1
f 47/3/1 45/3/1 46/3/1
f 50/3/1 49/3/1 48/3/1
f 51/3/1 49/3/1 50/3/1
f 54/5/1 53/5/1 52/5/1
f 55/5/1 53/5/1 54/5/1
f 58/3/1 57/3/1 56/3/1
f 59/3/1 57/3/1 58/3/1
f 62/6/1 61/6/1 60/6/1
f 63/6/1 61/6/1 62/6/1
f 66/6/1 65/6/1 64/6/1
f 67/6/1 65/6/1 66/6/1
f 68/6/1 65/6/1 67/6/1
f 71/2/1 70/2/1 69/2/1
f 72/2/1 71/2/1 69/2/1
f 73/2/1 71/2/1 72/2/1
f 74/3/1 73/3/1 72/3/1
f 75/3/1 73/3/1 74/3/1
f 78/5/1 77/5/1 76/5/1
f 79/5/1 77/5/1 78/5/1
f 82/2/1 81/2/1 80/2/1
f 83/2/1 81/2/1 82/2/1
f 86/3/1 85/3/1 84/3/1
f 87/3/1 85/3/1 86/3/1
f 90/3/1 89/3/1 88/3/1
f 91/3/1 89/3/1 90/3/1
f 94/5/1 93/5/1 92/5/1
f 95/5/1 93/5/1 94/5/1
f 98/3/1 97/3/1 96/3/1
f 99/3/1 97/3/1 98/3/1
f 102/2/1 101/2/1 100/2/1
f 103/2/1 102/2/1 100/2/1
f 104/2/1 102/2/1 103/2/1
f 105/2/1 103/2/1 100/2/1
f 106/3/1 104/3/1 103/3/1
f 106/2/1 103/2/1 105/2/1
f 107/3/1 106/3/1 105/3/1
f 108/3/1 104/3/1 106/3/1
f 108/3/1 106/3/1 107/3/1
f 111/2/1 110/2/1 109/2/1
f 112/2/1 110/2/1 111/2/1
f 115/3/1 114/3/1 113/3/1
f 116/3/1 114/3/1 115/3/1
f 119/6/1 118/6/1 117/6/1
f 120/6/1 118/6/1 119/6/1
f 123/6/1 122/6/1 121/6/1
f 124/6/1 122/6/1 123/6/1
f 127/5/1 126/5/1 125/5/1
f 128/5/1 126/5/1 127/5/1
f 131/2/1 130/2/1 129/2/1
f 132/2/1 130/2/1 131/2/1
f 135/5/1 134/5/1 133/5/1
f 136/5/1 134/5/1 135/5/1
f 139/1/1 138/1/1 137/1/1
f 140/1/1 138/1/1 139/1/1
f 141/1/1 139/1/1 137/1/1
f 143/1/1 141/1/1 137/1/1
f 143/1/1 142/1/1 141/1/1
f 144/1/1 142/1/1 143/1/1
f 145/1/2 146/1/2 147/1/2
f 147/1/2 146/1/2 148/1/2
f 145/1/2 147/1/2 149/1/2
f 145/1/2 149/1/2 151/1/2
f 149/1/2 150/1/2 151/1/2
f 151/1/2 150/1/2 152/1/2
f 153/5/2 154/5/2 155/5/2
f 155/5/2 154/5/2 156/5/2
f 157/5/2 158/5/2 159/5/2
f 159/5/2 158/5/2 160/5/2
f 161/2/2 162/2/2 163/2/2
f 161/2/2 163/2/2 164/2/2
f 161/2/2 164/2/2 165/2/2
f 165/2/2 164/2/2 166/2/2
f 161/2/2 165/2/2 167/2/2
f 165/3/2 166/3/2 168/3/2
f 167/2/2 165/2/2 168/2/2
f 167/3/2 168/3/2 169/3/2
f 168/3/2 166/3/2 170/3/2
f 169/3/2 168/3/2 170/3/2
f 171/6/2 172/6/2 173/6/2
f 173/6/2 172/6/2 174/6/2
f 175/6/2 176/6/2 177/6/2
f 177/6/2 176/6/2 178/6/2
f 179/5/2 180/5/2 181/5/2
f 181/5/2 180/5/2 182/5/2
f 183/5/2 184/5/2 185/5/2
f 185/5/2 184/5/2 186/5/2
f 187/2/2 188/2/2 189/2/2
f 187/2/2 189/2/2 190/2/2
f 190/2/2 189/2/2 191/2/2
f 190/3/2 191/3/2 192/3/2
f 192/3/2 191/3/2 193/3/2
f 194/6/2 195/6/2 196/6/2
f 196/6/2 195/6/2 197/6/2
f 198/6/2 199/6/2 200/6/2
f 200/6/2 199/6/2 201/6/2
f 201/6/2 199/6/2 202/6/2
f 203/5/2 204/5/2 205/5/2
f 205/5/2 204/5/2 206/5/2
f 207/5/2 208/5/2 209/5/2
f 209/5/2 208/5/2 210/5/2
f 211/2/2 212/2/2 213/2/2
f 211/2/2 213/2/2 214/2/2
f 211/2/2 214/2/2 215/2/2
f 215/2/2 214/2/2 216/2/2
f 215/3/2 216/3/2 217/3/2
f 217/3/2 216/3/2 218/3/2
f 219/6/2 220/6/2 221/6/2
f 221/6/2 220/6/2 222/6/2
f 223/6/2 224/6/2 225/6/2
f 225/6/2 224/6/2 226/6/2
f 227/1/2 228/1/2 229/1/2
f 229/1/2 228/1/2 230/1/2
f 235/6/3 232/6/3 231/6/3
f 236/6/3 232/6/3 235/6/3
f 237/6/3 234/6/3 233/6/3
f 238/6/3 234/6/3 237/6/3
f 243/6/3 240/6/3 239/6/3
f 244/6/3 240/6/3 243/6/3
f 245/6/3 242/6/3 241/6/3
f 246/6/3 242/6/3 245/6/3
f 251/2/3 248/2/3 247/2/3
f 252/3/3 249/3/3 248/3/3
f 252/2/3 248/2/3 251/2/3
f 253/3/3 249/3/3 252/3/3
f 254/3/3 249/3/3 253/3/3
f 257/2/3 251/2/3 250/2/3
f 257/2/3 252/2/3 251/2/3
f 257/2/3 253/2/3 252/2/3
f 258/3/3 255/3/3 254/3/3
f 258/3/3 254/3/3 253/3/3
f 258/2/3 253/2/3 257/2/3
f 259/3/3 255/3/3 258/3/3
f 260/3/3 255/3/3 259/3/3
f 265/2/3 257/2/3 256/2/3
f 265/2/3 258/2/3 257/2/3
f 265/2/3 259/2/3 258/2/3
f 266/3/3 261/3/3 260/3/3
f 266/3/3 260/3/3 259/3/3
f 266/2/3 259/2/3 265/2/3
f 267/3/3 261/3/3 266/3/3
f 269/5/3 263/5/3 262/5/3
f 270/5/3 263/5/3 269/5/3
f 271/3/3 268/3/3 267/3/3
f 271/2/3 265/2/3 264/2/3
f 271/2/3 266/2/3 265/2/3
f 271/2/3 267/2/3 266/2/3
f 272/3/3 268/3/3 271/3/3
f 274/5/3 269/5/3 262/5/3
f 275/5/3 263/5/3 270/5/3
f 276/3/3 273/3/3 272/3/3
f 276/2/3 272/2/3 271/2/3
f 277/3/3 273/3/3 276/3/3
f 279/5/3 274/5/3 262/5/3
f 279/5/3 275/5/3 274/5/3
f 280/5/3 263/5/3 275/5/3
f 280/5/3 275/5/3 279/5/3
f 281/2/3 277/2/3 276/2/3
f 281/2/3 271/2/3 264/2/3
f 281/2/3 276/2/3 271/2/3
f 282/3/3 278/3/3 277/3/3
f 282/2/3 277/2/3 281/2/3
f 283/3/3 278/3/3 282/3/3
f 291/6/3 287/6/3 286/6/3
f 292/2/3 289/2/3 288/2/3
f 293/3/3 290/3/3 289/3/3
f 293/2/3 289/2/3 292/2/3
f 294/3/3 290/3/3 293/3/3
f 295/3/3 290/3/3 294/3/3
f 297/3/3 295/3/3 294/3/3
f 297/3/3 296/3/3 295/3/3
f 299/2/3 292/2/3 291/2/3
f 299/3/3 298/3/3 297/3/3
f 299/3/3 297/3/3 294/3/3
f 299/2/3 294/2/3 293/2/3
f 299/2/3 293/2/3 292/2/3
f 300/3/3 298/3/3 299/3/3
f 301/3/3 298/3/3 300/3/3
f 303/6/3 291/6/3 286/6/3
f 303/2/3 299/2/3 291/2/3
f 303/2/3 300/2/3 299/2/3
f 304/3/3 301/3/3 300/3/3
f 304/2/3 300/2/3 303/2/3
f 304/3/3 302/3/3 301/3/3
f 305/3/3 302/3/3 304/3/3
f 306/6/3 285/6/3 284/6/3
f 307/6/3 285/6/3 306/6/3
f 308/6/3 303/6/3 286/6/3
f 309/6/3 303/6/3 308/6/3
f 314/2/3 311/2/3 310/2/3
f 315/3/3 312/3/3 311/3/3
f 315/2/3 311/2/3 314/2/3
f 316/3/3 312/3/3 315/3/3
f 317/3/3 312/3/3 316/3/3
f 319/2/3 314/2/3 313/2/3
f 319/3/3 318/3/3 317/3/3
f 319/3/3 317/3/3 316/3/3
f 319/2/3 316/2/3 315/2/3
f 319/2/3 315/2/3 314/2/3
f 320/3/3 318/3/3 319/3/3
f 324/2/3 319/2/3 313/2/3
f 324/2/3 320/2/3 319/2/3
f 325/5/3 322/5/3 321/5/3
f 326/5/3 322/5/3 325/5/3
f 327/2/3 324/2/3 323/2/3
f 327/3/3 318/3/3 320/3/3
f 327/2/3 320/2/3 324/2/3
f 328/3/3 318/3/3 327/3/3
f 329/5/3 325/5/3 321/5/3
f 330/5/3 322/5/3 326/5/3
f 331/5/3 329/5/3 321/5/3
f 331/5/3 330/5/3 329/5/3
f 332/5/3 322/5/3 330/5/3
f 332/5/3 330/5/3 331/5/3
f 333/2/3 328/2/3 327/2/3
f 333/2/3 327/2/3 323/2/3
f 334/3/3 318/3/3 328/3/3
f 334/2/3 328/2/3 333/2/3
f 335/3/3 318/3/3 334/3/3
f 338/1/3 337/1/3 336/1/3
f 339/1/3 337/1/3 338/1/3
f 342/5/3 341/5/3 340/5/3
f 343/5/3 341/5/3 342/5/3
f 344/5/3 342/5/3 340/5/3
f 345/5/3 341/5/3 343/5/3
f 346/5/3 344/5/3 340/5/3
f 346/5/3 345/5/3 344/5/3
f 347/5/3 341/5/3 345/5/3
f 347/5/3 345/5/3 346/5/3
f 350/1/3 349/1/3 348/1/3
f 351/1/3 349/1/3 350/1/3
f 354/4/3 353/4/3 352/4/3
f 355/4/3 353/4/3 354/4/3
f 356/4/3 354/4/3 352/4/3
f 357/4/3 354/4/3 356/4/3
f 360/4/3 359/4/3 358/4/3
f 361/4/3 359/4/3 360/4/3
f 362/4/3 359/4/3 361/4/3
f 363/4/3 361/4/3 360/4/3
f 364/4/3 361/4/3 363/4/3
f 367/4/3 366/4/3 365/4/3
f 368/4/3 366/4/3 367/4/3
f 369/4/3 366/4/3 368/4/3
f 370/4/3 368/4/3 367/4/3
f 371/4/3 368/4/3 370/4/3
f 374/4/3 373/4/3 372/4/3
f 375/4/3 373/4/3 374/4/3
f 376/2/4 377/2/4 380/2/4
f 377/3/4 378/3/4 381/3/4
f 380/2/4 377/2/4 381/2/4
f 381/3/4 378/3/4 382/3/4
f 382/3/4 378/3/4 383/3/4
f 379/2/4 380/2/4 385/2/4
f 383/3/4 384/3/4 385/3/4
f 382/3/4 383/3/4 385/3/4
f 381/2/4 382/2/4 385/2/4
f 380/2/4 381/2/4 385/2/4
f 385/3/4 384/3/4 386/3/4
f 386/3/4 384/3/4 387/3/4
f 385/2/4 386/2/4 393/2/4
f 386/3/4 387/3/4 393/3/4
f 387/3/4 388/3/4 393/3/4
f 393/3/4 388/3/4 394/3/4
f 394/3/4 388/3/4 395/3/4
f 389/5/4 390/5/4 397/5/4
f 397/5/4 390/5/4 398/5/4
f 395/3/4 396/3/4 399/3/4
f 393/2/4 394/2/4 399/2/4
f 394/3/4 395/3/4 399/3/4
f 399/3/4 396/3/4 400/3/4
f 400/3/4 396/3/4 401/3/4
f 389/5/4 397/5/4 403/5/4
f 398/5/4 390/5/4 404/5/4
f 401/3/4 402/3/4 405/3/4
f 400/3/4 401/3/4 405/3/4
f 399/2/4 400/2/4 405/2/4
f 405/3/4 402/3/4 406/3/4
f 406/3/4 402/3/4 407/3/4
f 389/5/4 403/5/4 409/5/4
f 403/5/4 404/5/4 409/5/4
f 404/5/4 390/5/4 410/5/4
f 409/5/4 404/5/4 410/5/4
f 391/2/4 392/2/4 411/2/4
f 411/2/4 392/2/4 412/2/4
f 379/2/4 385/2/4 413/2/4
f 385/2/4 393/2/4 413/2/4
f 393/2/4 399/2/4 413/2/4
f 405/2/4 406/2/4 413/2/4
f 399/2/4 405/2/4 413/2/4
f 407/3/4 408/3/4 414/3/4
f 413/2/4 406/2/4 414/2/4
f 406/3/4 407/3/4 414/3/4
f 414/3/4 408/3/4 415/3/4
f 416/2/4 417/2/4 421/2/4
f 417/3/4 418/3/4 421/3/4
f 421/3/4 418/3/4 422/3/4
f 422/3/4 418/3/4 423/3/4
f 419/5/4 420/5/4 425/5/4
f 425/5/4 420/5/4 426/5/4
f 423/3/4 424/3/4 427/3/4
f 421/2/4 422/2/4 427/2/4
f 422/3/4 423/3/4 427/3/4
f 427/3/4 424/3/4 428/3/4
f 428/3/4 424/3/4 429/3/4
f 419/5/4 425/5/4 431/5/4
f 426/5/4 420/5/4 432/5/4
f 429/3/4 430/3/4 433/3/4
f 428/3/4 429/3/4 433/3/4
f 427/2/4 428/2/4 433/2/4
f 433/3/4 430/3/4 434/3/4
f 434/3/4 430/3/4 435/3/4
f 419/5/4 431/5/4 437/5/4
f 431/5/4 432/5/4 437/5/4
f 432/5/4 420/5/4 438/5/4
f 437/5/4 432/5/4 438/5/4
f 416/2/4 421/2/4 439/2/4
f 433/2/4 434/2/4 439/2/4
f 427/2/4 433/2/4 439/2/4
f 421/2/4 427/2/4 439/2/4
f 434/3/4 435/3/4 440/3/4
f 439/2/4 434/2/4 440/2/4
f 435/3/4 436/3/4 440/3/4
f 440/3/4 436/3/4 441/3/4
f 442/2/4 443/2/4 445/2/4
f 443/3/4 444/3/4 445/3/4
f 445/3/4 444/3/4 446/3/4
f 446/3/4 444/3/4 447/3/4
f 445/2/4 446/2/4 449/2/4
f 447/3/4 448/3/4 449/3/4
f 446/3/4 447/3/4 449/3/4
f 449/3/4 448/3/4 450/3/4
f 451/5/4 452/5/4 455/5/4
f 455/5/4 452/5/4 456/5/4
f 449/2/4 450/2/4 457/2/4
f 450/3/4 448/3/4 457/3/4
f 457/3/4 448/3/4 458/3/4
f 451/5/4 455/5/4 459/5/4
f 456/5/4 452/5/4 460/5/4
f 451/5/4 459/5/4 461/5/4
f 459/5/4 460/5/4 461/5/4
f 460/5/4 452/5/4 462/5/4
f 461/5/4 460/5/4 462/5/4
f 453/2/4 454/2/4 463/2/4
f 463/2/4 454/2/4 464/2/4
f 442/2/4 445/2/4 465/2/4
f 445/2/4 449/2/4 465/2/4
f 457/2/4 458/2/4 465/2/4
f 449/2/4 457/2/4 465/2/4
f 458/3/4 448/3/4 466/3/4
f 465/2/4 458/2/4 466/2/4
f 466/3/4 448/3/4 467/3/4
f 468/6/4 469/6/4 472/6/4
f 472/6/4 469/6/4 473/6/4
f 470/6/4 471/6/4 474/6/4
f 474/6/4 471/6/4 475/6/4
f 476/6/4 477/6/4 480/6/4
f 480/6/4 477/6/4 481/6/4
f 478/6/4 479/6/4 482/6/4
f 482/6/4 479/6/4 483/6/4
f 484/6/4 485/6/4 488/6/4
f 488/6/4 485/6/4 489/6/4
f 486/6/4 487/6/4 490/6/4
f 490/6/4 487/6/4 491/6/4
f 492/1/4 493/1/4 494/1/4
f 494/1/4 493/1/4 495/1/4
f 495/1/4 493/1/4 496/1/4
f 496/1/4 493/1/4 497/1/4
f 495/4/4 496/4/4 499/4/4
f 499/4/4 496/4/4 500/4/4
f 498/1/4 499/1/4 502/1/4
f 500/1/4 501/1/4 502/1/4
f 499/1/4 500/1/4 502/1/4
f 502/1/4 501/1/4 503/1/4
f 506/6/5 505/6/5 504/6/5
f 507/6/5 505/6/5 506/6/5
f 510/6/5 509/6/5 508/6/5
f 511/6/5 509/6/5 510/6/5
f 514/6/5 513/6/5 512/6/5
f 515/6/5 513/6/5 514/6/5
f 518/5/5 517/5/5 516/5/5
f 519/5/5 517/5/5 518/5/5
f 524/5/5 521/5/5 520/5/5
f 525/5/5 521/5/5 524/5/5
f 526/5/5 523/5/5 522/5/5
f 527/5/5 523/5/5 526/5/5
f 532/6/5 529/6/5 528/6/5
f 533/6/5 529/6/5 532/6/5
f 534/6/5 531/6/5 530/6/5
f 535/6/5 531/6/5 534/6/5
f 536/6/5 532/6/5 528/6/5
f 537/6/5 529/6/5 533/6/5
f 538/6/5 534/6/5 530/6/5
f 539/6/5 531/6/5 535/6/5
f 540/6/5 536/6/5 528/6/5
f 540/6/5 537/6/5 536/6/5
f 541/6/5 529/6/5 537/6/5
f 541/6/5 537/6/5 540/6/5
f 542/6/5 539/6/5 538/6/5
f 542/6/5 538/6/5 530/6/5
f 543/6/5 531/6/5 539/6/5
f 543/6/5 539/6/5 542/6/5
f 548/6/5 545/6/5 544/6/5
f 549/6/5 545/6/5 548/6/5
f 552/6/5 548/6/5 544/6/5
f 553/6/5 545/6/5 549/6/5
f 554/6/5 552/6/5 544/6/5
f 554/6/5 553/6/5 552/6/5
f 555/6/5 545/6/5 553/6/5
f 555/6/5 553/6/5 554/6/5
f 556/1/5 547/1/5 546/1/5
f 557/1/5 547/1/5 556/1/5
f 558/1/5 551/1/5 550/1/5
f 559/1/5 551/1/5 558/1/5
f 565/2/5 561/2/5 560/2/5
f 566/2/5 561/2/5 565/2/5
f 570/2/5 563/2/5 562/2/5
f 571/2/5 563/2/5 570/2/5
f 574/4/5 568/4/5 567/4/5
f 574/4/5 565/4/5 564/4/5
f 574/4/5 566/4/5 565/4/5
f 574/4/5 567/4/5 566/4/5
f 575/4/5 573/4/5 572/4/5
f 575/4/5 572/4/5 571/4/5
f 575/4/5 571/4/5 570/4/5
f 575/4/5 570/4/5 569/4/5
f 576/4/5 574/4/5 564/4/5
f 576/4/5 575/4/5 574/4/5
f 577/4/5 573/4/5 575/4/5
f 577/4/5 575/4/5 576/4/5
f 584/2/5 579/2/5 578/2/5
f 585/2/5 579/2/5 584/2/5
f 586/2/5 581/2/5 580/2/5
f 587/2/5 581/2/5 586/2/5
f 588/2/5 583/2/5 582/2/5
f 589/2/5 583/2/5 588/2/5
f 592/2/5 591/2/5 590/2/5
f 593/2/5 591/2/5 592/2/5
f 594/6/6 595/6/6 596/6/6
f 596/6/6 595/6/6 597/6/6
f 594/6/6 596/6/6 598/6/6
f 597/6/6 595/6/6 599/6/6
f 594/6/6 598/6/6 600/6/6
f 598/6/6 599/6/6 600/6/6
f 599/6/6 595/6/6 601/6/6
f 600/6/6 599/6/6 601/6/6
f 602/5/6 603/5/6 604/5/6
f 604/5/6 603/5/6 605/5/6
f 606/6/6 607/6/6 608/6/6
f 608/6/6 607/6/6 609/6/6
f 606/6/6 608/6/6 610/6/6
f 609/6/6 607/6/6 611/6/6
f 606/6/6 610/6/6 612/6/6
f 610/6/6 611/6/6 612/6/6
f 611/6/6 607/6/6 613/6/6
f 612/6/6 611/6/6 613/6/6
f 614/6/6 615/6/6 616/6/6
f 616/6/6 615/6/6 617/6/6
f 614/6/6 616/6/6 620/6/6
f 617/6/6 615/6/6 621/6/6
f 618/5/6 619/5/6 622/5/6
f 622/5/6 619/5/6 623/5/6
f 620/6/6 621/6/6 624/6/6
f 614/6/6 620/6/6 624/6/6
f 621/6/6 615/6/6 625/6/6
f 624/6/6 621/6/6 625/6/6
f 626/5/6 627/5/6 628/5/6
f 628/5/6 627/5/6 629/5/6
f 630/6/6 631/6/6 634/6/6
f 634/6/6 631/6/6 635/6/6
f 632/6/6 633/6/6 636/6/6
f 636/6/6 633/6/6 637/6/6
f 630/6/6 634/6/6 638/6/6
f 635/6/6 631/6/6 639/6/6
f 632/6/6 636/6/6 640/6/6
f 637/6/6 633/6/6 641/6/6
f 630/6/6 638/6/6 642/6/6
f 638/6/6 639/6/6 642/6/6
f 639/6/6 631/6/6 643/6/6
f 642/6/6 639/6/6 643/6/6
f 640/6/6 641/6/6 644/6/6
f 632/6/6 640/6/6 644/6/6
f 641/6/6 633/6/6 645/6/6
f 644/6/6 641/6/6 645/6/6
f 646/6/6 647/6/6 650/6/6
f 650/6/6 647/6/6 651/6/6
f 648/6/6 649/6/6 652/6/6
f 652/6/6 649/6/6 653/6/6
f 654/4/6 655/4/6 662/4/6
f 660/4/6 661/4/6 662/4/6
f 659/4/6 660/4/6 662/4/6
f 658/4/6 659/4/6 662/4/6
f 657/4/6 658/4/6 662/4/6
f 656/4/6 657/4/6 662/4/6
f 655/4/6 656/4/6 662/4/6
f 662/4/6 661/4/6 663/4/6
f 664/1/6 665/1/6 668/1/6
f 668/1/6 665/1/6 669/1/6
f 666/1/6 667/1/6 670/1/6
f 670/1/6 667/1/6 671/1/6
f 672/3/6 673/3/6 674/3/6
f 674/3/6 673/3/6 675/3/6
f 676/3/6 677/3/6 678/3/6
f 678/3/6 677/3/6 679/3/6
f 680/3/6 681/3/6 684/3/6
f 684/3/6 681/3/6 685/3/6
f 682/3/6 683/3/6 686/3/6
f 686/3/6 683/3/6 687/3/6
f 688/3/6 689/3/6 694/3/6
f 694/3/6 689/3/6 695/3/6
f 690/3/6 691/3/6 696/3/6
f 696/3/6 691/3/6 697/3/6
f 692/3/6 693/3/6 698/3/6
f 698/3/6 693/3/6 699/3/6
f 700/3/6 701/3/6 704/3/6
f 704/3/6 701/3/6 705/3/6
f 702/3/6 703/3/6 706/3/6
f 706/3/6 703/3/6 707/3/6
f 708/3/6 709/3/6 712/3/6
f 712/3/6 709/3/6 713/3/6
f 710/3/6 711/3/6 714/3/6
f 714/3/6 711/3/6 715/3/6
f 716/3/6 717/3/6 718/3/6
f 718/3/6 717/3/6 719/3/6
