# MagicaVoxel @ Ephtracy

# group
o 

# material
mtllib DoorR.mtl
usemtl palette

# normals
vn -1 0 0
vn 1 0 0
vn 0 0 1
vn 0 0 -1
vn 0 -1 0
vn 0 1 0

# texcoords
vt 0.939453 0.5
vt 0.943359 0.5
vt 0.982422 0.5

# verts
v 0.1 0.4 2.1
v 0.1 0.4 1.8
v 0.1 2.9 2.1
v 0.1 2.9 1.9
v 0.1 3.1 1.9
v 0.1 3.1 1.8
v 0.3 0.5 2.3
v 0.3 0.5 2.1
v 0.3 0.6 2.2
v 0.3 0.6 2.1
v 0.3 1 2.2
v 0.3 1 2.1
v 0.3 1.1 2.3
v 0.3 1.1 2.1
v 0.5 0.5 2.3
v 0.5 0.5 2.1
v 0.5 0.6 2.2
v 0.5 0.6 2.1
v 0.5 1 2.2
v 0.5 1 2.1
v 0.5 1.1 2.3
v 0.5 1.1 2.1
v 1.7 0.4 2.1
v 1.7 0.4 1.8
v 1.7 2.9 2.1
v 1.7 2.9 1.9
v 1.7 3.1 1.9
v 1.7 3.1 1.8
v 0.3 0.5 2.3
v 0.3 1.1 2.3
v 0.5 0.5 2.3
v 0.5 1.1 2.3
v 0.1 0.4 2.1
v 0.1 2.9 2.1
v 0.2 0.4 2.1
v 0.2 2.9 2.1
v 0.3 0.5 2.1
v 0.3 0.6 2.1
v 0.3 1 2.1
v 0.3 1.1 2.1
v 0.5 0.5 2.1
v 0.5 0.6 2.1
v 0.5 1 2.1
v 0.5 1.1 2.1
v 0.7 0.4 2.1
v 0.7 0.5 2.1
v 1.1 0.5 2.1
v 1.1 0.6 2.1
v 1.2 0.6 2.1
v 1.2 0.7 2.1
v 1.3 0.7 2.1
v 1.3 0.8 2.1
v 1.4 0.8 2.1
v 1.4 0.9 2.1
v 1.5 0.9 2.1
v 1.5 1 2.1
v 1.6 1 2.1
v 1.6 2.9 2.1
v 1.7 0.4 2.1
v 1.7 2.9 2.1
v 0.1 2.9 1.9
v 0.1 3.1 1.9
v 0.2 2.9 1.9
v 1.6 2.9 1.9
v 1.7 2.9 1.9
v 1.7 3.1 1.9
v 0.3 0.6 2.2
v 0.3 1 2.2
v 0.5 0.6 2.2
v 0.5 1 2.2
v 0.1 0.4 1.8
v 0.1 3.1 1.8
v 1.7 0.4 1.8
v 1.7 3.1 1.8
v 0.1 0.4 2.1
v 0.2 0.4 2.1
v 0.7 0.4 2.1
v 1.7 0.4 2.1
v 0.7 0.4 2
v 1.6 0.4 2
v 0.2 0.4 1.9
v 1.6 0.4 1.9
v 0.1 0.4 1.8
v 1.7 0.4 1.8
v 0.3 0.5 2.3
v 0.5 0.5 2.3
v 0.3 0.5 2.1
v 0.5 0.5 2.1
v 0.3 1 2.2
v 0.5 1 2.2
v 0.3 1 2.1
v 0.5 1 2.1
v 0.3 0.6 2.2
v 0.5 0.6 2.2
v 0.3 0.6 2.1
v 0.5 0.6 2.1
v 0.3 1.1 2.3
v 0.5 1.1 2.3
v 0.3 1.1 2.1
v 0.5 1.1 2.1
v 0.1 2.9 2.1
v 0.2 2.9 2.1
v 1.6 2.9 2.1
v 1.7 2.9 2.1
v 0.1 2.9 1.9
v 0.2 2.9 1.9
v 1.6 2.9 1.9
v 1.7 2.9 1.9
v 0.1 3.1 1.9
v 1.7 3.1 1.9
v 0.1 3.1 1.8
v 1.7 3.1 1.8

# faces
f 3/2/1 2/2/1 1/2/1
f 4/2/1 2/2/1 3/2/1
f 5/2/1 2/2/1 4/2/1
f 6/2/1 2/2/1 5/2/1
f 9/3/1 8/3/1 7/3/1
f 10/3/1 8/3/1 9/3/1
f 11/3/1 9/3/1 7/3/1
f 13/3/1 11/3/1 7/3/1
f 13/3/1 12/3/1 11/3/1
f 14/3/1 12/3/1 13/3/1
f 15/3/2 16/3/2 17/3/2
f 17/3/2 16/3/2 18/3/2
f 15/3/2 17/3/2 19/3/2
f 15/3/2 19/3/2 21/3/2
f 19/3/2 20/3/2 21/3/2
f 21/3/2 20/3/2 22/3/2
f 23/2/2 24/2/2 25/2/2
f 25/2/2 24/2/2 26/2/2
f 26/2/2 24/2/2 27/2/2
f 27/2/2 24/2/2 28/2/2
f 31/3/3 30/3/3 29/3/3
f 32/3/3 30/3/3 31/3/3
f 35/2/3 34/2/3 33/2/3
f 36/2/3 34/2/3 35/2/3
f 37/1/3 36/1/3 35/1/3
f 38/1/3 36/1/3 37/1/3
f 39/1/3 36/1/3 38/1/3
f 40/1/3 36/1/3 39/1/3
f 41/1/3 37/1/3 35/1/3
f 42/1/3 39/1/3 38/1/3
f 43/1/3 39/1/3 42/1/3
f 44/1/3 36/1/3 40/1/3
f 45/1/3 43/1/3 42/1/3
f 45/1/3 44/1/3 43/1/3
f 45/1/3 41/1/3 35/1/3
f 45/1/3 42/1/3 41/1/3
f 46/1/3 44/1/3 45/1/3
f 47/2/3 46/2/3 45/2/3
f 47/1/3 44/1/3 46/1/3
f 48/1/3 44/1/3 47/1/3
f 49/2/3 48/2/3 47/2/3
f 49/1/3 44/1/3 48/1/3
f 50/1/3 44/1/3 49/1/3
f 51/2/3 50/2/3 49/2/3
f 51/1/3 44/1/3 50/1/3
f 52/1/3 44/1/3 51/1/3
f 53/2/3 52/2/3 51/2/3
f 53/1/3 44/1/3 52/1/3
f 54/1/3 44/1/3 53/1/3
f 55/2/3 54/2/3 53/2/3
f 55/1/3 44/1/3 54/1/3
f 56/1/3 44/1/3 55/1/3
f 57/2/3 56/2/3 55/2/3
f 57/1/3 44/1/3 56/1/3
f 58/1/3 36/1/3 44/1/3
f 58/1/3 44/1/3 57/1/3
f 59/2/3 57/2/3 55/2/3
f 59/2/3 47/2/3 45/2/3
f 59/2/3 58/2/3 57/2/3
f 59/2/3 55/2/3 53/2/3
f 59/2/3 53/2/3 51/2/3
f 59/2/3 51/2/3 49/2/3
f 59/2/3 49/2/3 47/2/3
f 60/2/3 58/2/3 59/2/3
f 63/2/3 62/2/3 61/2/3
f 64/2/3 62/2/3 63/2/3
f 65/2/3 62/2/3 64/2/3
f 66/2/3 62/2/3 65/2/3
f 67/3/4 68/3/4 69/3/4
f 69/3/4 68/3/4 70/3/4
f 71/2/4 72/2/4 73/2/4
f 73/2/4 72/2/4 74/2/4
f 79/1/5 77/1/5 76/1/5
f 79/2/5 78/2/5 77/2/5
f 80/2/5 78/2/5 79/2/5
f 81/2/5 76/2/5 75/2/5
f 81/1/5 79/1/5 76/1/5
f 81/1/5 80/1/5 79/1/5
f 82/2/5 78/2/5 80/2/5
f 82/1/5 80/1/5 81/1/5
f 83/2/5 81/2/5 75/2/5
f 83/2/5 82/2/5 81/2/5
f 84/2/5 78/2/5 82/2/5
f 84/2/5 82/2/5 83/2/5
f 87/3/5 86/3/5 85/3/5
f 88/3/5 86/3/5 87/3/5
f 91/3/5 90/3/5 89/3/5
f 92/3/5 90/3/5 91/3/5
f 93/3/6 94/3/6 95/3/6
f 95/3/6 94/3/6 96/3/6
f 97/3/6 98/3/6 99/3/6
f 99/3/6 98/3/6 100/3/6
f 101/2/6 102/2/6 105/2/6
f 102/1/6 103/1/6 106/1/6
f 105/2/6 102/2/6 106/2/6
f 103/2/6 104/2/6 107/2/6
f 106/1/6 103/1/6 107/1/6
f 107/2/6 104/2/6 108/2/6
f 109/2/6 110/2/6 111/2/6
f 111/2/6 110/2/6 112/2/6
