# MagicaVoxel @ Ephtracy

# group
o 

# material
mtllib Butter(BTS).mtl
usemtl palette

# normals
vn -1 0 0
vn 1 0 0
vn 0 0 1
vn 0 0 -1
vn 0 -1 0
vn 0 1 0

# texcoords
vt 0.939453 0.5
vt 0.970703 0.5
vt 0.974609 0.5
vt 0.978516 0.5

# verts
v -1 0 0.5
v -1 0 -0.2
v -1 0.1 0.6
v -1 0.1 0.5
v -1 0.1 -0.2
v -1 0.1 -0.3
v -1 0.2 0.6
v -1 0.2 -0.3
v -1 0.3 0.6
v -1 0.3 -0.3
v -0.9 0 0.6
v -0.9 0 0.5
v -0.9 0 -0.2
v -0.9 0 -0.3
v -0.9 0.1 0.7
v -0.9 0.1 0.6
v -0.9 0.1 0.5
v -0.9 0.1 -0.2
v -0.9 0.1 -0.3
v -0.9 0.1 -0.4
v -0.9 0.2 0.7
v -0.9 0.2 0.6
v -0.9 0.2 -0.3
v -0.9 0.2 -0.4
v -0.9 0.3 0.7
v -0.9 0.3 0.6
v -0.9 0.3 -0.3
v -0.9 0.3 -0.4
v -0.8 0 -0.3
v -0.8 0 -0.4
v -0.8 0.1 -0.3
v -0.8 0.1 -0.4
v -0.8 0.2 0.8
v -0.8 0.2 0.7
v -0.8 0.2 -0.4
v -0.8 0.2 -0.5
v -0.8 0.3 0.8
v -0.8 0.3 0.7
v -0.8 0.3 -0.4
v -0.8 0.3 -0.5
v -0.7 0 0.7
v -0.7 0 0.6
v -0.7 0.1 0.7
v -0.7 0.1 0.6
v -0.7 0.1 0.5
v -0.7 0.1 -0.1
v -0.7 0.3 0.5
v -0.7 0.3 -0.1
v -0.7 0.5 0.5
v -0.7 0.5 -0.1
v -0.6 0.1 0.8
v -0.6 0.1 0.7
v -0.6 0.1 -0.4
v -0.6 0.1 -0.5
v -0.6 0.2 0.8
v -0.6 0.2 0.7
v -0.6 0.2 -0.4
v -0.6 0.2 -0.5
v -0.5 0 0.8
v -0.5 0 0.7
v -0.5 0 -0.4
v -0.5 0 -0.5
v -0.5 0.1 0.8
v -0.5 0.1 0.7
v -0.5 0.1 0.5
v -0.5 0.1 -0.1
v -0.5 0.1 -0.4
v -0.5 0.1 -0.5
v -0.5 0.3 0.4
v -0.5 0.3 0
v -0.5 0.4 0.5
v -0.5 0.4 0.4
v -0.5 0.5 0.5
v -0.5 0.5 0
v -0.5 0.5 -0.1
v 0.7 0.1 0.6
v 0.7 0.1 -0.3
v 0.7 0.2 0.7
v 0.7 0.2 0.6
v 0.7 0.2 -0.3
v 0.7 0.2 -0.4
v 0.7 0.3 0.7
v 0.7 0.3 0.6
v 0.7 0.3 -0.3
v 0.7 0.3 -0.4
v 0.8 0.2 0.6
v 0.8 0.2 -0.3
v 0.8 0.3 0.6
v 0.8 0.3 -0.3
v -0.9 0.2 0.6
v -0.9 0.2 -0.3
v -0.9 0.3 0.6
v -0.9 0.3 -0.3
v -0.8 0.1 0.6
v -0.8 0.1 -0.3
v -0.8 0.2 0.7
v -0.8 0.2 0.6
v -0.8 0.2 -0.3
v -0.8 0.2 -0.4
v -0.8 0.3 0.7
v -0.8 0.3 0.6
v -0.8 0.3 -0.3
v -0.8 0.3 -0.4
v -0.6 0.1 0.5
v -0.6 0.1 -0.1
v -0.6 0.3 0.5
v -0.6 0.3 -0.1
v -0.6 0.5 0.5
v -0.6 0.5 -0.1
v 0.4 0 0.8
v 0.4 0 0.7
v 0.4 0 -0.4
v 0.4 0 -0.5
v 0.4 0.1 0.8
v 0.4 0.1 0.7
v 0.4 0.1 -0.4
v 0.4 0.1 -0.5
v 0.5 0.1 0.8
v 0.5 0.1 0.7
v 0.5 0.1 -0.4
v 0.5 0.1 -0.5
v 0.5 0.2 0.8
v 0.5 0.2 0.7
v 0.5 0.2 -0.4
v 0.5 0.2 -0.5
v 0.5 0.4 0.5
v 0.5 0.4 0.4
v 0.5 0.4 0
v 0.5 0.4 -0.1
v 0.5 0.5 0.5
v 0.5 0.5 0.4
v 0.5 0.5 0
v 0.5 0.5 -0.1
v 0.6 0 0.7
v 0.6 0 0.6
v 0.6 0.1 0.7
v 0.6 0.1 0.6
v 0.6 0.1 0.5
v 0.6 0.1 -0.1
v 0.6 0.3 0.4
v 0.6 0.3 0
v 0.6 0.4 0.5
v 0.6 0.4 0.4
v 0.6 0.4 0
v 0.6 0.4 -0.1
v 0.6 0.5 0.4
v 0.6 0.5 0
v 0.7 0 -0.3
v 0.7 0 -0.4
v 0.7 0.1 -0.3
v 0.7 0.1 -0.4
v 0.7 0.2 0.8
v 0.7 0.2 0.7
v 0.7 0.2 -0.4
v 0.7 0.2 -0.5
v 0.7 0.3 0.8
v 0.7 0.3 0.7
v 0.7 0.3 -0.4
v 0.7 0.3 -0.5
v 0.8 0 0.6
v 0.8 0 0.5
v 0.8 0 -0.2
v 0.8 0 -0.3
v 0.8 0.1 0.7
v 0.8 0.1 0.6
v 0.8 0.1 0.5
v 0.8 0.1 -0.2
v 0.8 0.1 -0.3
v 0.8 0.1 -0.4
v 0.8 0.2 0.7
v 0.8 0.2 0.6
v 0.8 0.2 -0.3
v 0.8 0.2 -0.4
v 0.8 0.3 0.7
v 0.8 0.3 0.6
v 0.8 0.3 -0.3
v 0.8 0.3 -0.4
v 0.9 0 0.5
v 0.9 0 -0.2
v 0.9 0.1 0.6
v 0.9 0.1 0.5
v 0.9 0.1 -0.2
v 0.9 0.1 -0.3
v 0.9 0.2 0.6
v 0.9 0.2 -0.3
v 0.9 0.3 0.6
v 0.9 0.3 -0.3
v -0.8 0.2 0.8
v -0.8 0.3 0.8
v -0.6 0.1 0.8
v -0.6 0.2 0.8
v -0.5 0 0.8
v -0.5 0.1 0.8
v -0.4 0.1 0.8
v -0.4 0.2 0.8
v 0.3 0.1 0.8
v 0.3 0.2 0.8
v 0.4 0 0.8
v 0.4 0.1 0.8
v 0.5 0.1 0.8
v 0.5 0.2 0.8
v 0.7 0.2 0.8
v 0.7 0.3 0.8
v -0.9 0.1 0.7
v -0.9 0.2 0.7
v -0.9 0.3 0.7
v -0.8 0.2 0.7
v -0.8 0.3 0.7
v -0.7 0 0.7
v -0.7 0.1 0.7
v -0.6 0.1 0.7
v -0.6 0.2 0.7
v -0.5 0 0.7
v -0.5 0.1 0.7
v 0.4 0 0.7
v 0.4 0.1 0.7
v 0.5 0.1 0.7
v 0.5 0.2 0.7
v 0.6 0 0.7
v 0.6 0.1 0.7
v 0.7 0.2 0.7
v 0.7 0.3 0.7
v 0.8 0.1 0.7
v 0.8 0.2 0.7
v 0.8 0.3 0.7
v -1 0.1 0.6
v -1 0.2 0.6
v -1 0.3 0.6
v -0.9 0 0.6
v -0.9 0.1 0.6
v -0.9 0.2 0.6
v -0.9 0.3 0.6
v -0.7 0 0.6
v -0.7 0.1 0.6
v 0.6 0 0.6
v 0.6 0.1 0.6
v 0.8 0 0.6
v 0.8 0.1 0.6
v 0.8 0.2 0.6
v 0.8 0.3 0.6
v 0.9 0.1 0.6
v 0.9 0.2 0.6
v 0.9 0.3 0.6
v -1 0 0.5
v -1 0.1 0.5
v -0.9 0 0.5
v -0.9 0.1 0.5
v -0.7 0.1 0.5
v -0.7 0.3 0.5
v -0.7 0.5 0.5
v -0.6 0.1 0.5
v -0.6 0.3 0.5
v -0.6 0.5 0.5
v -0.5 0.1 0.5
v -0.5 0.4 0.5
v -0.5 0.5 0.5
v 0.5 0.4 0.5
v 0.5 0.5 0.5
v 0.6 0.1 0.5
v 0.6 0.4 0.5
v 0.8 0 0.5
v 0.8 0.1 0.5
v 0.9 0 0.5
v 0.9 0.1 0.5
v 0.5 0.4 0.4
v 0.5 0.5 0.4
v 0.6 0.4 0.4
v 0.6 0.5 0.4
v -0.9 0.2 -0.3
v -0.9 0.3 -0.3
v -0.8 0.1 -0.3
v -0.8 0.2 -0.3
v -0.8 0.3 -0.3
v 0.7 0.1 -0.3
v 0.7 0.2 -0.3
v 0.7 0.3 -0.3
v 0.8 0.2 -0.3
v 0.8 0.3 -0.3
v -0.8 0.2 -0.4
v -0.8 0.3 -0.4
v 0.7 0.2 -0.4
v 0.7 0.3 -0.4
v -0.8 0.2 0.7
v -0.8 0.3 0.7
v 0.7 0.2 0.7
v 0.7 0.3 0.7
v -0.9 0.2 0.6
v -0.9 0.3 0.6
v -0.8 0.1 0.6
v -0.8 0.2 0.6
v -0.8 0.3 0.6
v 0.7 0.1 0.6
v 0.7 0.2 0.6
v 0.7 0.3 0.6
v 0.8 0.2 0.6
v 0.8 0.3 0.6
v 0.5 0.4 0
v 0.5 0.5 0
v 0.6 0.4 0
v 0.6 0.5 0
v -0.7 0.1 -0.1
v -0.7 0.3 -0.1
v -0.7 0.5 -0.1
v -0.6 0.1 -0.1
v -0.6 0.3 -0.1
v -0.6 0.5 -0.1
v -0.5 0.1 -0.1
v -0.5 0.5 -0.1
v -0.4 0.4 -0.1
v -0.4 0.5 -0.1
v -0.3 0.3 -0.1
v -0.3 0.4 -0.1
v 0.4 0.3 -0.1
v 0.4 0.4 -0.1
v 0.5 0.4 -0.1
v 0.5 0.5 -0.1
v 0.6 0.1 -0.1
v 0.6 0.4 -0.1
v -1 0 -0.2
v -1 0.1 -0.2
v -0.9 0 -0.2
v -0.9 0.1 -0.2
v 0.8 0 -0.2
v 0.8 0.1 -0.2
v 0.9 0 -0.2
v 0.9 0.1 -0.2
v -1 0.1 -0.3
v -1 0.2 -0.3
v -1 0.3 -0.3
v -0.9 0 -0.3
v -0.9 0.1 -0.3
v -0.9 0.2 -0.3
v -0.9 0.3 -0.3
v -0.8 0 -0.3
v -0.8 0.1 -0.3
v 0.7 0 -0.3
v 0.7 0.1 -0.3
v 0.8 0 -0.3
v 0.8 0.1 -0.3
v 0.8 0.2 -0.3
v 0.8 0.3 -0.3
v 0.9 0.1 -0.3
v 0.9 0.2 -0.3
v 0.9 0.3 -0.3
v -0.9 0.1 -0.4
v -0.9 0.2 -0.4
v -0.9 0.3 -0.4
v -0.8 0 -0.4
v -0.8 0.1 -0.4
v -0.8 0.2 -0.4
v -0.8 0.3 -0.4
v -0.6 0.1 -0.4
v -0.6 0.2 -0.4
v -0.5 0 -0.4
v -0.5 0.1 -0.4
v 0.4 0 -0.4
v 0.4 0.1 -0.4
v 0.5 0.1 -0.4
v 0.5 0.2 -0.4
v 0.7 0 -0.4
v 0.7 0.1 -0.4
v 0.7 0.2 -0.4
v 0.7 0.3 -0.4
v 0.8 0.1 -0.4
v 0.8 0.2 -0.4
v 0.8 0.3 -0.4
v -0.8 0.2 -0.5
v -0.8 0.3 -0.5
v -0.6 0.1 -0.5
v -0.6 0.2 -0.5
v -0.5 0 -0.5
v -0.5 0.1 -0.5
v -0.4 0.1 -0.5
v -0.4 0.2 -0.5
v 0.3 0.1 -0.5
v 0.3 0.2 -0.5
v 0.4 0 -0.5
v 0.4 0.1 -0.5
v 0.5 0.1 -0.5
v 0.5 0.2 -0.5
v 0.7 0.2 -0.5
v 0.7 0.3 -0.5
v -0.5 0 0.8
v 0.4 0 0.8
v -0.7 0 0.7
v -0.5 0 0.7
v 0.4 0 0.7
v 0.6 0 0.7
v -0.9 0 0.6
v -0.7 0 0.6
v 0.6 0 0.6
v 0.8 0 0.6
v -1 0 0.5
v -0.9 0 0.5
v 0.8 0 0.5
v 0.9 0 0.5
v -1 0 -0.2
v -0.9 0 -0.2
v 0.8 0 -0.2
v 0.9 0 -0.2
v -0.9 0 -0.3
v -0.8 0 -0.3
v 0.7 0 -0.3
v 0.8 0 -0.3
v -0.8 0 -0.4
v -0.5 0 -0.4
v 0.4 0 -0.4
v 0.7 0 -0.4
v -0.5 0 -0.5
v 0.4 0 -0.5
v -0.6 0.1 0.8
v -0.5 0.1 0.8
v 0.4 0.1 0.8
v 0.5 0.1 0.8
v -0.9 0.1 0.7
v -0.7 0.1 0.7
v -0.6 0.1 0.7
v -0.5 0.1 0.7
v 0.4 0.1 0.7
v 0.5 0.1 0.7
v 0.6 0.1 0.7
v 0.8 0.1 0.7
v -1 0.1 0.6
v -0.9 0.1 0.6
v -0.7 0.1 0.6
v 0.6 0.1 0.6
v 0.8 0.1 0.6
v 0.9 0.1 0.6
v -1 0.1 0.5
v -0.9 0.1 0.5
v 0.8 0.1 0.5
v 0.9 0.1 0.5
v -1 0.1 -0.2
v -0.9 0.1 -0.2
v 0.8 0.1 -0.2
v 0.9 0.1 -0.2
v -1 0.1 -0.3
v -0.9 0.1 -0.3
v -0.8 0.1 -0.3
v 0.7 0.1 -0.3
v 0.8 0.1 -0.3
v 0.9 0.1 -0.3
v -0.9 0.1 -0.4
v -0.8 0.1 -0.4
v -0.6 0.1 -0.4
v -0.5 0.1 -0.4
v 0.4 0.1 -0.4
v 0.5 0.1 -0.4
v 0.7 0.1 -0.4
v 0.8 0.1 -0.4
v -0.6 0.1 -0.5
v -0.5 0.1 -0.5
v 0.4 0.1 -0.5
v 0.5 0.1 -0.5
v -0.8 0.2 0.8
v -0.6 0.2 0.8
v 0.5 0.2 0.8
v 0.7 0.2 0.8
v -0.8 0.2 0.7
v -0.6 0.2 0.7
v 0.5 0.2 0.7
v 0.7 0.2 0.7
v -0.8 0.2 -0.4
v -0.6 0.2 -0.4
v 0.5 0.2 -0.4
v 0.7 0.2 -0.4
v -0.8 0.2 -0.5
v -0.6 0.2 -0.5
v 0.5 0.2 -0.5
v 0.7 0.2 -0.5
v -0.8 0.1 0.6
v 0.7 0.1 0.6
v -0.7 0.1 0.5
v -0.6 0.1 0.5
v -0.5 0.1 0.5
v 0.6 0.1 0.5
v -0.7 0.1 -0.1
v -0.6 0.1 -0.1
v -0.5 0.1 -0.1
v 0.6 0.1 -0.1
v -0.8 0.1 -0.3
v 0.7 0.1 -0.3
v -0.8 0.2 0.7
v 0.7 0.2 0.7
v -0.9 0.2 0.6
v -0.8 0.2 0.6
v 0.7 0.2 0.6
v 0.8 0.2 0.6
v -0.9 0.2 -0.3
v -0.8 0.2 -0.3
v 0.7 0.2 -0.3
v 0.8 0.2 -0.3
v -0.8 0.2 -0.4
v 0.7 0.2 -0.4
v -0.8 0.3 0.8
v 0.7 0.3 0.8
v -0.9 0.3 0.7
v -0.8 0.3 0.7
v 0.7 0.3 0.7
v 0.8 0.3 0.7
v -1 0.3 0.6
v -0.9 0.3 0.6
v -0.8 0.3 0.6
v 0.7 0.3 0.6
v 0.8 0.3 0.6
v 0.9 0.3 0.6
v -1 0.3 -0.3
v -0.9 0.3 -0.3
v -0.8 0.3 -0.3
v 0.7 0.3 -0.3
v 0.8 0.3 -0.3
v 0.9 0.3 -0.3
v -0.9 0.3 -0.4
v -0.8 0.3 -0.4
v 0.7 0.3 -0.4
v 0.8 0.3 -0.4
v -0.8 0.3 -0.5
v 0.7 0.3 -0.5
v 0.5 0.4 0.5
v 0.6 0.4 0.5
v 0.5 0.4 0.4
v 0.6 0.4 0.4
v 0.5 0.4 0
v 0.6 0.4 0
v 0.5 0.4 -0.1
v 0.6 0.4 -0.1
v -0.7 0.5 0.5
v -0.6 0.5 0.5
v -0.5 0.5 0.5
v 0.5 0.5 0.5
v 0.5 0.5 0.4
v 0.6 0.5 0.4
v -0.5 0.5 0
v -0.4 0.5 0
v 0.5 0.5 0
v 0.6 0.5 0
v -0.7 0.5 -0.1
v -0.6 0.5 -0.1
v -0.5 0.5 -0.1
v -0.4 0.5 -0.1
v 0.5 0.5 -0.1

# faces
f 4/1/1 2/1/1 1/1/1
f 5/1/1 2/1/1 4/1/1
f 7/1/1 4/1/1 3/1/1
f 7/1/1 6/1/1 5/1/1
f 7/1/1 5/1/1 4/1/1
f 8/1/1 6/1/1 7/1/1
f 9/2/1 8/2/1 7/2/1
f 10/2/1 8/2/1 9/2/1
f 16/1/1 12/1/1 11/1/1
f 17/1/1 12/1/1 16/1/1
f 18/1/1 14/1/1 13/1/1
f 19/1/1 14/1/1 18/1/1
f 21/1/1 16/1/1 15/1/1
f 22/1/1 16/1/1 21/1/1
f 23/1/1 20/1/1 19/1/1
f 24/1/1 20/1/1 23/1/1
f 25/2/1 22/2/1 21/2/1
f 26/2/1 22/2/1 25/2/1
f 27/2/1 24/2/1 23/2/1
f 28/2/1 24/2/1 27/2/1
f 31/1/1 30/1/1 29/1/1
f 32/1/1 30/1/1 31/1/1
f 37/2/1 34/2/1 33/2/1
f 38/2/1 34/2/1 37/2/1
f 39/2/1 36/2/1 35/2/1
f 40/2/1 36/2/1 39/2/1
f 43/1/1 42/1/1 41/1/1
f 44/1/1 42/1/1 43/1/1
f 47/4/1 46/4/1 45/4/1
f 48/4/1 46/4/1 47/4/1
f 49/3/1 48/3/1 47/3/1
f 50/3/1 48/3/1 49/3/1
f 55/1/1 52/1/1 51/1/1
f 56/1/1 52/1/1 55/1/1
f 57/1/1 54/1/1 53/1/1
f 58/1/1 54/1/1 57/1/1
f 63/1/1 60/1/1 59/1/1
f 64/1/1 60/1/1 63/1/1
f 67/1/1 62/1/1 61/1/1
f 68/1/1 62/1/1 67/1/1
f 69/4/1 66/4/1 65/4/1
f 70/4/1 66/4/1 69/4/1
f 71/4/1 69/4/1 65/4/1
f 72/3/1 70/3/1 69/3/1
f 72/4/1 69/4/1 71/4/1
f 73/3/1 72/3/1 71/3/1
f 74/4/1 66/4/1 70/4/1
f 74/3/1 72/3/1 73/3/1
f 74/3/1 70/3/1 72/3/1
f 75/4/1 66/4/1 74/4/1
f 79/1/1 77/1/1 76/1/1
f 80/1/1 77/1/1 79/1/1
f 82/2/1 79/2/1 78/2/1
f 83/2/1 79/2/1 82/2/1
f 84/2/1 81/2/1 80/2/1
f 85/2/1 81/2/1 84/2/1
f 88/2/1 87/2/1 86/2/1
f 89/2/1 87/2/1 88/2/1
f 90/2/2 91/2/2 92/2/2
f 92/2/2 91/2/2 93/2/2
f 94/1/2 95/1/2 97/1/2
f 97/1/2 95/1/2 98/1/2
f 96/2/2 97/2/2 100/2/2
f 100/2/2 97/2/2 101/2/2
f 98/2/2 99/2/2 102/2/2
f 102/2/2 99/2/2 103/2/2
f 104/4/2 105/4/2 106/4/2
f 106/4/2 105/4/2 107/4/2
f 106/3/2 107/3/2 108/3/2
f 108/3/2 107/3/2 109/3/2
f 110/1/2 111/1/2 114/1/2
f 114/1/2 111/1/2 115/1/2
f 112/1/2 113/1/2 116/1/2
f 116/1/2 113/1/2 117/1/2
f 118/1/2 119/1/2 122/1/2
f 122/1/2 119/1/2 123/1/2
f 120/1/2 121/1/2 124/1/2
f 124/1/2 121/1/2 125/1/2
f 126/3/2 127/3/2 130/3/2
f 130/3/2 127/3/2 131/3/2
f 128/3/2 129/3/2 132/3/2
f 132/3/2 129/3/2 133/3/2
f 134/1/2 135/1/2 136/1/2
f 136/1/2 135/1/2 137/1/2
f 138/4/2 139/4/2 140/4/2
f 140/4/2 139/4/2 141/4/2
f 138/4/2 140/4/2 142/4/2
f 140/3/2 141/3/2 143/3/2
f 142/4/2 140/4/2 143/4/2
f 141/4/2 139/4/2 144/4/2
f 143/3/2 141/3/2 144/3/2
f 144/4/2 139/4/2 145/4/2
f 143/3/2 144/3/2 146/3/2
f 146/3/2 144/3/2 147/3/2
f 148/1/2 149/1/2 150/1/2
f 150/1/2 149/1/2 151/1/2
f 152/2/2 153/2/2 156/2/2
f 156/2/2 153/2/2 157/2/2
f 154/2/2 155/2/2 158/2/2
f 158/2/2 155/2/2 159/2/2
f 160/1/2 161/1/2 165/1/2
f 165/1/2 161/1/2 166/1/2
f 162/1/2 163/1/2 167/1/2
f 167/1/2 163/1/2 168/1/2
f 164/1/2 165/1/2 170/1/2
f 170/1/2 165/1/2 171/1/2
f 168/1/2 169/1/2 172/1/2
f 172/1/2 169/1/2 173/1/2
f 170/2/2 171/2/2 174/2/2
f 174/2/2 171/2/2 175/2/2
f 172/2/2 173/2/2 176/2/2
f 176/2/2 173/2/2 177/2/2
f 178/1/2 179/1/2 181/1/2
f 181/1/2 179/1/2 182/1/2
f 180/1/2 181/1/2 184/1/2
f 182/1/2 183/1/2 184/1/2
f 181/1/2 182/1/2 184/1/2
f 184/1/2 183/1/2 185/1/2
f 184/2/2 185/2/2 186/2/2
f 186/2/2 185/2/2 187/2/2
f 191/2/3 189/2/3 188/2/3
f 193/1/3 191/1/3 190/1/3
f 194/1/3 191/1/3 193/1/3
f 194/1/3 193/1/3 192/1/3
f 195/2/3 189/2/3 191/2/3
f 195/1/3 191/1/3 194/1/3
f 196/1/3 194/1/3 192/1/3
f 196/2/3 195/2/3 194/2/3
f 197/2/3 189/2/3 195/2/3
f 197/2/3 195/2/3 196/2/3
f 198/1/3 196/1/3 192/1/3
f 198/1/3 197/1/3 196/1/3
f 199/1/3 197/1/3 198/1/3
f 200/1/3 197/1/3 199/1/3
f 201/2/3 189/2/3 197/2/3
f 201/1/3 197/1/3 200/1/3
f 202/2/3 189/2/3 201/2/3
f 203/2/3 189/2/3 202/2/3
f 207/1/3 205/1/3 204/1/3
f 207/2/3 206/2/3 205/2/3
f 208/2/3 206/2/3 207/2/3
f 210/1/3 207/1/3 204/1/3
f 211/1/3 207/1/3 210/1/3
f 211/1/3 210/1/3 209/1/3
f 212/1/3 207/1/3 211/1/3
f 213/1/3 211/1/3 209/1/3
f 214/1/3 211/1/3 213/1/3
f 217/1/3 216/1/3 215/1/3
f 219/1/3 217/1/3 215/1/3
f 219/1/3 218/1/3 217/1/3
f 220/1/3 218/1/3 219/1/3
f 221/1/3 218/1/3 220/1/3
f 223/1/3 221/1/3 220/1/3
f 224/2/3 222/2/3 221/2/3
f 224/1/3 221/1/3 223/1/3
f 225/2/3 222/2/3 224/2/3
f 230/1/3 227/1/3 226/1/3
f 231/2/3 228/2/3 227/2/3
f 231/1/3 227/1/3 230/1/3
f 232/2/3 228/2/3 231/2/3
f 233/1/3 230/1/3 229/1/3
f 234/1/3 230/1/3 233/1/3
f 237/1/3 236/1/3 235/1/3
f 238/1/3 236/1/3 237/1/3
f 241/1/3 239/1/3 238/1/3
f 242/2/3 240/2/3 239/2/3
f 242/1/3 239/1/3 241/1/3
f 243/2/3 240/2/3 242/2/3
f 246/1/3 245/1/3 244/1/3
f 247/1/3 245/1/3 246/1/3
f 251/4/3 249/4/3 248/4/3
f 252/3/3 250/3/3 249/3/3
f 252/4/3 249/4/3 251/4/3
f 253/3/3 250/3/3 252/3/3
f 257/4/3 255/4/3 254/4/3
f 257/3/3 256/3/3 255/3/3
f 258/3/3 256/3/3 257/3/3
f 259/4/3 257/4/3 254/4/3
f 260/4/3 257/4/3 259/4/3
f 263/1/3 262/1/3 261/1/3
f 264/1/3 262/1/3 263/1/3
f 267/3/3 266/3/3 265/3/3
f 268/3/3 266/3/3 267/3/3
f 272/2/3 270/2/3 269/2/3
f 273/2/3 270/2/3 272/2/3
f 274/1/3 272/1/3 271/1/3
f 275/1/3 272/1/3 274/1/3
f 277/2/3 276/2/3 275/2/3
f 278/2/3 276/2/3 277/2/3
f 281/2/3 280/2/3 279/2/3
f 282/2/3 280/2/3 281/2/3
f 283/2/4 284/2/4 285/2/4
f 285/2/4 284/2/4 286/2/4
f 287/2/4 288/2/4 290/2/4
f 290/2/4 288/2/4 291/2/4
f 289/1/4 290/1/4 292/1/4
f 292/1/4 290/1/4 293/1/4
f 293/2/4 294/2/4 295/2/4
f 295/2/4 294/2/4 296/2/4
f 297/3/4 298/3/4 299/3/4
f 299/3/4 298/3/4 300/3/4
f 301/4/4 302/4/4 304/4/4
f 302/3/4 303/3/4 305/3/4
f 304/4/4 302/4/4 305/4/4
f 305/3/4 303/3/4 306/3/4
f 307/4/4 308/4/4 309/4/4
f 309/4/4 308/4/4 310/4/4
f 307/4/4 309/4/4 311/4/4
f 309/3/4 310/3/4 312/3/4
f 311/4/4 309/4/4 312/4/4
f 307/4/4 311/4/4 313/4/4
f 311/3/4 312/3/4 313/3/4
f 312/3/4 310/3/4 314/3/4
f 313/3/4 312/3/4 314/3/4
f 313/4/4 314/4/4 315/4/4
f 314/3/4 310/3/4 315/3/4
f 315/3/4 310/3/4 316/3/4
f 307/4/4 313/4/4 317/4/4
f 313/4/4 315/4/4 317/4/4
f 317/4/4 315/4/4 318/4/4
f 319/1/4 320/1/4 321/1/4
f 321/1/4 320/1/4 322/1/4
f 323/1/4 324/1/4 325/1/4
f 325/1/4 324/1/4 326/1/4
f 327/1/4 328/1/4 331/1/4
f 328/2/4 329/2/4 332/2/4
f 331/1/4 328/1/4 332/1/4
f 332/2/4 329/2/4 333/2/4
f 330/1/4 331/1/4 334/1/4
f 334/1/4 331/1/4 335/1/4
f 336/1/4 337/1/4 338/1/4
f 338/1/4 337/1/4 339/1/4
f 339/1/4 340/1/4 342/1/4
f 340/2/4 341/2/4 343/2/4
f 342/1/4 340/1/4 343/1/4
f 343/2/4 341/2/4 344/2/4
f 345/1/4 346/1/4 349/1/4
f 346/2/4 347/2/4 350/2/4
f 349/1/4 346/1/4 350/1/4
f 350/2/4 347/2/4 351/2/4
f 348/1/4 349/1/4 352/1/4
f 349/1/4 350/1/4 352/1/4
f 352/1/4 350/1/4 353/1/4
f 348/1/4 352/1/4 354/1/4
f 354/1/4 352/1/4 355/1/4
f 356/1/4 357/1/4 358/1/4
f 356/1/4 358/1/4 360/1/4
f 358/1/4 359/1/4 360/1/4
f 360/1/4 359/1/4 361/1/4
f 361/1/4 359/1/4 362/1/4
f 361/1/4 362/1/4 364/1/4
f 362/2/4 363/2/4 365/2/4
f 364/1/4 362/1/4 365/1/4
f 365/2/4 363/2/4 366/2/4
f 367/2/4 368/2/4 370/2/4
f 369/1/4 370/1/4 372/1/4
f 372/1/4 370/1/4 373/1/4
f 371/1/4 372/1/4 373/1/4
f 370/2/4 368/2/4 374/2/4
f 373/1/4 370/1/4 374/1/4
f 371/1/4 373/1/4 375/1/4
f 373/2/4 374/2/4 375/2/4
f 374/2/4 368/2/4 376/2/4
f 375/2/4 374/2/4 376/2/4
f 371/1/4 375/1/4 377/1/4
f 375/1/4 376/1/4 377/1/4
f 377/1/4 376/1/4 378/1/4
f 378/1/4 376/1/4 379/1/4
f 376/2/4 368/2/4 380/2/4
f 379/1/4 376/1/4 380/1/4
f 380/2/4 368/2/4 381/2/4
f 381/2/4 368/2/4 382/2/4
f 386/1/5 384/1/5 383/1/5
f 387/1/5 384/1/5 386/1/5
f 390/1/5 386/1/5 385/1/5
f 390/1/5 388/1/5 387/1/5
f 390/1/5 387/1/5 386/1/5
f 391/1/5 388/1/5 390/1/5
f 394/1/5 390/1/5 389/1/5
f 394/1/5 392/1/5 391/1/5
f 394/1/5 391/1/5 390/1/5
f 395/1/5 392/1/5 394/1/5
f 397/1/5 394/1/5 393/1/5
f 397/1/5 396/1/5 395/1/5
f 397/1/5 395/1/5 394/1/5
f 398/1/5 396/1/5 397/1/5
f 399/1/5 396/1/5 398/1/5
f 400/1/5 396/1/5 399/1/5
f 401/1/5 399/1/5 398/1/5
f 402/1/5 399/1/5 401/1/5
f 403/1/5 399/1/5 402/1/5
f 404/1/5 399/1/5 403/1/5
f 405/1/5 403/1/5 402/1/5
f 406/1/5 403/1/5 405/1/5
f 407/1/5 403/1/5 406/1/5
f 408/1/5 403/1/5 407/1/5
f 409/1/5 407/1/5 406/1/5
f 410/1/5 407/1/5 409/1/5
f 417/1/5 412/1/5 411/1/5
f 418/1/5 412/1/5 417/1/5
f 419/1/5 414/1/5 413/1/5
f 420/1/5 414/1/5 419/1/5
f 424/1/5 416/1/5 415/1/5
f 425/1/5 416/1/5 424/1/5
f 426/1/5 422/1/5 421/1/5
f 427/1/5 422/1/5 426/1/5
f 429/1/5 424/1/5 423/1/5
f 430/1/5 424/1/5 429/1/5
f 431/1/5 428/1/5 427/1/5
f 432/1/5 428/1/5 431/1/5
f 437/1/5 434/1/5 433/1/5
f 438/1/5 434/1/5 437/1/5
f 441/1/5 436/1/5 435/1/5
f 442/1/5 436/1/5 441/1/5
f 443/1/5 439/1/5 438/1/5
f 444/1/5 439/1/5 443/1/5
f 449/1/5 441/1/5 440/1/5
f 450/1/5 441/1/5 449/1/5
f 451/1/5 446/1/5 445/1/5
f 452/1/5 446/1/5 451/1/5
f 453/1/5 448/1/5 447/1/5
f 454/1/5 448/1/5 453/1/5
f 459/2/5 456/2/5 455/2/5
f 460/2/5 456/2/5 459/2/5
f 461/2/5 458/2/5 457/2/5
f 462/2/5 458/2/5 461/2/5
f 467/2/5 464/2/5 463/2/5
f 468/2/5 464/2/5 467/2/5
f 469/2/5 466/2/5 465/2/5
f 470/2/5 466/2/5 469/2/5
f 471/1/6 472/1/6 473/1/6
f 473/1/6 472/1/6 474/1/6
f 474/1/6 472/1/6 475/1/6
f 475/1/6 472/1/6 476/1/6
f 471/1/6 473/1/6 477/1/6
f 474/1/6 475/1/6 478/1/6
f 478/1/6 475/1/6 479/1/6
f 476/1/6 472/1/6 480/1/6
f 478/1/6 479/1/6 481/1/6
f 479/1/6 480/1/6 481/1/6
f 471/1/6 477/1/6 481/1/6
f 477/1/6 478/1/6 481/1/6
f 480/1/6 472/1/6 482/1/6
f 481/1/6 480/1/6 482/1/6
f 483/1/6 484/1/6 486/1/6
f 486/1/6 484/1/6 487/1/6
f 485/1/6 486/1/6 489/1/6
f 489/1/6 486/1/6 490/1/6
f 487/1/6 488/1/6 491/1/6
f 491/1/6 488/1/6 492/1/6
f 490/1/6 491/1/6 493/1/6
f 493/1/6 491/1/6 494/1/6
f 495/2/6 496/2/6 498/2/6
f 498/2/6 496/2/6 499/2/6
f 497/2/6 498/2/6 502/2/6
f 502/2/6 498/2/6 503/2/6
f 499/2/6 500/2/6 504/2/6
f 504/2/6 500/2/6 505/2/6
f 501/2/6 502/2/6 507/2/6
f 507/2/6 502/2/6 508/2/6
f 505/2/6 506/2/6 511/2/6
f 511/2/6 506/2/6 512/2/6
f 508/2/6 509/2/6 513/2/6
f 513/2/6 509/2/6 514/2/6
f 510/2/6 511/2/6 515/2/6
f 515/2/6 511/2/6 516/2/6
f 514/2/6 515/2/6 517/2/6
f 517/2/6 515/2/6 518/2/6
f 519/4/6 520/4/6 521/4/6
f 521/4/6 520/4/6 522/4/6
f 523/4/6 524/4/6 525/4/6
f 525/4/6 524/4/6 526/4/6
f 529/3/6 530/3/6 531/3/6
f 529/3/6 531/3/6 533/3/6
f 531/3/6 532/3/6 533/3/6
f 533/3/6 532/3/6 534/3/6
f 534/3/6 532/3/6 535/3/6
f 535/3/6 532/3/6 536/3/6
f 527/3/6 528/3/6 537/3/6
f 537/3/6 528/3/6 538/3/6
f 533/4/6 534/4/6 539/4/6
f 534/3/6 535/3/6 540/3/6
f 539/4/6 534/4/6 540/4/6
f 540/3/6 535/3/6 541/3/6
