# MagicaVoxel @ Ephtracy

# group
o 

# material
mtllib Cabinet2.mtl
usemtl palette

# normals
vn -1 0 0
vn 1 0 0
vn 0 0 1
vn 0 0 -1
vn 0 -1 0
vn 0 1 0

# texcoords
vt 0.947266 0.5
vt 0.970703 0.5
vt 0.974609 0.5

# verts
v -1.8 0 2
v -1.8 0 -1.9
v -1.8 0.2 1.8
v -1.8 0.2 -1.7
v -1.8 3.4 1.8
v -1.8 3.4 -1.7
v -1.8 3.6 2
v -1.8 3.6 -1.9
v -1.7 0.2 1.8
v -1.7 0.2 -1.7
v -1.7 3.4 1.8
v -1.7 3.4 -1.7
v 1.6 0.2 2
v 1.6 0.2 1.8
v 1.6 0.2 -1.6
v 1.6 0.2 -1.8
v 1.6 0.2 -1.9
v 1.6 0.7 1.3
v 1.6 0.7 1.1
v 1.6 0.7 -1.6
v 1.6 0.9 1.3
v 1.6 0.9 1.1
v 1.6 0.9 -1.6
v 1.6 1.5 1.4
v 1.6 1.5 1.2
v 1.6 1.5 -1.6
v 1.6 1.7 1.4
v 1.6 1.7 1.2
v 1.6 1.7 -1.6
v 1.6 2.3 1.6
v 1.6 2.3 1.4
v 1.6 2.3 -1.6
v 1.6 2.5 1.6
v 1.6 2.5 1.4
v 1.6 2.5 -1.6
v 1.6 3.4 2
v 1.6 3.4 1.8
v 1.6 3.4 -1.6
v 1.6 3.4 -1.8
v 1.6 3.4 -1.9
v 1.6 3.5 1.8
v 1.6 3.5 -1.7
v 1.6 3.6 1.8
v 1.6 3.6 -1.7
v -1.6 0.2 2
v -1.6 0.2 1.8
v -1.6 0.2 -1.6
v -1.6 0.2 -1.8
v -1.6 0.2 -1.9
v -1.6 0.7 1.3
v -1.6 0.7 1.1
v -1.6 0.7 -1.6
v -1.6 0.9 1.3
v -1.6 0.9 1.1
v -1.6 0.9 -1.6
v -1.6 1.5 1.4
v -1.6 1.5 1.2
v -1.6 1.5 -1.6
v -1.6 1.7 1.4
v -1.6 1.7 1.2
v -1.6 1.7 -1.6
v -1.6 2.3 1.6
v -1.6 2.3 1.4
v -1.6 2.3 -1.6
v -1.6 2.5 1.6
v -1.6 2.5 1.4
v -1.6 2.5 -1.6
v -1.6 3.4 2
v -1.6 3.4 1.8
v -1.6 3.4 -1.6
v -1.6 3.4 -1.8
v -1.6 3.4 -1.9
v -1.6 3.5 1.8
v -1.6 3.5 -1.7
v -1.6 3.6 1.8
v -1.6 3.6 -1.7
v 1.7 0.2 1.8
v 1.7 0.2 -1.7
v 1.7 3.4 1.8
v 1.7 3.4 -1.7
v 1.8 0 2
v 1.8 0 -1.9
v 1.8 0.2 1.8
v 1.8 0.2 -1.7
v 1.8 3.4 1.8
v 1.8 3.4 -1.7
v 1.8 3.6 2
v 1.8 3.6 -1.9
v -1.8 0 2
v -1.8 3.6 2
v -1.6 0.2 2
v -1.6 3.4 2
v 1.6 0.2 2
v 1.6 3.4 2
v 1.8 0 2
v 1.8 3.6 2
v -1.6 2.3 1.6
v -1.6 2.5 1.6
v 1.6 2.3 1.6
v 1.6 2.5 1.6
v -1.6 1.5 1.4
v -1.6 1.7 1.4
v 1.6 1.5 1.4
v 1.6 1.7 1.4
v -1.6 0.7 1.3
v -1.6 0.9 1.3
v 1.6 0.7 1.3
v 1.6 0.9 1.3
v -1.6 0.2 -1.6
v -1.6 0.7 -1.6
v -1.6 0.9 -1.6
v -1.6 1.5 -1.6
v -1.6 1.7 -1.6
v -1.6 2.3 -1.6
v -1.6 2.5 -1.6
v -1.6 3.4 -1.6
v 1.6 0.2 -1.6
v 1.6 0.7 -1.6
v 1.6 0.9 -1.6
v 1.6 1.5 -1.6
v 1.6 1.7 -1.6
v 1.6 2.3 -1.6
v 1.6 2.5 -1.6
v 1.6 3.4 -1.6
v -1.8 0.2 -1.7
v -1.8 3.4 -1.7
v -1.7 0.2 -1.7
v -1.7 3.4 -1.7
v -1.6 3.5 -1.7
v -1.6 3.6 -1.7
v 1.6 3.5 -1.7
v 1.6 3.6 -1.7
v 1.7 0.2 -1.7
v 1.7 3.4 -1.7
v 1.8 0.2 -1.7
v 1.8 3.4 -1.7
v -1.8 0.2 1.8
v -1.8 3.4 1.8
v -1.7 0.2 1.8
v -1.7 3.4 1.8
v -1.6 3.5 1.8
v -1.6 3.6 1.8
v 1.6 3.5 1.8
v 1.6 3.6 1.8
v 1.7 0.2 1.8
v 1.7 3.4 1.8
v 1.8 0.2 1.8
v 1.8 3.4 1.8
v -1.6 0.2 -1.8
v -1.6 3.4 -1.8
v 1.6 0.2 -1.8
v 1.6 3.4 -1.8
v -1.8 0 -1.9
v -1.8 3.6 -1.9
v -1.6 0.2 -1.9
v -1.6 3.4 -1.9
v 1.6 0.2 -1.9
v 1.6 3.4 -1.9
v 1.8 0 -1.9
v 1.8 3.6 -1.9
v -1.8 0 2
v 1.8 0 2
v -1.8 0 -1.9
v 1.8 0 -1.9
v -1.6 0.7 1.3
v 1.6 0.7 1.3
v -1.6 0.7 1.1
v 1.6 0.7 1.1
v -1.6 0.7 -1.6
v 1.6 0.7 -1.6
v -1.6 1.5 1.4
v 1.6 1.5 1.4
v -1.6 1.5 1.2
v 1.6 1.5 1.2
v -1.6 1.5 -1.6
v 1.6 1.5 -1.6
v -1.6 2.3 1.6
v 1.6 2.3 1.6
v -1.6 2.3 1.4
v 1.6 2.3 1.4
v -1.6 2.3 -1.6
v 1.6 2.3 -1.6
v -1.6 3.4 2
v 1.6 3.4 2
v -1.8 3.4 1.8
v -1.7 3.4 1.8
v -1.6 3.4 1.8
v 1.6 3.4 1.8
v 1.7 3.4 1.8
v 1.8 3.4 1.8
v -1.6 3.4 -1.6
v 1.6 3.4 -1.6
v -1.8 3.4 -1.7
v -1.7 3.4 -1.7
v 1.7 3.4 -1.7
v 1.8 3.4 -1.7
v -1.6 3.4 -1.8
v 1.6 3.4 -1.8
v -1.6 3.4 -1.9
v 1.6 3.4 -1.9
v -1.6 0.2 2
v 1.6 0.2 2
v -1.8 0.2 1.8
v -1.7 0.2 1.8
v -1.6 0.2 1.8
v 1.6 0.2 1.8
v 1.7 0.2 1.8
v 1.8 0.2 1.8
v -1.6 0.2 -1.6
v 1.6 0.2 -1.6
v -1.8 0.2 -1.7
v -1.7 0.2 -1.7
v 1.7 0.2 -1.7
v 1.8 0.2 -1.7
v -1.6 0.2 -1.8
v 1.6 0.2 -1.8
v -1.6 0.2 -1.9
v 1.6 0.2 -1.9
v -1.6 0.9 1.3
v 1.6 0.9 1.3
v -1.6 0.9 1.1
v 1.6 0.9 1.1
v -1.6 0.9 -1.6
v 1.6 0.9 -1.6
v -1.6 1.7 1.4
v 1.6 1.7 1.4
v -1.6 1.7 1.2
v 1.6 1.7 1.2
v -1.6 1.7 -1.6
v 1.6 1.7 -1.6
v -1.6 2.5 1.6
v 1.6 2.5 1.6
v -1.6 2.5 1.4
v 1.6 2.5 1.4
v -1.6 2.5 -1.6
v 1.6 2.5 -1.6
v -1.6 3.5 1.8
v 1.6 3.5 1.8
v -1.6 3.5 -1.7
v 1.6 3.5 -1.7
v -1.8 3.6 2
v 1.8 3.6 2
v -1.6 3.6 1.8
v 1.6 3.6 1.8
v -1.6 3.6 -1.7
v 1.6 3.6 -1.7
v -1.8 3.6 -1.9
v 1.8 3.6 -1.9

# faces
f 3/3/1 2/3/1 1/3/1
f 4/3/1 2/3/1 3/3/1
f 5/3/1 3/3/1 1/3/1
f 6/3/1 2/3/1 4/3/1
f 7/3/1 5/3/1 1/3/1
f 7/3/1 6/3/1 5/3/1
f 8/3/1 2/3/1 6/3/1
f 8/3/1 6/3/1 7/3/1
f 11/2/1 10/2/1 9/2/1
f 12/2/1 10/2/1 11/2/1
f 18/2/1 15/2/1 14/2/1
f 19/2/1 15/2/1 18/2/1
f 20/2/1 15/2/1 19/2/1
f 21/2/1 18/2/1 14/2/1
f 24/2/1 21/2/1 14/2/1
f 24/2/1 23/2/1 22/2/1
f 24/2/1 22/2/1 21/2/1
f 25/2/1 23/2/1 24/2/1
f 26/2/1 23/2/1 25/2/1
f 27/2/1 24/2/1 14/2/1
f 30/2/1 27/2/1 14/2/1
f 30/2/1 29/2/1 28/2/1
f 30/2/1 28/2/1 27/2/1
f 31/2/1 29/2/1 30/2/1
f 32/2/1 29/2/1 31/2/1
f 33/2/1 30/2/1 14/2/1
f 36/3/1 14/3/1 13/3/1
f 37/2/1 35/2/1 34/2/1
f 37/3/1 14/3/1 36/3/1
f 37/2/1 33/2/1 14/2/1
f 37/2/1 34/2/1 33/2/1
f 38/2/1 35/2/1 37/2/1
f 39/3/1 17/3/1 16/3/1
f 40/3/1 17/3/1 39/3/1
f 43/3/1 42/3/1 41/3/1
f 44/3/1 42/3/1 43/3/1
f 46/2/2 47/2/2 50/2/2
f 50/2/2 47/2/2 51/2/2
f 51/2/2 47/2/2 52/2/2
f 46/2/2 50/2/2 53/2/2
f 46/2/2 53/2/2 56/2/2
f 54/2/2 55/2/2 56/2/2
f 53/2/2 54/2/2 56/2/2
f 56/2/2 55/2/2 57/2/2
f 57/2/2 55/2/2 58/2/2
f 46/2/2 56/2/2 59/2/2
f 46/2/2 59/2/2 62/2/2
f 60/2/2 61/2/2 62/2/2
f 59/2/2 60/2/2 62/2/2
f 62/2/2 61/2/2 63/2/2
f 63/2/2 61/2/2 64/2/2
f 46/2/2 62/2/2 65/2/2
f 45/3/2 46/3/2 68/3/2
f 66/2/2 67/2/2 69/2/2
f 68/3/2 46/3/2 69/3/2
f 46/2/2 65/2/2 69/2/2
f 65/2/2 66/2/2 69/2/2
f 69/2/2 67/2/2 70/2/2
f 48/3/2 49/3/2 71/3/2
f 71/3/2 49/3/2 72/3/2
f 73/3/2 74/3/2 75/3/2
f 75/3/2 74/3/2 76/3/2
f 77/2/2 78/2/2 79/2/2
f 79/2/2 78/2/2 80/2/2
f 81/3/2 82/3/2 83/3/2
f 83/3/2 82/3/2 84/3/2
f 81/3/2 83/3/2 85/3/2
f 84/3/2 82/3/2 86/3/2
f 81/3/2 85/3/2 87/3/2
f 85/3/2 86/3/2 87/3/2
f 86/3/2 82/3/2 88/3/2
f 87/3/2 86/3/2 88/3/2
f 91/3/3 90/3/3 89/3/3
f 92/3/3 90/3/3 91/3/3
f 93/3/3 91/3/3 89/3/3
f 94/3/3 90/3/3 92/3/3
f 95/3/3 93/3/3 89/3/3
f 95/3/3 94/3/3 93/3/3
f 96/3/3 90/3/3 94/3/3
f 96/3/3 94/3/3 95/3/3
f 99/3/3 98/3/3 97/3/3
f 100/3/3 98/3/3 99/3/3
f 103/3/3 102/3/3 101/3/3
f 104/3/3 102/3/3 103/3/3
f 107/3/3 106/3/3 105/3/3
f 108/3/3 106/3/3 107/3/3
f 117/1/3 110/1/3 109/1/3
f 118/1/3 110/1/3 117/1/3
f 119/1/3 112/1/3 111/1/3
f 120/1/3 112/1/3 119/1/3
f 121/1/3 114/1/3 113/1/3
f 122/1/3 114/1/3 121/1/3
f 123/1/3 116/1/3 115/1/3
f 124/1/3 116/1/3 123/1/3
f 127/3/3 126/3/3 125/3/3
f 128/3/3 126/3/3 127/3/3
f 131/3/3 130/3/3 129/3/3
f 132/3/3 130/3/3 131/3/3
f 135/3/3 134/3/3 133/3/3
f 136/3/3 134/3/3 135/3/3
f 137/3/4 138/3/4 139/3/4
f 139/3/4 138/3/4 140/3/4
f 141/3/4 142/3/4 143/3/4
f 143/3/4 142/3/4 144/3/4
f 145/3/4 146/3/4 147/3/4
f 147/3/4 146/3/4 148/3/4
f 149/2/4 150/2/4 151/2/4
f 151/2/4 150/2/4 152/2/4
f 153/3/4 154/3/4 155/3/4
f 155/3/4 154/3/4 156/3/4
f 153/3/4 155/3/4 157/3/4
f 156/3/4 154/3/4 158/3/4
f 153/3/4 157/3/4 159/3/4
f 157/3/4 158/3/4 159/3/4
f 158/3/4 154/3/4 160/3/4
f 159/3/4 158/3/4 160/3/4
f 163/3/5 162/3/5 161/3/5
f 164/3/5 162/3/5 163/3/5
f 167/3/5 166/3/5 165/3/5
f 168/3/5 166/3/5 167/3/5
f 169/1/5 168/1/5 167/1/5
f 170/1/5 168/1/5 169/1/5
f 173/3/5 172/3/5 171/3/5
f 174/3/5 172/3/5 173/3/5
f 175/1/5 174/1/5 173/1/5
f 176/1/5 174/1/5 175/1/5
f 179/3/5 178/3/5 177/3/5
f 180/3/5 178/3/5 179/3/5
f 181/1/5 180/1/5 179/1/5
f 182/1/5 180/1/5 181/1/5
f 187/3/5 184/3/5 183/3/5
f 188/3/5 184/3/5 187/3/5
f 191/2/5 188/2/5 187/2/5
f 192/2/5 188/2/5 191/2/5
f 193/3/5 186/3/5 185/3/5
f 194/3/5 186/3/5 193/3/5
f 195/3/5 190/3/5 189/3/5
f 196/3/5 190/3/5 195/3/5
f 199/3/5 198/3/5 197/3/5
f 200/3/5 198/3/5 199/3/5
f 201/3/6 202/3/6 205/3/6
f 205/3/6 202/3/6 206/3/6
f 205/2/6 206/2/6 209/2/6
f 209/2/6 206/2/6 210/2/6
f 203/3/6 204/3/6 211/3/6
f 211/3/6 204/3/6 212/3/6
f 207/3/6 208/3/6 213/3/6
f 213/3/6 208/3/6 214/3/6
f 215/3/6 216/3/6 217/3/6
f 217/3/6 216/3/6 218/3/6
f 219/3/6 220/3/6 221/3/6
f 221/3/6 220/3/6 222/3/6
f 221/1/6 222/1/6 223/1/6
f 223/1/6 222/1/6 224/1/6
f 225/3/6 226/3/6 227/3/6
f 227/3/6 226/3/6 228/3/6
f 227/1/6 228/1/6 229/1/6
f 229/1/6 228/1/6 230/1/6
f 231/3/6 232/3/6 233/3/6
f 233/3/6 232/3/6 234/3/6
f 233/1/6 234/1/6 235/1/6
f 235/1/6 234/1/6 236/1/6
f 237/2/6 238/2/6 239/2/6
f 239/2/6 238/2/6 240/2/6
f 241/3/6 242/3/6 243/3/6
f 243/3/6 242/3/6 244/3/6
f 241/3/6 243/3/6 245/3/6
f 244/3/6 242/3/6 246/3/6
f 241/3/6 245/3/6 247/3/6
f 245/3/6 246/3/6 247/3/6
f 246/3/6 242/3/6 248/3/6
f 247/3/6 246/3/6 248/3/6
