# MagicaVoxel @ Ephtracy

# group
o 

# material
mtllib Milk.mtl
usemtl palette

# normals
vn -1 0 0
vn 1 0 0
vn 0 0 1
vn 0 0 -1
vn 0 -1 0
vn 0 1 0

# texcoords
vt 0.908203 0.5
vt 0.939453 0.5
vt 0.943359 0.5
vt 0.947266 0.5
vt 0.970703 0.5
vt 0.978516 0.5

# verts
v -1.3 2.8 -5.96046e-08
v -1.3 2.8 -0.1
v -1.3 2.9 0.1
v -1.3 2.9 -5.96046e-08
v -1.3 2.9 -0.1
v -1.3 2.9 -0.2
v -1.3 3 0.2
v -1.3 3 0.1
v -1.3 3 -0.2
v -1.3 3 -0.3
v -1.3 3.1 0.3
v -1.3 3.1 0.2
v -1.3 3.1 -0.3
v -1.3 3.1 -0.4
v -1.3 3.2 0.4
v -1.3 3.2 0.3
v -1.3 3.2 -0.4
v -1.3 3.2 -0.5
v -1.3 3.3 0.5
v -1.3 3.3 0.4
v -1.3 3.3 -0.5
v -1.3 3.3 -0.6
v -1.3 3.4 0.7
v -1.3 3.4 0.5
v -1.3 3.4 -0.6
v -1.3 3.4 -0.8
v -1.3 3.7 0.7
v -1.3 3.7 -0.8
v -1.2 0 0.7
v -1.2 0 -0.8
v -1.2 0.1 0.7
v -1.2 0.1 0.5
v -1.2 0.2 0.5
v -1.2 0.2 0.3
v -1.2 0.3 0.7
v -1.2 0.3 0.6
v -1.2 0.3 0.3
v -1.2 0.3 0.2
v -1.2 0.3 -0.7
v -1.2 0.3 -0.8
v -1.2 0.4 0.2
v -1.2 0.4 0.1
v -1.2 0.6 0.1
v -1.2 0.6 -5.96046e-08
v -1.2 0.9 -5.96046e-08
v -1.2 0.9 -0.1
v -1.2 1.1 -0.1
v -1.2 1.1 -0.2
v -1.2 1.2 0.6
v -1.2 1.2 0.5
v -1.2 1.3 0.7
v -1.2 1.3 0.6
v -1.2 1.3 0.5
v -1.2 1.3 -0.2
v -1.2 1.3 -0.7
v -1.2 1.3 -0.8
v -1.2 1.8 0.7
v -1.2 1.8 -0.8
v -1.2 2.5 0.7
v -1.2 2.5 0.6
v -1.2 2.5 -0.1
v -1.2 2.5 -0.7
v -1.2 2.5 -0.8
v -1.2 2.6 -5.96046e-08
v -1.2 2.6 -0.1
v -1.2 2.8 -5.96046e-08
v -1.2 2.8 -0.1
v -1.2 2.9 0.1
v -1.2 2.9 -5.96046e-08
v -1.2 2.9 -0.1
v -1.2 2.9 -0.2
v -1.2 3 0.2
v -1.2 3 0.1
v -1.2 3 -0.2
v -1.2 3 -0.3
v -1.2 3.1 0.3
v -1.2 3.1 0.2
v -1.2 3.1 -0.3
v -1.2 3.1 -0.4
v -1.2 3.2 0.4
v -1.2 3.2 0.3
v -1.2 3.2 -0.4
v -1.2 3.2 -0.5
v -1.2 3.3 0.5
v -1.2 3.3 0.4
v -1.2 3.3 -0.5
v -1.2 3.3 -0.6
v -1.2 3.4 0.6
v -1.2 3.4 0.5
v -1.2 3.4 -0.6
v -1.2 3.4 -0.7
v 0.6 3.7 0.4
v 0.6 3.7 0.1
v 0.6 3.9 0.4
v 0.6 3.9 0.1
v 0.7 3.7 0.5
v 0.7 3.7 0.4
v 0.7 3.7 0.1
v 0.7 3.7 -5.96046e-08
v 0.7 3.9 0.5
v 0.7 3.9 0.4
v 0.7 3.9 0.1
v 0.7 3.9 -5.96046e-08
v 0.7 4 0.4
v 0.7 4 0.1
v 1 3.7 0.5
v 1 3.7 0.4
v 1 3.7 0.1
v 1 3.7 -5.96046e-08
v 1 3.9 0.5
v 1 3.9 0.4
v 1 3.9 0.1
v 1 3.9 -5.96046e-08
v 1 4 0.4
v 1 4 0.1
v 1.1 3.7 0.4
v 1.1 3.7 0.1
v 1.1 3.9 0.4
v 1.1 3.9 0.1
v 1.2 0 0.7
v 1.2 0 -0.8
v 1.2 0.1 0.7
v 1.2 0.1 0.5
v 1.2 0.2 0.5
v 1.2 0.2 0.3
v 1.2 0.3 0.7
v 1.2 0.3 0.6
v 1.2 0.3 0.3
v 1.2 0.3 0.2
v 1.2 0.3 -0.7
v 1.2 0.3 -0.8
v 1.2 0.4 0.2
v 1.2 0.4 0.1
v 1.2 0.6 0.1
v 1.2 0.6 -5.96046e-08
v 1.2 0.9 -5.96046e-08
v 1.2 0.9 -0.1
v 1.2 1.1 -0.1
v 1.2 1.1 -0.2
v 1.2 1.2 0.6
v 1.2 1.2 0.5
v 1.2 1.3 0.7
v 1.2 1.3 0.6
v 1.2 1.3 0.5
v 1.2 1.3 -0.2
v 1.2 1.3 -0.7
v 1.2 1.3 -0.8
v 1.2 1.8 0.7
v 1.2 1.8 -0.8
v 1.2 2.5 0.7
v 1.2 2.5 0.6
v 1.2 2.5 -0.1
v 1.2 2.5 -0.7
v 1.2 2.5 -0.8
v 1.2 2.6 -5.96046e-08
v 1.2 2.6 -0.1
v 1.2 2.8 -5.96046e-08
v 1.2 2.8 -0.1
v 1.2 2.9 0.1
v 1.2 2.9 -5.96046e-08
v 1.2 2.9 -0.1
v 1.2 2.9 -0.2
v 1.2 3 0.2
v 1.2 3 0.1
v 1.2 3 -0.2
v 1.2 3 -0.3
v 1.2 3.1 0.3
v 1.2 3.1 0.2
v 1.2 3.1 -0.3
v 1.2 3.1 -0.4
v 1.2 3.2 0.4
v 1.2 3.2 0.3
v 1.2 3.2 -0.4
v 1.2 3.2 -0.5
v 1.2 3.3 0.5
v 1.2 3.3 0.4
v 1.2 3.3 -0.5
v 1.2 3.3 -0.6
v 1.2 3.4 0.6
v 1.2 3.4 0.5
v 1.2 3.4 -0.6
v 1.2 3.4 -0.7
v 1.3 2.8 -5.96046e-08
v 1.3 2.8 -0.1
v 1.3 2.9 0.1
v 1.3 2.9 -5.96046e-08
v 1.3 2.9 -0.1
v 1.3 2.9 -0.2
v 1.3 3 0.2
v 1.3 3 0.1
v 1.3 3 -0.2
v 1.3 3 -0.3
v 1.3 3.1 0.3
v 1.3 3.1 0.2
v 1.3 3.1 -0.3
v 1.3 3.1 -0.4
v 1.3 3.2 0.4
v 1.3 3.2 0.3
v 1.3 3.2 -0.4
v 1.3 3.2 -0.5
v 1.3 3.3 0.5
v 1.3 3.3 0.4
v 1.3 3.3 -0.5
v 1.3 3.3 -0.6
v 1.3 3.4 0.7
v 1.3 3.4 0.5
v 1.3 3.4 -0.6
v 1.3 3.4 -0.8
v 1.3 3.7 0.7
v 1.3 3.7 -0.8
v -1.3 3.4 0.7
v -1.3 3.7 0.7
v -1.2 0 0.7
v -1.2 0.1 0.7
v -1.2 0.3 0.7
v -1.2 1.3 0.7
v -1.2 1.8 0.7
v -1.2 2.5 0.7
v -1.1 1.5 0.7
v -1.1 1.8 0.7
v -1.1 2.4 0.7
v -0.9 1.5 0.7
v -0.9 1.8 0.7
v -0.9 2.2 0.7
v -0.9 2.3 0.7
v -0.9 2.4 0.7
v -0.8 2.1 0.7
v -0.8 2.2 0.7
v -0.8 2.3 0.7
v -0.7 2.1 0.7
v -0.7 2.2 0.7
v -0.7 2.3 0.7
v -0.6 1.5 0.7
v -0.6 1.8 0.7
v -0.6 2.2 0.7
v -0.6 2.3 0.7
v -0.6 2.4 0.7
v -0.4 1.5 0.7
v -0.4 1.8 0.7
v -0.4 2.4 0.7
v -0.3 1.5 0.7
v -0.3 1.8 0.7
v -0.3 2.4 0.7
v -0.0999999 1.5 0.7
v -0.0999999 1.8 0.7
v -0.0999999 2.4 0.7
v 0 1.5 0.7
v 0 1.8 0.7
v 0 2.4 0.7
v 0.2 1.6 0.7
v 0.2 1.8 0.7
v 0.2 2.4 0.7
v 0.4 1.5 0.7
v 0.4 1.6 0.7
v 0.5 1.5 0.7
v 0.5 1.8 0.7
v 0.5 2.4 0.7
v 0.6 1.5 0.7
v 0.6 1.8 0.7
v 0.7 1.8 0.7
v 0.7 1.9 0.7
v 0.7 2.2 0.7
v 0.7 2.4 0.7
v 0.8 1.8 0.7
v 0.8 1.9 0.7
v 0.8 2 0.7
v 0.8 2.1 0.7
v 0.8 2.2 0.7
v 0.8 2.3 0.7
v 0.9 1.5 0.7
v 0.9 1.8 0.7
v 0.9 2.3 0.7
v 0.9 2.4 0.7
v 1 1.8 0.7
v 1 2 0.7
v 1 2.1 0.7
v 1 2.2 0.7
v 1.1 1.5 0.7
v 1.1 1.8 0.7
v 1.1 2.2 0.7
v 1.1 2.4 0.7
v 1.2 0 0.7
v 1.2 0.1 0.7
v 1.2 0.3 0.7
v 1.2 1.3 0.7
v 1.2 1.8 0.7
v 1.2 2.5 0.7
v 1.3 3.4 0.7
v 1.3 3.7 0.7
v -1.2 0.3 0.6
v -1.2 1.2 0.6
v -1.2 1.3 0.6
v -1.2 2.5 0.6
v -1.2 3.4 0.6
v 1.2 0.3 0.6
v 1.2 1.2 0.6
v 1.2 1.3 0.6
v 1.2 2.5 0.6
v 1.2 3.4 0.6
v -1.3 3.3 0.5
v -1.3 3.4 0.5
v -1.2 3.3 0.5
v -1.2 3.4 0.5
v 0.7 3.7 0.5
v 0.7 3.9 0.5
v 1 3.7 0.5
v 1 3.9 0.5
v 1.2 3.3 0.5
v 1.2 3.4 0.5
v 1.3 3.3 0.5
v 1.3 3.4 0.5
v -1.3 3.2 0.4
v -1.3 3.3 0.4
v -1.2 3.2 0.4
v -1.2 3.3 0.4
v 0.6 3.7 0.4
v 0.6 3.9 0.4
v 0.7 3.7 0.4
v 0.7 3.9 0.4
v 0.7 4 0.4
v 1 3.7 0.4
v 1 3.9 0.4
v 1 4 0.4
v 1.1 3.7 0.4
v 1.1 3.9 0.4
v 1.2 3.2 0.4
v 1.2 3.3 0.4
v 1.3 3.2 0.4
v 1.3 3.3 0.4
v -1.3 3.1 0.3
v -1.3 3.2 0.3
v -1.2 3.1 0.3
v -1.2 3.2 0.3
v 1.2 3.1 0.3
v 1.2 3.2 0.3
v 1.3 3.1 0.3
v 1.3 3.2 0.3
v -1.3 3 0.2
v -1.3 3.1 0.2
v -1.2 3 0.2
v -1.2 3.1 0.2
v 1.2 3 0.2
v 1.2 3.1 0.2
v 1.3 3 0.2
v 1.3 3.1 0.2
v -1.3 2.9 0.1
v -1.3 3 0.1
v -1.2 2.9 0.1
v -1.2 3 0.1
v 1.2 2.9 0.1
v 1.2 3 0.1
v 1.3 2.9 0.1
v 1.3 3 0.1
v -1.3 2.8 -5.96046e-08
v -1.3 2.9 -5.96046e-08
v -1.2 2.8 -5.96046e-08
v -1.2 2.9 -5.96046e-08
v 1.2 2.8 -5.96046e-08
v 1.2 2.9 -5.96046e-08
v 1.3 2.8 -5.96046e-08
v 1.3 2.9 -5.96046e-08
v 0.6 3.7 0.1
v 0.6 3.9 0.1
v 0.7 3.7 0.1
v 0.7 3.9 0.1
v 0.7 4 0.1
v 1 3.7 0.1
v 1 3.9 0.1
v 1 4 0.1
v 1.1 3.7 0.1
v 1.1 3.9 0.1
v 0.7 3.7 -5.96046e-08
v 0.7 3.9 -5.96046e-08
v 1 3.7 -5.96046e-08
v 1 3.9 -5.96046e-08
v -1.3 2.8 -0.1
v -1.3 2.9 -0.1
v -1.2 2.8 -0.1
v -1.2 2.9 -0.1
v 1.2 2.8 -0.1
v 1.2 2.9 -0.1
v 1.3 2.8 -0.1
v 1.3 2.9 -0.1
v -1.3 2.9 -0.2
v -1.3 3 -0.2
v -1.2 2.9 -0.2
v -1.2 3 -0.2
v 1.2 2.9 -0.2
v 1.2 3 -0.2
v 1.3 2.9 -0.2
v 1.3 3 -0.2
v -1.3 3 -0.3
v -1.3 3.1 -0.3
v -1.2 3 -0.3
v -1.2 3.1 -0.3
v 1.2 3 -0.3
v 1.2 3.1 -0.3
v 1.3 3 -0.3
v 1.3 3.1 -0.3
v -1.3 3.1 -0.4
v -1.3 3.2 -0.4
v -1.2 3.1 -0.4
v -1.2 3.2 -0.4
v 1.2 3.1 -0.4
v 1.2 3.2 -0.4
v 1.3 3.1 -0.4
v 1.3 3.2 -0.4
v -1.3 3.2 -0.5
v -1.3 3.3 -0.5
v -1.2 3.2 -0.5
v -1.2 3.3 -0.5
v 1.2 3.2 -0.5
v 1.2 3.3 -0.5
v 1.3 3.2 -0.5
v 1.3 3.3 -0.5
v -1.3 3.3 -0.6
v -1.3 3.4 -0.6
v -1.2 3.3 -0.6
v -1.2 3.4 -0.6
v 1.2 3.3 -0.6
v 1.2 3.4 -0.6
v 1.3 3.3 -0.6
v 1.3 3.4 -0.6
v -1.2 0.3 -0.7
v -1.2 1.3 -0.7
v -1.2 2.5 -0.7
v -1.2 3.4 -0.7
v 1.2 0.3 -0.7
v 1.2 1.3 -0.7
v 1.2 2.5 -0.7
v 1.2 3.4 -0.7
v -1.3 3.4 -0.8
v -1.3 3.7 -0.8
v -1.2 0 -0.8
v -1.2 0.3 -0.8
v -1.2 1.3 -0.8
v -1.2 1.8 -0.8
v -1.2 2.5 -0.8
v 1.2 0 -0.8
v 1.2 0.3 -0.8
v 1.2 1.3 -0.8
v 1.2 1.8 -0.8
v 1.2 2.5 -0.8
v 1.3 3.4 -0.8
v 1.3 3.7 -0.8
v -1.2 0 0.7
v 1.2 0 0.7
v -1.1 0 0.6
v 1.1 0 0.6
v -1.1 0 -0.6
v 1.1 0 -0.6
v -1.2 0 -0.8
v 1.2 0 -0.8
v -1.2 1.3 0.7
v 1.2 1.3 0.7
v -1.2 1.3 0.6
v 1.2 1.3 0.6
v -1.2 1.3 -0.7
v 1.2 1.3 -0.7
v -1.2 1.3 -0.8
v 1.2 1.3 -0.8
v -1.3 2.8 -5.96046e-08
v -1.2 2.8 -5.96046e-08
v 1.2 2.8 -5.96046e-08
v 1.3 2.8 -5.96046e-08
v -1.3 2.8 -0.1
v -1.2 2.8 -0.1
v 1.2 2.8 -0.1
v 1.3 2.8 -0.1
v -1.3 2.9 0.1
v -1.2 2.9 0.1
v 1.2 2.9 0.1
v 1.3 2.9 0.1
v -1.3 2.9 -5.96046e-08
v -1.2 2.9 -5.96046e-08
v 1.2 2.9 -5.96046e-08
v 1.3 2.9 -5.96046e-08
v -1.3 2.9 -0.1
v -1.2 2.9 -0.1
v 1.2 2.9 -0.1
v 1.3 2.9 -0.1
v -1.3 2.9 -0.2
v -1.2 2.9 -0.2
v 1.2 2.9 -0.2
v 1.3 2.9 -0.2
v -1.3 3 0.2
v -1.2 3 0.2
v 1.2 3 0.2
v 1.3 3 0.2
v -1.3 3 0.1
v -1.2 3 0.1
v 1.2 3 0.1
v 1.3 3 0.1
v -1.3 3 -0.2
v -1.2 3 -0.2
v 1.2 3 -0.2
v 1.3 3 -0.2
v -1.3 3 -0.3
v -1.2 3 -0.3
v 1.2 3 -0.3
v 1.3 3 -0.3
v -1.3 3.1 0.3
v -1.2 3.1 0.3
v 1.2 3.1 0.3
v 1.3 3.1 0.3
v -1.3 3.1 0.2
v -1.2 3.1 0.2
v 1.2 3.1 0.2
v 1.3 3.1 0.2
v -1.3 3.1 -0.3
v -1.2 3.1 -0.3
v 1.2 3.1 -0.3
v 1.3 3.1 -0.3
v -1.3 3.1 -0.4
v -1.2 3.1 -0.4
v 1.2 3.1 -0.4
v 1.3 3.1 -0.4
v -1.3 3.2 0.4
v -1.2 3.2 0.4
v 1.2 3.2 0.4
v 1.3 3.2 0.4
v -1.3 3.2 0.3
v -1.2 3.2 0.3
v 1.2 3.2 0.3
v 1.3 3.2 0.3
v -1.3 3.2 -0.4
v -1.2 3.2 -0.4
v 1.2 3.2 -0.4
v 1.3 3.2 -0.4
v -1.3 3.2 -0.5
v -1.2 3.2 -0.5
v 1.2 3.2 -0.5
v 1.3 3.2 -0.5
v -1.3 3.3 0.5
v -1.2 3.3 0.5
v 1.2 3.3 0.5
v 1.3 3.3 0.5
v -1.3 3.3 0.4
v -1.2 3.3 0.4
v 1.2 3.3 0.4
v 1.3 3.3 0.4
v -1.3 3.3 -0.5
v -1.2 3.3 -0.5
v 1.2 3.3 -0.5
v 1.3 3.3 -0.5
v -1.3 3.3 -0.6
v -1.2 3.3 -0.6
v 1.2 3.3 -0.6
v 1.3 3.3 -0.6
v -1.3 3.4 0.7
v 1.3 3.4 0.7
v -1.2 3.4 0.6
v 1.2 3.4 0.6
v -1.3 3.4 0.5
v -1.2 3.4 0.5
v 1.2 3.4 0.5
v 1.3 3.4 0.5
v -1.3 3.4 -0.6
v -1.2 3.4 -0.6
v 1.2 3.4 -0.6
v 1.3 3.4 -0.6
v -1.2 3.4 -0.7
v 1.2 3.4 -0.7
v -1.3 3.4 -0.8
v 1.3 3.4 -0.8
v -1.2 0.3 0.7
v 1.2 0.3 0.7
v -1.2 0.3 0.6
v 1.2 0.3 0.6
v -1.2 0.3 -0.7
v 1.2 0.3 -0.7
v -1.2 0.3 -0.8
v 1.2 0.3 -0.8
v -1.2 2.5 0.7
v 1.2 2.5 0.7
v -1.2 2.5 0.6
v 1.2 2.5 0.6
v -1.2 2.5 -0.7
v 1.2 2.5 -0.7
v -1.2 2.5 -0.8
v 1.2 2.5 -0.8
v -1.3 3.7 0.7
v 1.3 3.7 0.7
v 0.7 3.7 0.5
v 1 3.7 0.5
v 0.6 3.7 0.4
v 0.7 3.7 0.4
v 1 3.7 0.4
v 1.1 3.7 0.4
v 0.6 3.7 0.1
v 0.7 3.7 0.1
v 1 3.7 0.1
v 1.1 3.7 0.1
v 0.7 3.7 -5.96046e-08
v 1 3.7 -5.96046e-08
v -1.3 3.7 -0.8
v 1.3 3.7 -0.8
v 0.7 3.9 0.5
v 1 3.9 0.5
v 0.6 3.9 0.4
v 0.7 3.9 0.4
v 1 3.9 0.4
v 1.1 3.9 0.4
v 0.6 3.9 0.1
v 0.7 3.9 0.1
v 1 3.9 0.1
v 1.1 3.9 0.1
v 0.7 3.9 -5.96046e-08
v 1 3.9 -5.96046e-08
v 0.7 4 0.4
v 1 4 0.4
v 0.7 4 0.1
v 1 4 0.1

# faces
f 4/2/1 2/2/1 1/2/1
f 5/2/1 2/2/1 4/2/1
f 8/2/1 4/2/1 3/2/1
f 8/2/1 6/2/1 5/2/1
f 8/2/1 5/2/1 4/2/1
f 9/2/1 6/2/1 8/2/1
f 12/2/1 8/2/1 7/2/1
f 12/2/1 10/2/1 9/2/1
f 12/2/1 9/2/1 8/2/1
f 13/2/1 10/2/1 12/2/1
f 16/2/1 12/2/1 11/2/1
f 16/2/1 14/2/1 13/2/1
f 16/2/1 13/2/1 12/2/1
f 17/2/1 14/2/1 16/2/1
f 20/2/1 16/2/1 15/2/1
f 20/2/1 18/2/1 17/2/1
f 20/2/1 17/2/1 16/2/1
f 21/2/1 18/2/1 20/2/1
f 24/2/1 20/2/1 19/2/1
f 24/2/1 22/2/1 21/2/1
f 24/2/1 21/2/1 20/2/1
f 25/2/1 22/2/1 24/2/1
f 27/2/1 24/2/1 23/2/1
f 27/2/1 26/2/1 25/2/1
f 27/2/1 25/2/1 24/2/1
f 28/2/1 26/2/1 27/2/1
f 31/3/1 30/3/1 29/3/1
f 32/3/1 30/3/1 31/3/1
f 33/5/1 32/5/1 31/5/1
f 33/3/1 30/3/1 32/3/1
f 34/3/1 30/3/1 33/3/1
f 35/5/1 33/5/1 31/5/1
f 35/5/1 34/5/1 33/5/1
f 36/5/1 34/5/1 35/5/1
f 37/3/1 30/3/1 34/3/1
f 37/5/1 34/5/1 36/5/1
f 38/3/1 30/3/1 37/3/1
f 39/3/1 30/3/1 38/3/1
f 40/3/1 30/3/1 39/3/1
f 41/5/1 37/5/1 36/5/1
f 41/3/1 39/3/1 38/3/1
f 41/5/1 38/5/1 37/5/1
f 42/3/1 39/3/1 41/3/1
f 43/5/1 42/5/1 41/5/1
f 43/3/1 39/3/1 42/3/1
f 44/3/1 39/3/1 43/3/1
f 45/5/1 44/5/1 43/5/1
f 45/3/1 39/3/1 44/3/1
f 46/3/1 39/3/1 45/3/1
f 47/5/1 46/5/1 45/5/1
f 47/3/1 39/3/1 46/3/1
f 48/3/1 39/3/1 47/3/1
f 49/5/1 41/5/1 36/5/1
f 49/5/1 43/5/1 41/5/1
f 49/5/1 48/5/1 47/5/1
f 49/5/1 47/5/1 45/5/1
f 49/5/1 45/5/1 43/5/1
f 50/5/1 48/5/1 49/5/1
f 52/3/1 50/3/1 49/3/1
f 53/5/1 48/5/1 50/5/1
f 53/3/1 50/3/1 52/3/1
f 54/3/1 39/3/1 48/3/1
f 54/5/1 48/5/1 53/5/1
f 55/3/1 39/3/1 54/3/1
f 57/1/1 53/1/1 52/1/1
f 57/1/1 56/1/1 55/1/1
f 57/1/1 55/1/1 54/1/1
f 57/1/1 54/1/1 53/1/1
f 57/1/1 52/1/1 51/1/1
f 58/1/1 56/1/1 57/1/1
f 59/2/1 58/2/1 57/2/1
f 60/2/1 58/2/1 59/2/1
f 61/2/1 58/2/1 60/2/1
f 62/2/1 58/2/1 61/2/1
f 63/2/1 58/2/1 62/2/1
f 64/5/1 61/5/1 60/5/1
f 65/3/1 62/3/1 61/3/1
f 65/5/1 61/5/1 64/5/1
f 66/5/1 64/5/1 60/5/1
f 66/3/1 65/3/1 64/3/1
f 67/3/1 62/3/1 65/3/1
f 67/3/1 65/3/1 66/3/1
f 68/5/1 66/5/1 60/5/1
f 69/5/1 66/5/1 68/5/1
f 70/3/1 62/3/1 67/3/1
f 71/3/1 62/3/1 70/3/1
f 72/5/1 68/5/1 60/5/1
f 73/5/1 68/5/1 72/5/1
f 74/3/1 62/3/1 71/3/1
f 75/3/1 62/3/1 74/3/1
f 76/5/1 72/5/1 60/5/1
f 77/5/1 72/5/1 76/5/1
f 78/3/1 62/3/1 75/3/1
f 79/3/1 62/3/1 78/3/1
f 80/5/1 76/5/1 60/5/1
f 81/5/1 76/5/1 80/5/1
f 82/3/1 62/3/1 79/3/1
f 83/3/1 62/3/1 82/3/1
f 84/5/1 80/5/1 60/5/1
f 85/5/1 80/5/1 84/5/1
f 86/3/1 62/3/1 83/3/1
f 87/3/1 62/3/1 86/3/1
f 88/5/1 84/5/1 60/5/1
f 89/5/1 84/5/1 88/5/1
f 90/3/1 62/3/1 87/3/1
f 91/3/1 62/3/1 90/3/1
f 94/6/1 93/6/1 92/6/1
f 95/6/1 93/6/1 94/6/1
f 100/6/1 97/6/1 96/6/1
f 101/6/1 97/6/1 100/6/1
f 102/6/1 99/6/1 98/6/1
f 103/6/1 99/6/1 102/6/1
f 104/5/1 102/5/1 101/5/1
f 105/5/1 102/5/1 104/5/1
f 106/6/2 107/6/2 110/6/2
f 110/6/2 107/6/2 111/6/2
f 108/6/2 109/6/2 112/6/2
f 112/6/2 109/6/2 113/6/2
f 111/5/2 112/5/2 114/5/2
f 114/5/2 112/5/2 115/5/2
f 116/6/2 117/6/2 118/6/2
f 118/6/2 117/6/2 119/6/2
f 120/3/2 121/3/2 122/3/2
f 122/3/2 121/3/2 123/3/2
f 122/5/2 123/5/2 124/5/2
f 123/3/2 121/3/2 124/3/2
f 124/3/2 121/3/2 125/3/2
f 122/5/2 124/5/2 126/5/2
f 124/5/2 125/5/2 126/5/2
f 126/5/2 125/5/2 127/5/2
f 125/3/2 121/3/2 128/3/2
f 127/5/2 125/5/2 128/5/2
f 128/3/2 121/3/2 129/3/2
f 129/3/2 121/3/2 130/3/2
f 130/3/2 121/3/2 131/3/2
f 127/5/2 128/5/2 132/5/2
f 129/3/2 130/3/2 132/3/2
f 128/5/2 129/5/2 132/5/2
f 132/3/2 130/3/2 133/3/2
f 132/5/2 133/5/2 134/5/2
f 133/3/2 130/3/2 134/3/2
f 134/3/2 130/3/2 135/3/2
f 134/5/2 135/5/2 136/5/2
f 135/3/2 130/3/2 136/3/2
f 136/3/2 130/3/2 137/3/2
f 136/5/2 137/5/2 138/5/2
f 137/3/2 130/3/2 138/3/2
f 138/3/2 130/3/2 139/3/2
f 127/5/2 132/5/2 140/5/2
f 132/5/2 134/5/2 140/5/2
f 138/5/2 139/5/2 140/5/2
f 136/5/2 138/5/2 140/5/2
f 134/5/2 136/5/2 140/5/2
f 140/5/2 139/5/2 141/5/2
f 140/3/2 141/3/2 143/3/2
f 141/5/2 139/5/2 144/5/2
f 143/3/2 141/3/2 144/3/2
f 139/3/2 130/3/2 145/3/2
f 144/5/2 139/5/2 145/5/2
f 145/3/2 130/3/2 146/3/2
f 143/1/2 144/1/2 148/1/2
f 146/1/2 147/1/2 148/1/2
f 145/1/2 146/1/2 148/1/2
f 144/1/2 145/1/2 148/1/2
f 142/1/2 143/1/2 148/1/2
f 148/1/2 147/1/2 149/1/2
f 148/2/2 149/2/2 150/2/2
f 150/2/2 149/2/2 151/2/2
f 151/2/2 149/2/2 152/2/2
f 152/2/2 149/2/2 153/2/2
f 153/2/2 149/2/2 154/2/2
f 151/5/2 152/5/2 155/5/2
f 152/3/2 153/3/2 156/3/2
f 155/5/2 152/5/2 156/5/2
f 151/5/2 155/5/2 157/5/2
f 155/3/2 156/3/2 157/3/2
f 156/3/2 153/3/2 158/3/2
f 157/3/2 156/3/2 158/3/2
f 151/5/2 157/5/2 159/5/2
f 159/5/2 157/5/2 160/5/2
f 158/3/2 153/3/2 161/3/2
f 161/3/2 153/3/2 162/3/2
f 151/5/2 159/5/2 163/5/2
f 163/5/2 159/5/2 164/5/2
f 162/3/2 153/3/2 165/3/2
f 165/3/2 153/3/2 166/3/2
f 151/5/2 163/5/2 167/5/2
f 167/5/2 163/5/2 168/5/2
f 166/3/2 153/3/2 169/3/2
f 169/3/2 153/3/2 170/3/2
f 151/5/2 167/5/2 171/5/2
f 171/5/2 167/5/2 172/5/2
f 170/3/2 153/3/2 173/3/2
f 173/3/2 153/3/2 174/3/2
f 151/5/2 171/5/2 175/5/2
f 175/5/2 171/5/2 176/5/2
f 174/3/2 153/3/2 177/3/2
f 177/3/2 153/3/2 178/3/2
f 151/5/2 175/5/2 179/5/2
f 179/5/2 175/5/2 180/5/2
f 178/3/2 153/3/2 181/3/2
f 181/3/2 153/3/2 182/3/2
f 183/2/2 184/2/2 186/2/2
f 186/2/2 184/2/2 187/2/2
f 185/2/2 186/2/2 190/2/2
f 187/2/2 188/2/2 190/2/2
f 186/2/2 187/2/2 190/2/2
f 190/2/2 188/2/2 191/2/2
f 189/2/2 190/2/2 194/2/2
f 191/2/2 192/2/2 194/2/2
f 190/2/2 191/2/2 194/2/2
f 194/2/2 192/2/2 195/2/2
f 193/2/2 194/2/2 198/2/2
f 195/2/2 196/2/2 198/2/2
f 194/2/2 195/2/2 198/2/2
f 198/2/2 196/2/2 199/2/2
f 197/2/2 198/2/2 202/2/2
f 199/2/2 200/2/2 202/2/2
f 198/2/2 199/2/2 202/2/2
f 202/2/2 200/2/2 203/2/2
f 201/2/2 202/2/2 206/2/2
f 203/2/2 204/2/2 206/2/2
f 202/2/2 203/2/2 206/2/2
f 206/2/2 204/2/2 207/2/2
f 205/2/2 206/2/2 209/2/2
f 207/2/2 208/2/2 209/2/2
f 206/2/2 207/2/2 209/2/2
f 209/2/2 208/2/2 210/2/2
f 219/1/3 217/1/3 216/1/3
f 220/2/3 218/2/3 217/2/3
f 220/1/3 217/1/3 219/1/3
f 221/2/3 218/2/3 220/2/3
f 222/1/3 219/1/3 216/1/3
f 222/4/3 220/4/3 219/4/3
f 222/4/3 221/4/3 220/4/3
f 223/4/3 221/4/3 222/4/3
f 224/4/3 221/4/3 223/4/3
f 225/4/3 221/4/3 224/4/3
f 226/2/3 218/2/3 221/2/3
f 226/4/3 221/4/3 225/4/3
f 227/2/3 224/2/3 223/2/3
f 228/4/3 225/4/3 224/4/3
f 228/2/3 224/2/3 227/2/3
f 229/2/3 226/2/3 225/2/3
f 229/4/3 225/4/3 228/4/3
f 230/2/3 227/2/3 223/2/3
f 230/4/3 228/4/3 227/4/3
f 231/2/3 229/2/3 228/2/3
f 231/4/3 228/4/3 230/4/3
f 232/2/3 226/2/3 229/2/3
f 232/2/3 229/2/3 231/2/3
f 233/1/3 222/1/3 216/1/3
f 233/1/3 223/1/3 222/1/3
f 234/2/3 231/2/3 230/2/3
f 234/1/3 223/1/3 233/1/3
f 234/2/3 230/2/3 223/2/3
f 235/4/3 232/4/3 231/4/3
f 235/2/3 231/2/3 234/2/3
f 236/2/3 226/2/3 232/2/3
f 236/4/3 232/4/3 235/4/3
f 237/2/3 218/2/3 226/2/3
f 237/2/3 226/2/3 236/2/3
f 238/1/3 233/1/3 216/1/3
f 238/4/3 235/4/3 234/4/3
f 238/4/3 237/4/3 236/4/3
f 238/4/3 236/4/3 235/4/3
f 238/4/3 234/4/3 233/4/3
f 239/4/3 237/4/3 238/4/3
f 240/2/3 218/2/3 237/2/3
f 240/4/3 237/4/3 239/4/3
f 241/1/3 239/1/3 238/1/3
f 241/1/3 238/1/3 216/1/3
f 242/2/3 240/2/3 239/2/3
f 242/1/3 239/1/3 241/1/3
f 243/2/3 218/2/3 240/2/3
f 243/2/3 240/2/3 242/2/3
f 244/4/3 242/4/3 241/4/3
f 244/1/3 241/1/3 216/1/3
f 244/4/3 243/4/3 242/4/3
f 245/4/3 243/4/3 244/4/3
f 246/2/3 218/2/3 243/2/3
f 246/4/3 243/4/3 245/4/3
f 247/1/3 245/1/3 244/1/3
f 247/1/3 244/1/3 216/1/3
f 248/2/3 246/2/3 245/2/3
f 248/1/3 245/1/3 247/1/3
f 249/2/3 218/2/3 246/2/3
f 249/2/3 246/2/3 248/2/3
f 250/4/3 248/4/3 247/4/3
f 250/4/3 249/4/3 248/4/3
f 251/4/3 249/4/3 250/4/3
f 252/2/3 218/2/3 249/2/3
f 252/4/3 249/4/3 251/4/3
f 253/1/3 247/1/3 216/1/3
f 253/4/3 250/4/3 247/4/3
f 254/1/3 251/1/3 250/1/3
f 254/4/3 250/4/3 253/4/3
f 255/1/3 253/1/3 216/1/3
f 255/1/3 254/1/3 253/1/3
f 256/1/3 251/1/3 254/1/3
f 256/1/3 254/1/3 255/1/3
f 256/2/3 252/2/3 251/2/3
f 257/2/3 218/2/3 252/2/3
f 257/2/3 252/2/3 256/2/3
f 258/1/3 255/1/3 216/1/3
f 258/4/3 256/4/3 255/4/3
f 258/4/3 257/4/3 256/4/3
f 259/4/3 257/4/3 258/4/3
f 260/1/3 259/1/3 258/1/3
f 260/4/3 257/4/3 259/4/3
f 261/4/3 257/4/3 260/4/3
f 262/4/3 257/4/3 261/4/3
f 263/2/3 218/2/3 257/2/3
f 263/4/3 257/4/3 262/4/3
f 264/1/3 260/1/3 258/1/3
f 264/2/3 261/2/3 260/2/3
f 265/4/3 262/4/3 261/4/3
f 265/2/3 261/2/3 264/2/3
f 266/4/3 262/4/3 265/4/3
f 267/4/3 262/4/3 266/4/3
f 268/2/3 263/2/3 262/2/3
f 268/4/3 262/4/3 267/4/3
f 269/2/3 263/2/3 268/2/3
f 270/1/3 264/1/3 258/1/3
f 270/1/3 258/1/3 216/1/3
f 271/4/3 265/4/3 264/4/3
f 271/1/3 264/1/3 270/1/3
f 271/4/3 266/4/3 265/4/3
f 272/2/3 263/2/3 269/2/3
f 272/4/3 269/4/3 268/4/3
f 272/4/3 268/4/3 267/4/3
f 273/2/3 218/2/3 263/2/3
f 273/2/3 263/2/3 272/2/3
f 274/4/3 266/4/3 271/4/3
f 274/4/3 271/4/3 270/4/3
f 275/2/3 267/2/3 266/2/3
f 275/4/3 266/4/3 274/4/3
f 276/4/3 273/4/3 272/4/3
f 276/2/3 267/2/3 275/2/3
f 276/4/3 272/4/3 267/4/3
f 277/4/3 273/4/3 276/4/3
f 278/1/3 270/1/3 216/1/3
f 278/4/3 274/4/3 270/4/3
f 279/2/3 275/2/3 274/2/3
f 279/4/3 274/4/3 278/4/3
f 279/2/3 277/2/3 276/2/3
f 279/2/3 276/2/3 275/2/3
f 280/4/3 273/4/3 277/4/3
f 280/2/3 277/2/3 279/2/3
f 281/2/3 218/2/3 273/2/3
f 281/4/3 273/4/3 280/4/3
f 282/3/3 214/3/3 213/3/3
f 283/5/3 215/5/3 214/5/3
f 283/3/3 214/3/3 282/3/3
f 284/5/3 215/5/3 283/5/3
f 285/1/3 278/1/3 216/1/3
f 285/1/3 279/1/3 278/1/3
f 286/2/3 280/2/3 279/2/3
f 286/1/3 279/1/3 285/1/3
f 286/2/3 281/2/3 280/2/3
f 287/2/3 218/2/3 281/2/3
f 287/2/3 281/2/3 286/2/3
f 288/2/3 212/2/3 211/2/3
f 289/2/3 212/2/3 288/2/3
f 295/5/3 291/5/3 290/5/3
f 296/3/3 292/3/3 291/3/3
f 296/5/3 291/5/3 295/5/3
f 297/3/3 292/3/3 296/3/3
f 298/5/3 294/5/3 293/5/3
f 299/5/3 294/5/3 298/5/3
f 302/2/3 301/2/3 300/2/3
f 303/2/3 301/2/3 302/2/3
f 306/6/3 305/6/3 304/6/3
f 307/6/3 305/6/3 306/6/3
f 310/2/3 309/2/3 308/2/3
f 311/2/3 309/2/3 310/2/3
f 314/2/3 313/2/3 312/2/3
f 315/2/3 313/2/3 314/2/3
f 318/6/3 317/6/3 316/6/3
f 319/6/3 317/6/3 318/6/3
f 322/5/3 320/5/3 319/5/3
f 323/5/3 320/5/3 322/5/3
f 324/6/3 322/6/3 321/6/3
f 325/6/3 322/6/3 324/6/3
f 328/2/3 327/2/3 326/2/3
f 329/2/3 327/2/3 328/2/3
f 332/2/3 331/2/3 330/2/3
f 333/2/3 331/2/3 332/2/3
f 336/2/3 335/2/3 334/2/3
f 337/2/3 335/2/3 336/2/3
f 340/2/3 339/2/3 338/2/3
f 341/2/3 339/2/3 340/2/3
f 344/2/3 343/2/3 342/2/3
f 345/2/3 343/2/3 344/2/3
f 348/2/3 347/2/3 346/2/3
f 349/2/3 347/2/3 348/2/3
f 352/2/3 351/2/3 350/2/3
f 353/2/3 351/2/3 352/2/3
f 356/2/3 355/2/3 354/2/3
f 357/2/3 355/2/3 356/2/3
f 360/2/3 359/2/3 358/2/3
f 361/2/3 359/2/3 360/2/3
f 362/6/4 363/6/4 364/6/4
f 364/6/4 363/6/4 365/6/4
f 365/5/4 366/5/4 368/5/4
f 368/5/4 366/5/4 369/5/4
f 367/6/4 368/6/4 370/6/4
f 370/6/4 368/6/4 371/6/4
f 372/6/4 373/6/4 374/6/4
f 374/6/4 373/6/4 375/6/4
f 376/2/4 377/2/4 378/2/4
f 378/2/4 377/2/4 379/2/4
f 380/2/4 381/2/4 382/2/4
f 382/2/4 381/2/4 383/2/4
f 384/2/4 385/2/4 386/2/4
f 386/2/4 385/2/4 387/2/4
f 388/2/4 389/2/4 390/2/4
f 390/2/4 389/2/4 391/2/4
f 392/2/4 393/2/4 394/2/4
f 394/2/4 393/2/4 395/2/4
f 396/2/4 397/2/4 398/2/4
f 398/2/4 397/2/4 399/2/4
f 400/2/4 401/2/4 402/2/4
f 402/2/4 401/2/4 403/2/4
f 404/2/4 405/2/4 406/2/4
f 406/2/4 405/2/4 407/2/4
f 408/2/4 409/2/4 410/2/4
f 410/2/4 409/2/4 411/2/4
f 412/2/4 413/2/4 414/2/4
f 414/2/4 413/2/4 415/2/4
f 416/2/4 417/2/4 418/2/4
f 418/2/4 417/2/4 419/2/4
f 420/2/4 421/2/4 422/2/4
f 422/2/4 421/2/4 423/2/4
f 424/3/4 425/3/4 428/3/4
f 428/3/4 425/3/4 429/3/4
f 426/3/4 427/3/4 430/3/4
f 430/3/4 427/3/4 431/3/4
f 434/3/4 435/3/4 439/3/4
f 439/3/4 435/3/4 440/3/4
f 436/1/4 437/1/4 441/1/4
f 437/2/4 438/2/4 442/2/4
f 441/1/4 437/1/4 442/1/4
f 442/2/4 438/2/4 443/2/4
f 432/2/4 433/2/4 444/2/4
f 444/2/4 433/2/4 445/2/4
f 448/3/5 447/3/5 446/3/5
f 449/3/5 447/3/5 448/3/5
f 450/3/5 448/3/5 446/3/5
f 450/5/5 449/5/5 448/5/5
f 451/3/5 447/3/5 449/3/5
f 451/5/5 449/5/5 450/5/5
f 452/3/5 450/3/5 446/3/5
f 452/3/5 451/3/5 450/3/5
f 453/3/5 447/3/5 451/3/5
f 453/3/5 451/3/5 452/3/5
f 456/1/5 455/1/5 454/1/5
f 457/1/5 455/1/5 456/1/5
f 460/1/5 459/1/5 458/1/5
f 461/1/5 459/1/5 460/1/5
f 466/2/5 463/2/5 462/2/5
f 467/2/5 463/2/5 466/2/5
f 468/2/5 465/2/5 464/2/5
f 469/2/5 465/2/5 468/2/5
f 474/2/5 471/2/5 470/2/5
f 475/2/5 471/2/5 474/2/5
f 476/2/5 473/2/5 472/2/5
f 477/2/5 473/2/5 476/2/5
f 482/2/5 479/2/5 478/2/5
f 483/2/5 479/2/5 482/2/5
f 484/2/5 481/2/5 480/2/5
f 485/2/5 481/2/5 484/2/5
f 490/2/5 487/2/5 486/2/5
f 491/2/5 487/2/5 490/2/5
f 492/2/5 489/2/5 488/2/5
f 493/2/5 489/2/5 492/2/5
f 498/2/5 495/2/5 494/2/5
f 499/2/5 495/2/5 498/2/5
f 500/2/5 497/2/5 496/2/5
f 501/2/5 497/2/5 500/2/5
f 506/2/5 503/2/5 502/2/5
f 507/2/5 503/2/5 506/2/5
f 508/2/5 505/2/5 504/2/5
f 509/2/5 505/2/5 508/2/5
f 514/2/5 511/2/5 510/2/5
f 515/2/5 511/2/5 514/2/5
f 516/2/5 513/2/5 512/2/5
f 517/2/5 513/2/5 516/2/5
f 522/2/5 519/2/5 518/2/5
f 523/2/5 519/2/5 522/2/5
f 524/2/5 521/2/5 520/2/5
f 525/2/5 521/2/5 524/2/5
f 530/2/5 527/2/5 526/2/5
f 531/2/5 527/2/5 530/2/5
f 532/2/5 529/2/5 528/2/5
f 533/2/5 529/2/5 532/2/5
f 538/2/5 535/2/5 534/2/5
f 539/2/5 535/2/5 538/2/5
f 540/2/5 537/2/5 536/2/5
f 541/2/5 537/2/5 540/2/5
f 546/2/5 543/2/5 542/2/5
f 547/2/5 543/2/5 546/2/5
f 548/2/5 545/2/5 544/2/5
f 549/2/5 545/2/5 548/2/5
f 552/2/5 551/2/5 550/2/5
f 553/2/5 551/2/5 552/2/5
f 554/2/5 552/2/5 550/2/5
f 555/2/5 552/2/5 554/2/5
f 556/2/5 551/2/5 553/2/5
f 557/2/5 551/2/5 556/2/5
f 562/2/5 559/2/5 558/2/5
f 563/2/5 561/2/5 560/2/5
f 564/2/5 562/2/5 558/2/5
f 564/2/5 563/2/5 562/2/5
f 565/2/5 561/2/5 563/2/5
f 565/2/5 563/2/5 564/2/5
f 566/5/6 567/5/6 568/5/6
f 568/5/6 567/5/6 569/5/6
f 570/3/6 571/3/6 572/3/6
f 572/3/6 571/3/6 573/3/6
f 574/2/6 575/2/6 576/2/6
f 576/2/6 575/2/6 577/2/6
f 578/2/6 579/2/6 580/2/6
f 580/2/6 579/2/6 581/2/6
f 582/2/6 583/2/6 584/2/6
f 584/2/6 583/2/6 585/2/6
f 582/2/6 584/2/6 586/2/6
f 586/2/6 584/2/6 587/2/6
f 585/2/6 583/2/6 588/2/6
f 588/2/6 583/2/6 589/2/6
f 582/2/6 586/2/6 590/2/6
f 589/2/6 583/2/6 593/2/6
f 590/2/6 591/2/6 594/2/6
f 592/2/6 593/2/6 595/2/6
f 590/2/6 594/2/6 596/2/6
f 594/2/6 595/2/6 596/2/6
f 582/2/6 590/2/6 596/2/6
f 595/2/6 593/2/6 597/2/6
f 596/2/6 595/2/6 597/2/6
f 593/2/6 583/2/6 597/2/6
f 598/6/6 599/6/6 601/6/6
f 601/6/6 599/6/6 602/6/6
f 600/6/6 601/6/6 604/6/6
f 604/6/6 601/6/6 605/6/6
f 602/6/6 603/6/6 606/6/6
f 606/6/6 603/6/6 607/6/6
f 605/6/6 606/6/6 608/6/6
f 608/6/6 606/6/6 609/6/6
f 610/5/6 611/5/6 612/5/6
f 612/5/6 611/5/6 613/5/6
