# MagicaVoxel @ Ephtracy

# group
o 

# material
mtllib Island.mtl
usemtl palette

# normals
vn -1 0 0
vn 1 0 0
vn 0 0 1
vn 0 0 -1
vn 0 -1 0
vn 0 1 0

# texcoords
vt 0.919922 0.5
vt 0.947266 0.5
vt 0.970703 0.5
vt 0.974609 0.5
vt 0.986328 0.5

# verts
v -3.1 3.8 1.9
v -3.1 3.8 -2.6
v -3.1 4 1.9
v -3.1 4 -2.6
v -3 3.7 1.8
v -3 3.7 -2.5
v -3 3.8 1.8
v -3 3.8 -2.5
v -2.8 0 1.6
v -2.8 0 1.1
v -2.8 0 -1.8
v -2.8 0 -2.3
v -2.8 0.2 1.6
v -2.8 0.2 1.1
v -2.8 0.2 -1.8
v -2.8 0.2 -2.3
v -2.8 0.4 1.4
v -2.8 0.4 -2.1
v -2.8 1.3 1.4
v -2.8 1.3 -2.1
v -2.8 1.5 1.4
v -2.8 1.5 -2.1
v -2.8 2.1 1.4
v -2.8 2.1 -2.1
v -2.8 2.3 1.4
v -2.8 2.3 -2.1
v -2.8 3.5 1.4
v -2.8 3.5 -2.1
v -2.8 3.7 1.6
v -2.8 3.7 -2.3
v -2.1 0.4 1.4
v -2.1 0.4 -2.1
v -2.1 1.3 1.4
v -2.1 1.3 -2.1
v -2.1 1.5 1.4
v -2.1 1.5 -2.1
v -2.1 2.1 1.4
v -2.1 2.1 -2.1
v -2.1 2.3 1.4
v -2.1 2.3 -2.1
v -2.1 3.5 1.4
v -2.1 3.5 -2.1
v -0.0999997 0.4 1.6
v -0.0999997 0.4 1.5
v -0.0999997 0.4 -2.2
v -0.0999997 0.4 -2.3
v -0.0999997 3.5 1.6
v -0.0999997 3.5 1.5
v -0.0999997 3.5 -2.2
v -0.0999997 3.5 -2.3
v 2.3 0 1.6
v 2.3 0 1.1
v 2.3 0 -1.8
v 2.3 0 -2.3
v 2.3 0.2 1.6
v 2.3 0.2 1.5
v 2.3 0.2 1.1
v 2.3 0.2 -1.8
v 2.3 0.2 -2.2
v 2.3 0.2 -2.3
v 2.6 0.4 1.6
v 2.6 0.4 1.5
v 2.6 0.4 -2.2
v 2.6 0.4 -2.3
v 2.6 3.5 1.6
v 2.6 3.5 1.5
v 2.6 3.5 -2.2
v 2.6 3.5 -2.3
v -2.6 0.4 1.6
v -2.6 0.4 1.5
v -2.6 0.4 -2.2
v -2.6 0.4 -2.3
v -2.6 3.5 1.6
v -2.6 3.5 1.5
v -2.6 3.5 -2.2
v -2.6 3.5 -2.3
v -2.3 0 1.6
v -2.3 0 1.1
v -2.3 0 -1.8
v -2.3 0 -2.3
v -2.3 0.2 1.6
v -2.3 0.2 1.5
v -2.3 0.2 1.1
v -2.3 0.2 -1.8
v -2.3 0.2 -2.2
v -2.3 0.2 -2.3
v 0.1 0.4 1.6
v 0.1 0.4 1.5
v 0.1 0.4 -2.2
v 0.1 0.4 -2.3
v 0.1 3.5 1.6
v 0.1 3.5 1.5
v 0.1 3.5 -2.2
v 0.1 3.5 -2.3
v 2.1 0.4 1.4
v 2.1 0.4 -2.1
v 2.1 1.3 1.4
v 2.1 1.3 -2.1
v 2.1 1.5 1.4
v 2.1 1.5 -2.1
v 2.1 2.1 1.4
v 2.1 2.1 -2.1
v 2.1 2.3 1.4
v 2.1 2.3 -2.1
v 2.1 3.5 1.4
v 2.1 3.5 -2.1
v 2.8 0 1.6
v 2.8 0 1.1
v 2.8 0 -1.8
v 2.8 0 -2.3
v 2.8 0.2 1.6
v 2.8 0.2 1.1
v 2.8 0.2 -1.8
v 2.8 0.2 -2.3
v 2.8 0.4 1.4
v 2.8 0.4 -2.1
v 2.8 1.3 1.4
v 2.8 1.3 -2.1
v 2.8 1.5 1.4
v 2.8 1.5 -2.1
v 2.8 2.1 1.4
v 2.8 2.1 -2.1
v 2.8 2.3 1.4
v 2.8 2.3 -2.1
v 2.8 3.5 1.4
v 2.8 3.5 -2.1
v 2.8 3.7 1.6
v 2.8 3.7 -2.3
v 3 3.7 1.8
v 3 3.7 -2.5
v 3 3.8 1.8
v 3 3.8 -2.5
v 3.1 3.8 1.9
v 3.1 3.8 -2.6
v 3.1 4 1.9
v 3.1 4 -2.6
v -3.1 3.8 1.9
v -3.1 4 1.9
v 3.1 3.8 1.9
v 3.1 4 1.9
v -3 3.7 1.8
v -3 3.8 1.8
v 3 3.7 1.8
v 3 3.8 1.8
v -2.8 0 1.6
v -2.8 0.2 1.6
v -2.8 3.7 1.6
v -2.6 0.4 1.6
v -2.6 3.5 1.6
v -2.3 0 1.6
v -2.3 0.2 1.6
v -0.0999997 0.4 1.6
v -0.0999997 3.5 1.6
v 0.1 0.4 1.6
v 0.1 3.5 1.6
v 2.3 0 1.6
v 2.3 0.2 1.6
v 2.6 0.4 1.6
v 2.6 3.5 1.6
v 2.8 0 1.6
v 2.8 0.2 1.6
v 2.8 3.7 1.6
v -2.6 0.4 1.5
v -2.6 3.5 1.5
v -0.0999997 0.4 1.5
v -0.0999997 3.5 1.5
v 0.1 0.4 1.5
v 0.1 3.5 1.5
v 2.6 0.4 1.5
v 2.6 3.5 1.5
v -2.8 0 -1.8
v -2.8 0.2 -1.8
v -2.7 0.2 -1.8
v -2.3 0 -1.8
v -2.3 0.2 -1.8
v 2.3 0 -1.8
v 2.3 0.2 -1.8
v 2.7 0.2 -1.8
v 2.8 0 -1.8
v 2.8 0.2 -1.8
v -2.8 0.4 -2.1
v -2.8 1.3 -2.1
v -2.8 1.5 -2.1
v -2.8 2.1 -2.1
v -2.8 2.3 -2.1
v -2.8 3.5 -2.1
v -2.7 0.4 -2.1
v -2.7 3.5 -2.1
v -2.6 0.4 -2.1
v -2.6 1.3 -2.1
v -2.6 1.5 -2.1
v -2.6 2.1 -2.1
v -2.6 2.3 -2.1
v -2.6 3.5 -2.1
v -2.1 0.4 -2.1
v -2.1 1.3 -2.1
v -2.1 1.5 -2.1
v -2.1 2.1 -2.1
v -2.1 2.3 -2.1
v -2.1 3.5 -2.1
v 2.1 0.4 -2.1
v 2.1 1.3 -2.1
v 2.1 1.5 -2.1
v 2.1 2.1 -2.1
v 2.1 2.3 -2.1
v 2.1 3.5 -2.1
v 2.6 0.4 -2.1
v 2.6 1.3 -2.1
v 2.6 1.5 -2.1
v 2.6 2.1 -2.1
v 2.6 2.3 -2.1
v 2.6 3.5 -2.1
v 2.7 0.4 -2.1
v 2.7 3.5 -2.1
v 2.8 0.4 -2.1
v 2.8 1.3 -2.1
v 2.8 1.5 -2.1
v 2.8 2.1 -2.1
v 2.8 2.3 -2.1
v 2.8 3.5 -2.1
v -2.8 0.4 1.4
v -2.8 1.3 1.4
v -2.8 1.5 1.4
v -2.8 2.1 1.4
v -2.8 2.3 1.4
v -2.8 3.5 1.4
v -2.7 0.4 1.4
v -2.7 1.3 1.4
v -2.7 1.5 1.4
v -2.7 2.1 1.4
v -2.7 2.3 1.4
v -2.7 3.5 1.4
v -2.6 1.3 1.4
v -2.6 1.5 1.4
v -2.6 2.1 1.4
v -2.6 2.3 1.4
v -2.1 0.4 1.4
v -2.1 1.3 1.4
v -2.1 1.5 1.4
v -2.1 2.1 1.4
v -2.1 2.3 1.4
v -2.1 3.5 1.4
v 2.1 0.4 1.4
v 2.1 1.3 1.4
v 2.1 1.5 1.4
v 2.1 2.1 1.4
v 2.1 2.3 1.4
v 2.1 3.5 1.4
v 2.6 1.3 1.4
v 2.6 1.5 1.4
v 2.6 2.1 1.4
v 2.6 2.3 1.4
v 2.7 0.4 1.4
v 2.7 1.3 1.4
v 2.7 1.5 1.4
v 2.7 2.1 1.4
v 2.7 2.3 1.4
v 2.7 3.5 1.4
v 2.8 0.4 1.4
v 2.8 1.3 1.4
v 2.8 1.5 1.4
v 2.8 2.1 1.4
v 2.8 2.3 1.4
v 2.8 3.5 1.4
v -2.8 0 1.1
v -2.8 0.2 1.1
v -2.7 0.2 1.1
v -2.3 0 1.1
v -2.3 0.2 1.1
v 2.3 0 1.1
v 2.3 0.2 1.1
v 2.7 0.2 1.1
v 2.8 0 1.1
v 2.8 0.2 1.1
v -2.6 0.4 -2.2
v -2.6 3.5 -2.2
v -0.0999997 0.4 -2.2
v -0.0999997 3.5 -2.2
v 0.1 0.4 -2.2
v 0.1 3.5 -2.2
v 2.6 0.4 -2.2
v 2.6 3.5 -2.2
v -2.8 0 -2.3
v -2.8 0.2 -2.3
v -2.8 3.7 -2.3
v -2.6 0.4 -2.3
v -2.6 3.5 -2.3
v -2.3 0 -2.3
v -2.3 0.2 -2.3
v -0.0999997 0.4 -2.3
v -0.0999997 3.5 -2.3
v 0.1 0.4 -2.3
v 0.1 3.5 -2.3
v 2.3 0 -2.3
v 2.3 0.2 -2.3
v 2.6 0.4 -2.3
v 2.6 3.5 -2.3
v 2.8 0 -2.3
v 2.8 0.2 -2.3
v 2.8 3.7 -2.3
v -3 3.7 -2.5
v -3 3.8 -2.5
v 3 3.7 -2.5
v 3 3.8 -2.5
v -3.1 3.8 -2.6
v -3.1 4 -2.6
v 3.1 3.8 -2.6
v 3.1 4 -2.6
v -2.8 0 1.6
v -2.3 0 1.6
v 2.3 0 1.6
v 2.8 0 1.6
v -2.8 0 1.1
v -2.3 0 1.1
v 2.3 0 1.1
v 2.8 0 1.1
v -2.8 0 -1.8
v -2.3 0 -1.8
v 2.3 0 -1.8
v 2.8 0 -1.8
v -2.8 0 -2.3
v -2.3 0 -2.3
v 2.3 0 -2.3
v 2.8 0 -2.3
v -2.3 0.2 1.6
v 2.3 0.2 1.6
v -2.3 0.2 1.5
v 2.3 0.2 1.5
v -2.8 0.2 1.1
v -2.7 0.2 1.1
v -2.3 0.2 1.1
v 2.3 0.2 1.1
v 2.7 0.2 1.1
v 2.8 0.2 1.1
v -2.8 0.2 -1.8
v -2.7 0.2 -1.8
v -2.3 0.2 -1.8
v 2.3 0.2 -1.8
v 2.7 0.2 -1.8
v 2.8 0.2 -1.8
v -2.3 0.2 -2.2
v 2.3 0.2 -2.2
v -2.3 0.2 -2.3
v 2.3 0.2 -2.3
v -2.8 1.3 1.4
v -2.7 1.3 1.4
v -2.6 1.3 1.4
v -2.1 1.3 1.4
v 2.1 1.3 1.4
v 2.6 1.3 1.4
v 2.7 1.3 1.4
v 2.8 1.3 1.4
v -2.8 1.3 -2.1
v -2.6 1.3 -2.1
v -2.1 1.3 -2.1
v 2.1 1.3 -2.1
v 2.6 1.3 -2.1
v 2.8 1.3 -2.1
v -2.8 2.1 1.4
v -2.7 2.1 1.4
v -2.6 2.1 1.4
v -2.1 2.1 1.4
v 2.1 2.1 1.4
v 2.6 2.1 1.4
v 2.7 2.1 1.4
v 2.8 2.1 1.4
v -2.8 2.1 -2.1
v -2.6 2.1 -2.1
v -2.1 2.1 -2.1
v 2.1 2.1 -2.1
v 2.6 2.1 -2.1
v 2.8 2.1 -2.1
v -2.6 3.5 1.6
v -0.0999997 3.5 1.6
v 0.1 3.5 1.6
v 2.6 3.5 1.6
v -2.6 3.5 1.5
v -0.0999997 3.5 1.5
v 0.1 3.5 1.5
v 2.6 3.5 1.5
v -2.8 3.5 1.4
v -2.7 3.5 1.4
v -2.1 3.5 1.4
v 2.1 3.5 1.4
v 2.7 3.5 1.4
v 2.8 3.5 1.4
v -2.8 3.5 -2.1
v -2.7 3.5 -2.1
v -2.6 3.5 -2.1
v -2.1 3.5 -2.1
v 2.1 3.5 -2.1
v 2.6 3.5 -2.1
v 2.7 3.5 -2.1
v 2.8 3.5 -2.1
v -2.6 3.5 -2.2
v -0.0999997 3.5 -2.2
v 0.1 3.5 -2.2
v 2.6 3.5 -2.2
v -2.6 3.5 -2.3
v -0.0999997 3.5 -2.3
v 0.1 3.5 -2.3
v 2.6 3.5 -2.3
v -3 3.7 1.8
v 3 3.7 1.8
v -2.8 3.7 1.6
v 2.8 3.7 1.6
v -2.8 3.7 -2.3
v 2.8 3.7 -2.3
v -3 3.7 -2.5
v 3 3.7 -2.5
v -3.1 3.8 1.9
v 3.1 3.8 1.9
v -3 3.8 1.8
v 3 3.8 1.8
v -3 3.8 -2.5
v 3 3.8 -2.5
v -3.1 3.8 -2.6
v 3.1 3.8 -2.6
v -2.6 0.4 1.6
v -0.0999997 0.4 1.6
v 0.1 0.4 1.6
v 2.6 0.4 1.6
v -2.6 0.4 1.5
v -0.0999997 0.4 1.5
v 0.1 0.4 1.5
v 2.6 0.4 1.5
v -2.8 0.4 1.4
v -2.7 0.4 1.4
v -2.1 0.4 1.4
v 2.1 0.4 1.4
v 2.7 0.4 1.4
v 2.8 0.4 1.4
v -2.8 0.4 -2.1
v -2.7 0.4 -2.1
v -2.6 0.4 -2.1
v -2.1 0.4 -2.1
v 2.1 0.4 -2.1
v 2.6 0.4 -2.1
v 2.7 0.4 -2.1
v 2.8 0.4 -2.1
v -2.6 0.4 -2.2
v -0.0999997 0.4 -2.2
v 0.1 0.4 -2.2
v 2.6 0.4 -2.2
v -2.6 0.4 -2.3
v -0.0999997 0.4 -2.3
v 0.1 0.4 -2.3
v 2.6 0.4 -2.3
v -2.8 1.5 1.4
v -2.7 1.5 1.4
v -2.6 1.5 1.4
v -2.1 1.5 1.4
v 2.1 1.5 1.4
v 2.6 1.5 1.4
v 2.7 1.5 1.4
v 2.8 1.5 1.4
v -2.8 1.5 -2.1
v -2.6 1.5 -2.1
v -2.1 1.5 -2.1
v 2.1 1.5 -2.1
v 2.6 1.5 -2.1
v 2.8 1.5 -2.1
v -2.8 2.3 1.4
v -2.7 2.3 1.4
v -2.6 2.3 1.4
v -2.1 2.3 1.4
v 2.1 2.3 1.4
v 2.6 2.3 1.4
v 2.7 2.3 1.4
v 2.8 2.3 1.4
v -2.8 2.3 -2.1
v -2.6 2.3 -2.1
v -2.1 2.3 -2.1
v 2.1 2.3 -2.1
v 2.6 2.3 -2.1
v 2.8 2.3 -2.1
v -3.1 4 1.9
v 3.1 4 1.9
v -3.1 4 -2.6
v 3.1 4 -2.6

# faces
f 3/1/1 2/1/1 1/1/1
f 4/1/1 2/1/1 3/1/1
f 7/1/1 6/1/1 5/1/1
f 8/1/1 6/1/1 7/1/1
f 13/5/1 10/5/1 9/5/1
f 14/5/1 10/5/1 13/5/1
f 15/5/1 12/5/1 11/5/1
f 16/5/1 12/5/1 15/5/1
f 17/4/1 14/4/1 13/4/1
f 17/4/1 15/4/1 14/4/1
f 17/4/1 16/4/1 15/4/1
f 18/4/1 16/4/1 17/4/1
f 19/4/1 17/4/1 13/4/1
f 20/4/1 16/4/1 18/4/1
f 21/4/1 19/4/1 13/4/1
f 21/4/1 20/4/1 19/4/1
f 22/4/1 16/4/1 20/4/1
f 22/4/1 20/4/1 21/4/1
f 23/4/1 21/4/1 13/4/1
f 24/4/1 16/4/1 22/4/1
f 25/4/1 23/4/1 13/4/1
f 25/4/1 24/4/1 23/4/1
f 26/4/1 16/4/1 24/4/1
f 26/4/1 24/4/1 25/4/1
f 27/4/1 25/4/1 13/4/1
f 28/4/1 16/4/1 26/4/1
f 29/4/1 27/4/1 13/4/1
f 29/4/1 28/4/1 27/4/1
f 30/4/1 16/4/1 28/4/1
f 30/4/1 28/4/1 29/4/1
f 33/2/1 32/2/1 31/2/1
f 34/2/1 32/2/1 33/2/1
f 37/2/1 36/2/1 35/2/1
f 38/2/1 36/2/1 37/2/1
f 41/2/1 40/2/1 39/2/1
f 42/2/1 40/2/1 41/2/1
f 47/4/1 44/4/1 43/4/1
f 48/4/1 44/4/1 47/4/1
f 49/4/1 46/4/1 45/4/1
f 50/4/1 46/4/1 49/4/1
f 55/5/1 52/5/1 51/5/1
f 56/5/1 52/5/1 55/5/1
f 57/5/1 52/5/1 56/5/1
f 58/5/1 54/5/1 53/5/1
f 59/5/1 54/5/1 58/5/1
f 60/5/1 54/5/1 59/5/1
f 65/4/1 62/4/1 61/4/1
f 66/4/1 62/4/1 65/4/1
f 67/4/1 64/4/1 63/4/1
f 68/4/1 64/4/1 67/4/1
f 69/4/2 70/4/2 73/4/2
f 73/4/2 70/4/2 74/4/2
f 71/4/2 72/4/2 75/4/2
f 75/4/2 72/4/2 76/4/2
f 77/5/2 78/5/2 81/5/2
f 81/5/2 78/5/2 82/5/2
f 82/5/2 78/5/2 83/5/2
f 79/5/2 80/5/2 84/5/2
f 84/5/2 80/5/2 85/5/2
f 85/5/2 80/5/2 86/5/2
f 87/4/2 88/4/2 91/4/2
f 91/4/2 88/4/2 92/4/2
f 89/4/2 90/4/2 93/4/2
f 93/4/2 90/4/2 94/4/2
f 95/2/2 96/2/2 97/2/2
f 97/2/2 96/2/2 98/2/2
f 99/2/2 100/2/2 101/2/2
f 101/2/2 100/2/2 102/2/2
f 103/2/2 104/2/2 105/2/2
f 105/2/2 104/2/2 106/2/2
f 107/5/2 108/5/2 111/5/2
f 111/5/2 108/5/2 112/5/2
f 109/5/2 110/5/2 113/5/2
f 113/5/2 110/5/2 114/5/2
f 111/4/2 112/4/2 115/4/2
f 112/4/2 113/4/2 115/4/2
f 113/4/2 114/4/2 115/4/2
f 115/4/2 114/4/2 116/4/2
f 111/4/2 115/4/2 117/4/2
f 116/4/2 114/4/2 118/4/2
f 111/4/2 117/4/2 119/4/2
f 117/4/2 118/4/2 119/4/2
f 118/4/2 114/4/2 120/4/2
f 119/4/2 118/4/2 120/4/2
f 111/4/2 119/4/2 121/4/2
f 120/4/2 114/4/2 122/4/2
f 111/4/2 121/4/2 123/4/2
f 121/4/2 122/4/2 123/4/2
f 122/4/2 114/4/2 124/4/2
f 123/4/2 122/4/2 124/4/2
f 111/4/2 123/4/2 125/4/2
f 124/4/2 114/4/2 126/4/2
f 111/4/2 125/4/2 127/4/2
f 125/4/2 126/4/2 127/4/2
f 126/4/2 114/4/2 128/4/2
f 127/4/2 126/4/2 128/4/2
f 129/1/2 130/1/2 131/1/2
f 131/1/2 130/1/2 132/1/2
f 133/1/2 134/1/2 135/1/2
f 135/1/2 134/1/2 136/1/2
f 139/1/3 138/1/3 137/1/3
f 140/1/3 138/1/3 139/1/3
f 143/1/3 142/1/3 141/1/3
f 144/1/3 142/1/3 143/1/3
f 148/4/3 147/4/3 146/4/3
f 149/4/3 147/4/3 148/4/3
f 150/5/3 146/5/3 145/5/3
f 151/4/3 148/4/3 146/4/3
f 151/5/3 146/5/3 150/5/3
f 152/4/3 148/4/3 151/4/3
f 153/4/3 147/4/3 149/4/3
f 154/4/3 152/4/3 151/4/3
f 154/4/3 153/4/3 152/4/3
f 155/4/3 147/4/3 153/4/3
f 155/4/3 153/4/3 154/4/3
f 157/4/3 154/4/3 151/4/3
f 158/4/3 154/4/3 157/4/3
f 159/4/3 147/4/3 155/4/3
f 160/5/3 157/5/3 156/5/3
f 161/4/3 158/4/3 157/4/3
f 161/5/3 157/5/3 160/5/3
f 161/4/3 159/4/3 158/4/3
f 162/4/3 147/4/3 159/4/3
f 162/4/3 159/4/3 161/4/3
f 165/3/3 164/3/3 163/3/3
f 166/3/3 164/3/3 165/3/3
f 169/3/3 168/3/3 167/3/3
f 170/3/3 168/3/3 169/3/3
f 173/5/3 172/5/3 171/5/3
f 174/5/3 173/5/3 171/5/3
f 175/5/3 173/5/3 174/5/3
f 178/5/3 177/5/3 176/5/3
f 179/5/3 178/5/3 176/5/3
f 180/5/3 178/5/3 179/5/3
f 187/4/3 182/4/3 181/4/3
f 188/4/3 186/4/3 185/4/3
f 189/4/3 182/4/3 187/4/3
f 190/4/3 182/4/3 189/4/3
f 191/4/3 184/4/3 183/4/3
f 192/4/3 184/4/3 191/4/3
f 193/4/3 188/4/3 185/4/3
f 194/4/3 188/4/3 193/4/3
f 195/3/3 190/3/3 189/3/3
f 196/3/3 190/3/3 195/3/3
f 197/3/3 192/3/3 191/3/3
f 198/3/3 192/3/3 197/3/3
f 199/3/3 194/3/3 193/3/3
f 200/3/3 194/3/3 199/3/3
f 207/3/3 202/3/3 201/3/3
f 208/3/3 202/3/3 207/3/3
f 209/3/3 204/3/3 203/3/3
f 210/3/3 204/3/3 209/3/3
f 211/3/3 206/3/3 205/3/3
f 212/3/3 206/3/3 211/3/3
f 213/4/3 208/4/3 207/4/3
f 214/4/3 212/4/3 211/4/3
f 215/4/3 208/4/3 213/4/3
f 216/4/3 208/4/3 215/4/3
f 217/4/3 210/4/3 209/4/3
f 218/4/3 210/4/3 217/4/3
f 219/4/3 214/4/3 211/4/3
f 220/4/3 214/4/3 219/4/3
f 221/4/4 222/4/4 227/4/4
f 227/4/4 222/4/4 228/4/4
f 223/4/4 224/4/4 229/4/4
f 229/4/4 224/4/4 230/4/4
f 225/4/4 226/4/4 231/4/4
f 231/4/4 226/4/4 232/4/4
f 227/3/4 228/3/4 233/3/4
f 229/3/4 230/3/4 234/3/4
f 234/3/4 230/3/4 235/3/4
f 231/3/4 232/3/4 236/3/4
f 227/3/4 233/3/4 237/3/4
f 237/3/4 233/3/4 238/3/4
f 234/3/4 235/3/4 239/3/4
f 239/3/4 235/3/4 240/3/4
f 236/3/4 232/3/4 241/3/4
f 241/3/4 232/3/4 242/3/4
f 243/3/4 244/3/4 249/3/4
f 245/3/4 246/3/4 250/3/4
f 250/3/4 246/3/4 251/3/4
f 247/3/4 248/3/4 252/3/4
f 243/3/4 249/3/4 253/3/4
f 253/3/4 249/3/4 254/3/4
f 250/3/4 251/3/4 255/3/4
f 255/3/4 251/3/4 256/3/4
f 252/3/4 248/3/4 257/3/4
f 257/3/4 248/3/4 258/3/4
f 253/4/4 254/4/4 259/4/4
f 259/4/4 254/4/4 260/4/4
f 255/4/4 256/4/4 261/4/4
f 261/4/4 256/4/4 262/4/4
f 257/4/4 258/4/4 263/4/4
f 263/4/4 258/4/4 264/4/4
f 265/5/4 266/5/4 267/5/4
f 265/5/4 267/5/4 268/5/4
f 268/5/4 267/5/4 269/5/4
f 270/5/4 271/5/4 272/5/4
f 270/5/4 272/5/4 273/5/4
f 273/5/4 272/5/4 274/5/4
f 275/3/4 276/3/4 277/3/4
f 277/3/4 276/3/4 278/3/4
f 279/3/4 280/3/4 281/3/4
f 281/3/4 280/3/4 282/3/4
f 284/4/4 285/4/4 286/4/4
f 286/4/4 285/4/4 287/4/4
f 283/5/4 284/5/4 288/5/4
f 284/4/4 286/4/4 289/4/4
f 288/5/4 284/5/4 289/5/4
f 289/4/4 286/4/4 290/4/4
f 287/4/4 285/4/4 291/4/4
f 289/4/4 290/4/4 292/4/4
f 290/4/4 291/4/4 292/4/4
f 291/4/4 285/4/4 293/4/4
f 292/4/4 291/4/4 293/4/4
f 289/4/4 292/4/4 295/4/4
f 295/4/4 292/4/4 296/4/4
f 293/4/4 285/4/4 297/4/4
f 294/5/4 295/5/4 298/5/4
f 295/4/4 296/4/4 299/4/4
f 298/5/4 295/5/4 299/5/4
f 296/4/4 297/4/4 299/4/4
f 297/4/4 285/4/4 300/4/4
f 299/4/4 297/4/4 300/4/4
f 301/1/4 302/1/4 303/1/4
f 303/1/4 302/1/4 304/1/4
f 305/1/4 306/1/4 307/1/4
f 307/1/4 306/1/4 308/1/4
f 313/5/5 310/5/5 309/5/5
f 314/5/5 310/5/5 313/5/5
f 315/5/5 312/5/5 311/5/5
f 316/5/5 312/5/5 315/5/5
f 321/5/5 318/5/5 317/5/5
f 322/5/5 318/5/5 321/5/5
f 323/5/5 320/5/5 319/5/5
f 324/5/5 320/5/5 323/5/5
f 327/4/5 326/4/5 325/4/5
f 328/4/5 326/4/5 327/4/5
f 331/3/5 328/3/5 327/3/5
f 332/3/5 328/3/5 331/3/5
f 335/4/5 330/4/5 329/4/5
f 336/3/5 332/3/5 331/3/5
f 336/4/5 330/4/5 335/4/5
f 336/3/5 331/3/5 330/3/5
f 336/3/5 333/3/5 332/3/5
f 337/3/5 333/3/5 336/3/5
f 338/3/5 333/3/5 337/3/5
f 339/4/5 334/4/5 333/4/5
f 339/3/5 333/3/5 338/3/5
f 340/4/5 334/4/5 339/4/5
f 341/3/5 338/3/5 337/3/5
f 342/3/5 338/3/5 341/3/5
f 343/4/5 342/4/5 341/4/5
f 344/4/5 342/4/5 343/4/5
f 353/4/5 346/4/5 345/4/5
f 353/4/5 347/4/5 346/4/5
f 354/3/5 348/3/5 347/3/5
f 354/4/5 347/4/5 353/4/5
f 355/3/5 348/3/5 354/3/5
f 356/3/5 350/3/5 349/3/5
f 357/4/5 352/4/5 351/4/5
f 357/3/5 350/3/5 356/3/5
f 357/4/5 351/4/5 350/4/5
f 358/4/5 352/4/5 357/4/5
f 367/4/5 360/4/5 359/4/5
f 367/4/5 361/4/5 360/4/5
f 368/3/5 362/3/5 361/3/5
f 368/4/5 361/4/5 367/4/5
f 369/3/5 362/3/5 368/3/5
f 370/3/5 364/3/5 363/3/5
f 371/4/5 366/4/5 365/4/5
f 371/3/5 364/3/5 370/3/5
f 371/4/5 365/4/5 364/4/5
f 372/4/5 366/4/5 371/4/5
f 377/4/5 374/4/5 373/4/5
f 378/4/5 374/4/5 377/4/5
f 379/4/5 376/4/5 375/4/5
f 380/4/5 376/4/5 379/4/5
f 387/4/5 382/4/5 381/4/5
f 388/3/5 383/3/5 382/3/5
f 388/4/5 382/4/5 387/4/5
f 389/3/5 383/3/5 388/3/5
f 390/3/5 383/3/5 389/3/5
f 391/3/5 385/3/5 384/3/5
f 392/3/5 385/3/5 391/3/5
f 393/4/5 386/4/5 385/4/5
f 393/3/5 385/3/5 392/3/5
f 394/4/5 386/4/5 393/4/5
f 399/4/5 396/4/5 395/4/5
f 400/4/5 396/4/5 399/4/5
f 401/4/5 398/4/5 397/4/5
f 402/4/5 398/4/5 401/4/5
f 405/1/5 404/1/5 403/1/5
f 406/1/5 404/1/5 405/1/5
f 407/1/5 405/1/5 403/1/5
f 408/1/5 404/1/5 406/1/5
f 409/1/5 407/1/5 403/1/5
f 409/1/5 408/1/5 407/1/5
f 410/1/5 404/1/5 408/1/5
f 410/1/5 408/1/5 409/1/5
f 413/1/5 412/1/5 411/1/5
f 414/1/5 412/1/5 413/1/5
f 415/1/5 413/1/5 411/1/5
f 416/1/5 412/1/5 414/1/5
f 417/1/5 415/1/5 411/1/5
f 417/1/5 416/1/5 415/1/5
f 418/1/5 412/1/5 416/1/5
f 418/1/5 416/1/5 417/1/5
f 419/4/6 420/4/6 423/4/6
f 423/4/6 420/4/6 424/4/6
f 421/4/6 422/4/6 425/4/6
f 425/4/6 422/4/6 426/4/6
f 427/4/6 428/4/6 433/4/6
f 428/2/6 429/2/6 434/2/6
f 433/4/6 428/4/6 434/4/6
f 434/2/6 429/2/6 435/2/6
f 435/2/6 429/2/6 436/2/6
f 430/2/6 431/2/6 437/2/6
f 437/2/6 431/2/6 438/2/6
f 431/4/6 432/4/6 439/4/6
f 438/2/6 431/2/6 439/2/6
f 439/4/6 432/4/6 440/4/6
f 441/4/6 442/4/6 445/4/6
f 445/4/6 442/4/6 446/4/6
f 443/4/6 444/4/6 447/4/6
f 447/4/6 444/4/6 448/4/6
f 449/4/6 450/4/6 457/4/6
f 450/4/6 451/4/6 457/4/6
f 451/3/6 452/3/6 458/3/6
f 457/4/6 451/4/6 458/4/6
f 458/3/6 452/3/6 459/3/6
f 453/3/6 454/3/6 460/3/6
f 455/4/6 456/4/6 461/4/6
f 460/3/6 454/3/6 461/3/6
f 454/4/6 455/4/6 461/4/6
f 461/4/6 456/4/6 462/4/6
f 463/4/6 464/4/6 471/4/6
f 464/4/6 465/4/6 471/4/6
f 465/3/6 466/3/6 472/3/6
f 471/4/6 465/4/6 472/4/6
f 472/3/6 466/3/6 473/3/6
f 467/3/6 468/3/6 474/3/6
f 469/4/6 470/4/6 475/4/6
f 474/3/6 468/3/6 475/3/6
f 468/4/6 469/4/6 475/4/6
f 475/4/6 470/4/6 476/4/6
f 477/1/6 478/1/6 479/1/6
f 479/1/6 478/1/6 480/1/6
