# MagicaVoxel @ Ephtracy

# group
o 

# material
mtllib Oven.Doorvox.mtl
usemtl palette

# normals
vn -1 0 0
vn 1 0 0
vn 0 0 1
vn 0 0 -1
vn 0 -1 0
vn 0 1 0

# texcoords
vt 0.916016 0.5
vt 0.939453 0.5
vt 0.974609 0.5
vt 0.986328 0.5
vt 0.990234 0.5
vt 0.994141 0.5

# verts
v -1.7 0.3 1.3
v -1.7 0.3 1.2
v -1.7 0.4 1.2
v -1.7 0.4 1
v -1.7 3 1.3
v -1.7 3 1.2
v -1.7 3.1 1.2
v -1.7 3.1 1
v -1.6 0.3 1.2
v -1.6 0.3 1
v -1.6 0.4 1.2
v -1.6 0.4 1
v -1.4 2.4 1
v -1.4 2.4 0.9
v -1.4 2.6 1.3
v -1.4 2.6 1.2
v -1.4 2.8 1.3
v -1.4 2.8 1.2
v -1.4 3 1
v -1.4 3 0.9
v -1.3 2.6 1.4
v -1.3 2.6 1.3
v -1.3 2.8 1.4
v -1.3 2.8 1.3
v 1.2 2.6 1.3
v 1.2 2.6 1.2
v 1.2 2.8 1.3
v 1.2 2.8 1.2
v 1.3 0.5 1.2
v 1.3 0.5 1.1
v 1.3 2.3 1.2
v 1.3 2.3 1.1
v 1.4 0.4 1
v 1.4 0.4 0.9
v 1.4 2.4 1
v 1.4 2.4 0.9
v 1.5 0.3 1.2
v 1.5 0.3 1
v 1.5 0.4 1.3
v 1.5 0.4 1.2
v 1.5 0.4 1.1
v 1.5 0.4 1
v 1.5 0.5 1.3
v 1.5 0.5 1.2
v 1.5 2.9 1.3
v 1.5 2.9 1.2
v 1.5 3 1.3
v 1.5 3 1.2
v 1.6 0.5 1.3
v 1.6 0.5 1.2
v 1.6 2.9 1.3
v 1.6 2.9 1.2
v -1.6 0.5 1.3
v -1.6 0.5 1.2
v -1.6 2.9 1.3
v -1.6 2.9 1.2
v -1.5 0.3 1.2
v -1.5 0.3 1
v -1.5 0.4 1.3
v -1.5 0.4 1.2
v -1.5 0.4 1.1
v -1.5 0.4 1
v -1.5 0.5 1.3
v -1.5 0.5 1.2
v -1.5 2.9 1.3
v -1.5 2.9 1.2
v -1.5 3 1.3
v -1.5 3 1.2
v -1.3 0.5 1.2
v -1.3 0.5 1.1
v -1.3 2.3 1.2
v -1.3 2.3 1.1
v -1.2 2.6 1.3
v -1.2 2.6 1.2
v -1.2 2.8 1.3
v -1.2 2.8 1.2
v 1.3 2.6 1.4
v 1.3 2.6 1.3
v 1.3 2.8 1.4
v 1.3 2.8 1.3
v 1.4 2.6 1.3
v 1.4 2.6 1.2
v 1.4 2.8 1.3
v 1.4 2.8 1.2
v 1.5 0.4 1
v 1.5 0.4 0.9
v 1.5 3 1
v 1.5 3 0.9
v 1.6 0.3 1.2
v 1.6 0.3 1
v 1.6 0.4 1.2
v 1.6 0.4 1
v 1.7 0.3 1.3
v 1.7 0.3 1.2
v 1.7 0.4 1.2
v 1.7 0.4 1
v 1.7 3 1.3
v 1.7 3 1.2
v 1.7 3.1 1.2
v 1.7 3.1 1
v -1.3 2.6 1.4
v -1.3 2.8 1.4
v -1.1 2.6 1.4
v -1.1 2.8 1.4
v 1.1 2.6 1.4
v 1.1 2.8 1.4
v 1.3 2.6 1.4
v 1.3 2.8 1.4
v -1.7 0.3 1.3
v -1.7 3 1.3
v -1.6 0.5 1.3
v -1.6 2.9 1.3
v -1.5 0.4 1.3
v -1.5 0.5 1.3
v -1.5 2.9 1.3
v -1.5 3 1.3
v -1.4 2.6 1.3
v -1.4 2.8 1.3
v -1.3 2.6 1.3
v -1.3 2.8 1.3
v 1.3 2.6 1.3
v 1.3 2.8 1.3
v 1.4 2.6 1.3
v 1.4 2.8 1.3
v 1.5 0.4 1.3
v 1.5 0.5 1.3
v 1.5 2.9 1.3
v 1.5 3 1.3
v 1.6 0.5 1.3
v 1.6 2.9 1.3
v 1.7 0.3 1.3
v 1.7 3 1.3
v -1.7 3 1.2
v -1.7 3.1 1.2
v -1.6 0.5 1.2
v -1.6 2.9 1.2
v -1.5 0.4 1.2
v -1.5 0.5 1.2
v -1.5 2.9 1.2
v -1.5 3 1.2
v -1.4 2.6 1.2
v -1.4 2.8 1.2
v -1.3 0.5 1.2
v -1.3 2.3 1.2
v -1.2 2.6 1.2
v -1.2 2.8 1.2
v 1.2 2.6 1.2
v 1.2 2.8 1.2
v 1.3 0.5 1.2
v 1.3 2.3 1.2
v 1.4 2.6 1.2
v 1.4 2.8 1.2
v 1.5 0.4 1.2
v 1.5 0.5 1.2
v 1.5 2.9 1.2
v 1.5 3 1.2
v 1.6 0.5 1.2
v 1.6 2.9 1.2
v 1.7 3 1.2
v 1.7 3.1 1.2
v -1.3 0.5 1.1
v -1.3 2.3 1.1
v 1.3 0.5 1.1
v 1.3 2.3 1.1
v -1.2 2.6 1.3
v -1.2 2.8 1.3
v -1.1 2.6 1.3
v -1.1 2.8 1.3
v 1.1 2.6 1.3
v 1.1 2.8 1.3
v 1.2 2.6 1.3
v 1.2 2.8 1.3
v -1.7 0.3 1.2
v -1.7 0.4 1.2
v -1.6 0.3 1.2
v -1.6 0.4 1.2
v -1.5 0.3 1.2
v -1.5 0.4 1.2
v 1.5 0.3 1.2
v 1.5 0.4 1.2
v 1.6 0.3 1.2
v 1.6 0.4 1.2
v 1.7 0.3 1.2
v 1.7 0.4 1.2
v -1.7 0.4 1
v -1.7 3.1 1
v -1.6 0.3 1
v -1.6 0.4 1
v -1.5 0.3 1
v -1.5 0.4 1
v -1.5 3 1
v -1.4 2.4 1
v -1.4 3 1
v -1.3 0.4 1
v -1.3 0.5 1
v -1.3 2.3 1
v 1.3 0.4 1
v 1.3 0.5 1
v 1.3 2.3 1
v 1.4 0.4 1
v 1.4 2.4 1
v 1.5 0.3 1
v 1.5 0.4 1
v 1.5 3 1
v 1.6 0.3 1
v 1.6 0.4 1
v 1.7 0.4 1
v 1.7 3.1 1
v -1.4 2.4 0.9
v -1.4 3 0.9
v 1.4 0.4 0.9
v 1.4 2.4 0.9
v 1.5 0.4 0.9
v 1.5 3 0.9
v -1.7 0.3 1.3
v 1.7 0.3 1.3
v -1.7 0.3 1.2
v -1.6 0.3 1.2
v -1.5 0.3 1.2
v 1.5 0.3 1.2
v 1.6 0.3 1.2
v 1.7 0.3 1.2
v -1.6 0.3 1
v -1.5 0.3 1
v 1.5 0.3 1
v 1.6 0.3 1
v -1.7 0.4 1.2
v -1.6 0.4 1.2
v -1.5 0.4 1.2
v 1.5 0.4 1.2
v 1.6 0.4 1.2
v 1.7 0.4 1.2
v -1.5 0.4 1.1
v -1.3 0.4 1.1
v 1.3 0.4 1.1
v 1.5 0.4 1.1
v -1.7 0.4 1
v -1.6 0.4 1
v -1.5 0.4 1
v -1.3 0.4 1
v 1.3 0.4 1
v 1.4 0.4 1
v 1.5 0.4 1
v 1.6 0.4 1
v 1.7 0.4 1
v 1.4 0.4 0.9
v 1.5 0.4 0.9
v -1.3 2.3 1.2
v 1.3 2.3 1.2
v -1.3 2.3 1.1
v 1.3 2.3 1.1
v -1.4 2.4 1
v 1.4 2.4 1
v -1.4 2.4 0.9
v 1.4 2.4 0.9
v -1.3 2.6 1.4
v -1.1 2.6 1.4
v 1.1 2.6 1.4
v 1.3 2.6 1.4
v -1.4 2.6 1.3
v -1.3 2.6 1.3
v -1.2 2.6 1.3
v -1.1 2.6 1.3
v 1.1 2.6 1.3
v 1.2 2.6 1.3
v 1.3 2.6 1.3
v 1.4 2.6 1.3
v -1.4 2.6 1.2
v -1.2 2.6 1.2
v 1.2 2.6 1.2
v 1.4 2.6 1.2
v -1.6 2.9 1.3
v -1.5 2.9 1.3
v 1.5 2.9 1.3
v 1.6 2.9 1.3
v -1.6 2.9 1.2
v -1.5 2.9 1.2
v 1.5 2.9 1.2
v 1.6 2.9 1.2
v -1.5 0.4 1.3
v 1.5 0.4 1.3
v -1.5 0.4 1.2
v 1.5 0.4 1.2
v -1.6 0.5 1.3
v -1.5 0.5 1.3
v 1.5 0.5 1.3
v 1.6 0.5 1.3
v -1.6 0.5 1.2
v -1.5 0.5 1.2
v -1.3 0.5 1.2
v 1.3 0.5 1.2
v 1.5 0.5 1.2
v 1.6 0.5 1.2
v -1.3 0.5 1.1
v 1.3 0.5 1.1
v -1.3 2.8 1.4
v -1.1 2.8 1.4
v 1.1 2.8 1.4
v 1.3 2.8 1.4
v -1.4 2.8 1.3
v -1.3 2.8 1.3
v -1.2 2.8 1.3
v -1.1 2.8 1.3
v 1.1 2.8 1.3
v 1.2 2.8 1.3
v 1.3 2.8 1.3
v 1.4 2.8 1.3
v -1.4 2.8 1.2
v -1.2 2.8 1.2
v 1.2 2.8 1.2
v 1.4 2.8 1.2
v -1.7 3 1.3
v -1.5 3 1.3
v 1.5 3 1.3
v 1.7 3 1.3
v -1.7 3 1.2
v -1.5 3 1.2
v 1.5 3 1.2
v 1.7 3 1.2
v -1.4 3 1
v 1.5 3 1
v -1.4 3 0.9
v 1.5 3 0.9
v -1.7 3.1 1.2
v 1.7 3.1 1.2
v -1.7 3.1 1
v 1.7 3.1 1

# faces
f 3/1/1 2/1/1 1/1/1
f 5/1/1 3/1/1 1/1/1
f 5/1/1 4/1/1 3/1/1
f 6/1/1 4/1/1 5/1/1
f 7/1/1 4/1/1 6/1/1
f 8/1/1 4/1/1 7/1/1
f 11/1/1 10/1/1 9/1/1
f 12/1/1 10/1/1 11/1/1
f 17/5/1 16/5/1 15/5/1
f 18/5/1 16/5/1 17/5/1
f 19/3/1 14/3/1 13/3/1
f 20/3/1 14/3/1 19/3/1
f 23/5/1 22/5/1 21/5/1
f 24/5/1 22/5/1 23/5/1
f 27/5/1 26/5/1 25/5/1
f 28/5/1 26/5/1 27/5/1
f 31/3/1 30/3/1 29/3/1
f 32/3/1 30/3/1 31/3/1
f 35/3/1 34/3/1 33/3/1
f 36/3/1 34/3/1 35/3/1
f 40/1/1 38/1/1 37/1/1
f 41/1/1 38/1/1 40/1/1
f 42/1/1 38/1/1 41/1/1
f 43/1/1 40/1/1 39/1/1
f 44/1/1 40/1/1 43/1/1
f 47/1/1 46/1/1 45/1/1
f 48/1/1 46/1/1 47/1/1
f 51/1/1 50/1/1 49/1/1
f 52/1/1 50/1/1 51/1/1
f 53/1/2 54/1/2 55/1/2
f 55/1/2 54/1/2 56/1/2
f 57/1/2 58/1/2 60/1/2
f 60/1/2 58/1/2 61/1/2
f 61/1/2 58/1/2 62/1/2
f 59/1/2 60/1/2 63/1/2
f 63/1/2 60/1/2 64/1/2
f 65/1/2 66/1/2 67/1/2
f 67/1/2 66/1/2 68/1/2
f 69/3/2 70/3/2 71/3/2
f 71/3/2 70/3/2 72/3/2
f 73/5/2 74/5/2 75/5/2
f 75/5/2 74/5/2 76/5/2
f 77/5/2 78/5/2 79/5/2
f 79/5/2 78/5/2 80/5/2
f 81/5/2 82/5/2 83/5/2
f 83/5/2 82/5/2 84/5/2
f 85/3/2 86/3/2 87/3/2
f 87/3/2 86/3/2 88/3/2
f 89/1/2 90/1/2 91/1/2
f 91/1/2 90/1/2 92/1/2
f 93/1/2 94/1/2 95/1/2
f 93/1/2 95/1/2 97/1/2
f 95/1/2 96/1/2 97/1/2
f 97/1/2 96/1/2 98/1/2
f 98/1/2 96/1/2 99/1/2
f 99/1/2 96/1/2 100/1/2
f 103/5/3 102/5/3 101/5/3
f 104/5/3 102/5/3 103/5/3
f 105/4/3 104/4/3 103/4/3
f 106/4/3 104/4/3 105/4/3
f 107/5/3 106/5/3 105/5/3
f 108/5/3 106/5/3 107/5/3
f 111/1/3 110/1/3 109/1/3
f 112/1/3 110/1/3 111/1/3
f 113/1/3 111/1/3 109/1/3
f 114/1/3 111/1/3 113/1/3
f 115/1/3 110/1/3 112/1/3
f 116/1/3 110/1/3 115/1/3
f 119/5/3 118/5/3 117/5/3
f 120/5/3 118/5/3 119/5/3
f 123/5/3 122/5/3 121/5/3
f 124/5/3 122/5/3 123/5/3
f 125/1/3 113/1/3 109/1/3
f 129/1/3 126/1/3 125/1/3
f 130/1/3 128/1/3 127/1/3
f 131/1/3 129/1/3 125/1/3
f 131/1/3 130/1/3 129/1/3
f 131/1/3 125/1/3 109/1/3
f 132/1/3 128/1/3 130/1/3
f 132/1/3 130/1/3 131/1/3
f 138/1/3 136/1/3 135/1/3
f 139/1/3 136/1/3 138/1/3
f 140/1/3 134/1/3 133/1/3
f 141/3/3 139/3/3 138/3/3
f 141/3/3 140/3/3 139/3/3
f 142/3/3 140/3/3 141/3/3
f 143/1/3 138/1/3 137/1/3
f 143/3/3 141/3/3 138/3/3
f 144/3/3 141/3/3 143/3/3
f 145/3/3 141/3/3 144/3/3
f 146/3/3 140/3/3 142/3/3
f 147/3/3 145/3/3 144/3/3
f 147/3/3 146/3/3 145/3/3
f 148/3/3 140/3/3 146/3/3
f 148/3/3 146/3/3 147/3/3
f 149/1/3 143/1/3 137/1/3
f 150/3/3 147/3/3 144/3/3
f 151/3/3 147/3/3 150/3/3
f 151/3/3 150/3/3 149/3/3
f 152/3/3 140/3/3 148/3/3
f 153/1/3 149/1/3 137/1/3
f 154/3/3 152/3/3 151/3/3
f 154/1/3 149/1/3 153/1/3
f 154/3/3 151/3/3 149/3/3
f 155/3/3 140/3/3 152/3/3
f 155/3/3 152/3/3 154/3/3
f 156/1/3 134/1/3 140/1/3
f 156/3/3 140/3/3 155/3/3
f 157/1/3 155/1/3 154/1/3
f 158/1/3 155/1/3 157/1/3
f 159/1/3 134/1/3 156/1/3
f 160/1/3 134/1/3 159/1/3
f 163/2/3 162/2/3 161/2/3
f 164/2/3 162/2/3 163/2/3
f 165/5/4 166/5/4 167/5/4
f 167/5/4 166/5/4 168/5/4
f 167/4/4 168/4/4 169/4/4
f 169/4/4 168/4/4 170/4/4
f 169/5/4 170/5/4 171/5/4
f 171/5/4 170/5/4 172/5/4
f 173/1/4 174/1/4 175/1/4
f 175/1/4 174/1/4 176/1/4
f 177/1/4 178/1/4 179/1/4
f 179/1/4 178/1/4 180/1/4
f 181/1/4 182/1/4 183/1/4
f 183/1/4 182/1/4 184/1/4
f 185/1/4 186/1/4 188/1/4
f 187/1/4 188/1/4 189/1/4
f 188/1/4 186/1/4 190/1/4
f 189/1/4 188/1/4 190/1/4
f 190/1/4 186/1/4 191/1/4
f 190/3/4 191/3/4 192/3/4
f 191/1/4 186/1/4 193/1/4
f 192/3/4 191/3/4 193/3/4
f 190/3/4 192/3/4 194/3/4
f 194/3/4 192/3/4 195/3/4
f 195/3/4 192/3/4 196/3/4
f 194/6/4 195/6/4 197/6/4
f 195/2/4 196/2/4 198/2/4
f 197/6/4 195/6/4 198/6/4
f 196/3/4 192/3/4 199/3/4
f 198/2/4 196/2/4 199/2/4
f 197/3/4 198/3/4 200/3/4
f 198/3/4 199/3/4 200/3/4
f 199/3/4 192/3/4 201/3/4
f 200/3/4 199/3/4 201/3/4
f 193/1/4 186/1/4 204/1/4
f 202/1/4 203/1/4 205/1/4
f 203/1/4 204/1/4 205/1/4
f 205/1/4 204/1/4 206/1/4
f 206/1/4 204/1/4 207/1/4
f 204/1/4 186/1/4 208/1/4
f 207/1/4 204/1/4 208/1/4
f 209/3/4 210/3/4 212/3/4
f 211/3/4 212/3/4 213/3/4
f 212/3/4 210/3/4 214/3/4
f 213/3/4 212/3/4 214/3/4
f 217/1/5 216/1/5 215/1/5
f 218/1/5 216/1/5 217/1/5
f 219/1/5 216/1/5 218/1/5
f 220/1/5 216/1/5 219/1/5
f 221/1/5 216/1/5 220/1/5
f 222/1/5 216/1/5 221/1/5
f 223/1/5 219/1/5 218/1/5
f 224/1/5 219/1/5 223/1/5
f 225/1/5 221/1/5 220/1/5
f 226/1/5 221/1/5 225/1/5
f 233/1/5 230/1/5 229/1/5
f 234/1/5 230/1/5 233/1/5
f 235/1/5 230/1/5 234/1/5
f 236/1/5 230/1/5 235/1/5
f 237/1/5 228/1/5 227/1/5
f 238/1/5 228/1/5 237/1/5
f 239/3/5 234/3/5 233/3/5
f 240/6/5 235/6/5 234/6/5
f 240/3/5 234/3/5 239/3/5
f 241/3/5 236/3/5 235/3/5
f 241/6/5 235/6/5 240/6/5
f 242/3/5 236/3/5 241/3/5
f 243/3/5 236/3/5 242/3/5
f 244/1/5 232/1/5 231/1/5
f 245/1/5 232/1/5 244/1/5
f 246/3/5 243/3/5 242/3/5
f 247/3/5 243/3/5 246/3/5
f 250/3/5 249/3/5 248/3/5
f 251/3/5 249/3/5 250/3/5
f 254/3/5 253/3/5 252/3/5
f 255/3/5 253/3/5 254/3/5
f 261/5/5 257/5/5 256/5/5
f 262/5/5 257/5/5 261/5/5
f 263/4/5 258/4/5 257/4/5
f 263/5/5 257/5/5 262/5/5
f 264/5/5 259/5/5 258/5/5
f 264/4/5 258/4/5 263/4/5
f 265/5/5 259/5/5 264/5/5
f 266/5/5 259/5/5 265/5/5
f 268/5/5 262/5/5 261/5/5
f 268/5/5 261/5/5 260/5/5
f 269/5/5 262/5/5 268/5/5
f 270/5/5 267/5/5 266/5/5
f 270/5/5 266/5/5 265/5/5
f 271/5/5 267/5/5 270/5/5
f 276/1/5 273/1/5 272/1/5
f 277/1/5 273/1/5 276/1/5
f 278/1/5 275/1/5 274/1/5
f 279/1/5 275/1/5 278/1/5
f 280/1/6 281/1/6 282/1/6
f 282/1/6 281/1/6 283/1/6
f 284/1/6 285/1/6 288/1/6
f 288/1/6 285/1/6 289/1/6
f 286/1/6 287/1/6 292/1/6
f 292/1/6 287/1/6 293/1/6
f 290/1/6 291/1/6 294/1/6
f 294/1/6 291/1/6 295/1/6
f 296/5/6 297/5/6 301/5/6
f 301/5/6 297/5/6 302/5/6
f 297/4/6 298/4/6 303/4/6
f 302/5/6 297/5/6 303/5/6
f 298/5/6 299/5/6 304/5/6
f 303/4/6 298/4/6 304/4/6
f 304/5/6 299/5/6 305/5/6
f 305/5/6 299/5/6 306/5/6
f 301/5/6 302/5/6 308/5/6
f 300/5/6 301/5/6 308/5/6
f 308/5/6 302/5/6 309/5/6
f 306/5/6 307/5/6 310/5/6
f 305/5/6 306/5/6 310/5/6
f 310/5/6 307/5/6 311/5/6
f 312/1/6 313/1/6 316/1/6
f 316/1/6 313/1/6 317/1/6
f 314/1/6 315/1/6 318/1/6
f 318/1/6 315/1/6 319/1/6
f 320/3/6 321/3/6 322/3/6
f 322/3/6 321/3/6 323/3/6
f 324/1/6 325/1/6 326/1/6
f 326/1/6 325/1/6 327/1/6
